<svg width="951" height="721" viewBox="0 0 951 721" fill="none" xmlns="http://www.w3.org/2000/svg">
<path d="M216.467 292.968C213.185 324.475 216.467 327.101 205.309 363.859" stroke="#C40000" stroke-linecap="round"/>
<path d="M204.652 434.751C243.38 384.864 305.739 338.259 365.471 434.751" stroke="black" stroke-linecap="round"/>
<path d="M204.652 434.094C240.061 393.321 278.826 361.233 328.056 392.084" stroke="black" stroke-linecap="round"/>
<path d="M620.813 272.964C668.328 248.476 733.075 234.869 745.881 329.915" stroke="black" stroke-linecap="round"/>
<path d="M621.043 272.461C662.798 253.777 704.135 242.932 731.663 283.991" stroke="black" stroke-linecap="round"/>
<path d="M571.363 317.707C580.793 281.603 584.617 226.067 540.732 183.74" stroke="black" stroke-linecap="round"/>
<path d="M571.583 317.658C578.575 285.021 582.002 250.257 562.232 211.623" stroke="black" stroke-linecap="round"/>
<path d="M346.436 636.694C385.314 619.332 440.458 584.023 462.072 519.428" stroke="#C40000" stroke-linecap="round"/>
<path d="M346.58 636.837C381.056 619.908 416.026 598.638 444.602 556.013" stroke="#C40000" stroke-linecap="round"/>
<circle cx="403.543" cy="495.141" r="15.0973" fill="#C40000"/>
<circle cx="592.588" cy="576.535" r="15.0973" fill="black"/>
<circle cx="570.27" cy="606.729" r="8.53325" fill="#C40000"/>
<circle cx="747.498" cy="482.012" r="15.0973" fill="black"/>
<circle cx="868.934" cy="419.654" r="10.5025" fill="black"/>
<circle cx="862.37" cy="393.397" r="10.5025" fill="black"/>
<circle cx="576.835" cy="449.192" r="11.1589" fill="#C40000"/>
<circle cx="576.835" cy="449.192" r="11.1589" fill="#C40000"/>
<path d="M481.71 309.99C488.318 322.898 481.476 343.295 469.214 349.573C456.952 355.851 436.318 349.522 429.709 336.615C423.101 323.707 432.422 307.94 444.684 301.662C456.946 295.384 475.101 297.083 481.71 309.99Z" fill="black"/>
<path d="M480.276 320.303C485.222 329.962 480.102 345.225 470.926 349.923C461.751 354.621 446.31 349.885 441.365 340.226C436.419 330.568 443.395 318.769 452.57 314.071C461.746 309.373 475.331 310.645 480.276 320.303Z" fill="#C40000"/>
<circle cx="152.796" cy="426.874" r="11.1589" fill="#C40000"/>
<circle cx="152.796" cy="426.874" r="11.1589" fill="#C40000"/>
<circle cx="151.483" cy="249.645" r="11.1589" fill="#C40000"/>
<circle cx="231.565" cy="233.892" r="11.1589" fill="#C40000"/>
<circle cx="244.037" cy="250.301" r="6.56404" fill="#C40000"/>
<circle cx="209.904" cy="234.548" r="6.56404" fill="#C40000"/>
<circle cx="22.8288" cy="404.556" r="11.1589" fill="black"/>
<circle cx="93.064" cy="444.597" r="6.56404" fill="black"/>
<circle cx="153.453" cy="453.787" r="6.56404" fill="black"/>
<circle cx="162.644" cy="220.107" r="13.1281" fill="black"/>
<circle cx="247.319" cy="270.65" r="9.84606" fill="black"/>
<circle cx="261.103" cy="293.624" r="6.56404" fill="black"/>
<circle cx="400.261" cy="415.715" r="6.56404" fill="black"/>
<circle cx="401.574" cy="441.971" r="9.18966" fill="#C40000"/>
<circle cx="469.839" cy="431.469" r="6.56404" fill="black"/>
<circle cx="833.488" cy="302.814" r="6.56404" fill="#C40000"/>
<circle cx="113.412" cy="247.019" r="9.84606" fill="black"/>
<circle cx="437.676" cy="185.318" r="11.1589" fill="#C40000"/>
<circle cx="437.676" cy="185.318" r="11.1589" fill="#C40000"/>
<circle cx="531.542" cy="153.154" r="5.25123" fill="#C40000"/>
<circle cx="561.736" cy="150.528" r="5.25123" fill="#C40000"/>
<circle cx="517.101" cy="179.41" r="5.25123" fill="#C40000"/>
<circle cx="521.04" cy="164.969" r="5.25123" fill="black"/>
<circle cx="521.04" cy="164.969" r="5.25123" fill="black"/>
<circle cx="521.04" cy="164.969" r="5.25123" fill="black"/>
<circle cx="521.04" cy="164.969" r="5.25123" fill="black"/>
<circle cx="545.982" cy="147.903" r="5.25123" fill="black"/>
<circle cx="545.982" cy="147.903" r="5.25123" fill="black"/>
<circle cx="545.982" cy="147.903" r="5.25123" fill="black"/>
<circle cx="545.982" cy="147.903" r="5.25123" fill="black"/>
<circle cx="573.552" cy="159.718" r="5.25123" fill="black"/>
<circle cx="573.552" cy="159.718" r="5.25123" fill="black"/>
<circle cx="573.552" cy="159.718" r="5.25123" fill="black"/>
<circle cx="573.552" cy="159.718" r="5.25123" fill="black"/>
<circle cx="786.883" cy="268.024" r="11.1589" fill="#C40000"/>
<circle cx="786.883" cy="268.024" r="19.0357" fill="#C40000"/>
<circle cx="750.781" cy="403.9" r="9.18966" fill="#C40000"/>
<circle cx="826.923" cy="281.809" r="6.56404" fill="black"/>
<path d="M182.79 253.536L171.627 246.622L181.624 240.457L182.79 253.536Z" fill="black"/>
<path d="M171.626 246.622C169.924 243.861 170.501 239.789 173.262 238.086C176.022 236.384 179.921 237.696 181.623 240.457C181.661 243.569 182.188 246.381 179.427 248.083C176.667 249.786 175.125 248.228 171.626 246.622Z" fill="black"/>
<path d="M187.429 254.838L197.666 246.613L200.151 258.093L187.429 254.838Z" fill="black"/>
<path d="M197.663 246.613C200.833 245.927 204.48 247.827 205.167 250.997C205.853 254.167 203.318 257.406 200.148 258.093C197.2 257.092 194.373 256.652 193.687 253.482C193.001 250.312 194.984 249.378 197.663 246.613Z" fill="black"/>
<path d="M185.384 252.851L184.191 239.773L195.13 244.05L185.384 252.851Z" fill="black"/>
<path d="M184.192 239.773C185.373 236.752 188.974 234.764 191.995 235.945C195.016 237.126 196.313 241.029 195.132 244.05C192.668 245.953 190.739 248.065 187.718 246.884C184.697 245.703 185.015 243.534 184.192 239.773Z" fill="black"/>
<path d="M186.749 255.697L197.467 263.284L187.111 268.824L186.749 255.697Z" fill="black"/>
<path d="M197.467 263.283C198.997 266.143 198.17 270.173 195.31 271.703C192.45 273.232 188.64 271.683 187.11 268.824C187.263 265.714 186.91 262.876 189.77 261.346C192.63 259.816 194.073 261.466 197.467 263.283Z" fill="black"/>
<path d="M182.193 254.113L171.47 261.694L169.694 250.084L182.193 254.113Z" fill="black"/>
<path d="M171.471 261.694C168.265 262.185 164.741 260.064 164.25 256.858C163.76 253.652 166.489 250.574 169.695 250.084C172.576 251.264 175.37 251.876 175.861 255.082C176.351 258.288 174.315 259.099 171.471 261.694Z" fill="black"/>
<path d="M184.121 256.223L184.509 269.349L173.853 264.409L184.121 256.223Z" fill="black"/>
<path d="M184.51 269.349C183.146 272.292 179.43 274.055 176.487 272.691C173.545 271.327 172.49 267.351 173.854 264.409C176.43 262.661 178.485 260.671 181.428 262.035C184.37 263.4 183.92 265.545 184.51 269.349Z" fill="black"/>
<path d="M327.978 254.425L318.062 248.284L326.942 242.807L327.978 254.425Z" fill="#C40000"/>
<path d="M318.061 248.284C316.549 245.832 317.062 242.214 319.514 240.702C321.966 239.19 325.428 240.355 326.94 242.807C326.974 245.572 327.442 248.069 324.99 249.582C322.538 251.094 321.169 249.71 318.061 248.284Z" fill="#C40000"/>
<path d="M332.098 255.581L341.19 248.275L343.397 258.472L332.098 255.581Z" fill="#C40000"/>
<path d="M341.187 248.275C344.003 247.666 347.243 249.354 347.852 252.169C348.462 254.985 346.21 257.862 343.394 258.472C340.776 257.583 338.266 257.192 337.656 254.377C337.047 251.561 338.808 250.731 341.187 248.275Z" fill="#C40000"/>
<path d="M330.28 253.816L329.221 242.2L338.937 245.999L330.28 253.816Z" fill="#C40000"/>
<path d="M329.221 242.2C330.27 239.516 333.469 237.75 336.152 238.799C338.835 239.848 339.987 243.315 338.938 245.998C336.749 247.689 335.036 249.564 332.353 248.515C329.67 247.466 329.952 245.54 329.221 242.2Z" fill="#C40000"/>
<path d="M331.492 256.345L341.012 263.084L331.813 268.004L331.492 256.345Z" fill="#C40000"/>
<path d="M341.012 263.084C342.371 265.624 341.637 269.203 339.097 270.562C336.556 271.921 333.172 270.545 331.813 268.005C331.949 265.243 331.635 262.722 334.176 261.363C336.716 260.004 337.997 261.47 341.012 263.084Z" fill="#C40000"/>
<path d="M327.451 254.937L317.927 261.671L316.35 251.358L327.451 254.937Z" fill="#C40000"/>
<path d="M317.927 261.671C315.079 262.107 311.949 260.223 311.513 257.375C311.078 254.527 313.502 251.794 316.35 251.359C318.908 252.406 321.39 252.95 321.826 255.798C322.261 258.646 320.453 259.366 317.927 261.671Z" fill="#C40000"/>
<path d="M329.16 256.811L329.504 268.47L320.04 264.082L329.16 256.811Z" fill="#C40000"/>
<path d="M329.507 268.469C328.296 271.083 324.995 272.65 322.381 271.438C319.768 270.226 318.831 266.695 320.043 264.081C322.33 262.528 324.156 260.761 326.769 261.973C329.383 263.185 328.983 265.09 329.507 268.469Z" fill="#C40000"/>
<path d="M321.445 168.994L311.529 162.852L320.409 157.376L321.445 168.994Z" fill="#C40000"/>
<path d="M311.528 162.852C310.015 160.4 310.528 156.783 312.98 155.27C315.432 153.758 318.895 154.924 320.407 157.376C320.441 160.141 320.909 162.638 318.457 164.15C316.005 165.662 314.636 164.278 311.528 162.852Z" fill="#C40000"/>
<path d="M325.564 170.15L334.657 162.844L336.864 173.041L325.564 170.15Z" fill="#C40000"/>
<path d="M334.654 162.844C337.47 162.235 340.71 163.923 341.319 166.739C341.929 169.554 339.677 172.431 336.861 173.041C334.243 172.152 331.732 171.761 331.123 168.946C330.513 166.13 332.274 165.3 334.654 162.844Z" fill="#C40000"/>
<path d="M323.747 168.384L322.688 156.768L332.404 160.567L323.747 168.384Z" fill="#C40000"/>
<path d="M322.688 156.768C323.737 154.085 326.935 152.319 329.618 153.368C332.301 154.417 333.453 157.884 332.404 160.567C330.216 162.257 328.503 164.133 325.82 163.084C323.137 162.035 323.419 160.109 322.688 156.768Z" fill="#C40000"/>
<path d="M324.957 170.913L334.477 177.652L325.278 182.572L324.957 170.913Z" fill="#C40000"/>
<path d="M334.477 177.652C335.836 180.192 335.102 183.771 332.561 185.13C330.021 186.489 326.637 185.113 325.278 182.573C325.414 179.811 325.1 177.29 327.64 175.931C330.181 174.572 331.462 176.038 334.477 177.652Z" fill="#C40000"/>
<path d="M320.916 169.506L311.392 176.239L309.814 165.927L320.916 169.506Z" fill="#C40000"/>
<path d="M311.392 176.24C308.544 176.675 305.414 174.791 304.978 171.944C304.543 169.096 306.967 166.363 309.814 165.927C312.373 166.975 314.855 167.519 315.291 170.366C315.726 173.214 313.917 173.934 311.392 176.24Z" fill="#C40000"/>
<path d="M322.625 171.38L322.969 183.038L313.505 178.65L322.625 171.38Z" fill="#C40000"/>
<path d="M322.972 183.038C321.76 185.651 318.46 187.218 315.846 186.006C313.233 184.794 312.296 181.263 313.507 178.65C315.795 177.097 317.621 175.33 320.234 176.541C322.848 177.753 322.448 179.658 322.972 183.038Z" fill="#C40000"/>
<path d="M395.125 478.912L382.522 474.653L390.97 466.274L395.125 478.912Z" fill="black"/>
<path d="M382.52 474.654C380.206 472.321 379.841 468.17 382.174 465.856C384.507 463.542 388.655 463.941 390.969 466.274C391.721 469.337 392.886 471.99 390.553 474.304C388.22 476.618 386.341 475.434 382.52 474.654Z" fill="black"/>
<path d="M404.234 474.42L394.597 465.248L405.79 461.208L404.234 474.42Z" fill="black"/>
<path d="M394.596 465.248C393.481 462.157 394.898 458.239 397.988 457.123C401.079 456.007 404.673 458.117 405.788 461.207C405.18 464.302 405.12 467.199 402.029 468.315C398.938 469.431 397.733 467.566 394.596 465.248Z" fill="black"/>
<path d="M414.241 507.204L426.089 513.254L416.51 520.313L414.241 507.204Z" fill="black"/>
<path d="M426.09 513.254C428.04 515.899 427.797 520.059 425.151 522.008C422.506 523.958 418.461 522.958 416.511 520.313C416.213 517.173 415.447 514.379 418.092 512.429C420.737 510.48 422.424 511.925 426.09 513.254Z" fill="black"/>
<path d="M421.954 501.944L434.828 498.59L432.361 510.231L421.954 501.944Z" fill="black"/>
<path d="M434.828 498.59C438.042 499.271 440.625 502.541 439.944 505.755C439.263 508.97 435.576 510.911 432.362 510.23C430.052 508.082 427.622 506.503 428.303 503.289C428.984 500.074 431.205 500.033 434.828 498.59Z" fill="black"/>
<path d="M425.319 490.231L435.445 481.601L438.298 493.153L425.319 490.231Z" fill="black"/>
<path d="M435.444 481.6C438.634 480.812 442.384 482.63 443.172 485.82C443.96 489.01 441.488 492.364 438.298 493.152C435.283 492.225 432.408 491.863 431.62 488.673C430.832 485.483 432.813 484.479 435.444 481.6Z" fill="black"/>
<path d="M421.082 480.517L426.549 468.389L434.065 477.614L421.082 480.517Z" fill="black"/>
<path d="M426.547 468.39C429.094 466.314 433.261 466.355 435.336 468.903C437.412 471.45 436.61 475.539 434.062 477.615C430.941 478.065 428.187 478.966 426.111 476.418C424.036 473.871 425.397 472.117 426.547 468.39Z" fill="black"/>
<path d="M412.361 474.394L411.153 461.145L422.235 465.478L412.361 474.394Z" fill="black"/>
<path d="M411.153 461.144C412.349 458.084 415.997 456.069 419.057 457.266C422.118 458.462 423.432 462.417 422.235 465.477C419.739 467.405 417.785 469.544 414.725 468.348C411.664 467.152 411.986 464.954 411.153 461.144Z" fill="black"/>
<path d="M702.281 342.035L687.794 336.803L697.04 327.886L702.281 342.035Z" fill="black"/>
<path d="M687.792 336.803C685.068 334.127 684.481 329.521 687.034 327.059C689.588 324.597 694.314 325.211 697.038 327.887C698.019 331.305 699.452 334.287 696.899 336.749C694.346 339.211 692.163 337.824 687.792 336.803Z" fill="black"/>
<path d="M712.433 337.444L701.111 326.902L713.651 322.897L712.433 337.444Z" fill="black"/>
<path d="M701.111 326.901C699.716 323.437 701.162 319.162 704.625 318.056C708.088 316.951 712.256 319.433 713.651 322.897C713.089 326.294 713.14 329.495 709.677 330.601C706.214 331.707 704.768 329.594 701.111 326.901Z" fill="black"/>
<path d="M733.7 368.616L748.178 365.441L745.861 378.212L733.7 368.616Z" fill="black"/>
<path d="M748.179 365.44C751.857 366.327 754.925 370.05 754.285 373.576C753.645 377.103 749.539 379.097 745.861 378.211C743.15 375.74 740.325 373.893 740.966 370.367C741.606 366.84 744.125 366.887 748.179 365.44Z" fill="black"/>
<path d="M737.039 355.802L748.178 346.678L751.897 359.571L737.039 355.802Z" fill="black"/>
<path d="M748.18 346.677C751.769 345.938 756.102 348.103 757.129 351.663C758.156 355.224 755.488 358.831 751.899 359.57C748.437 358.42 745.158 357.901 744.131 354.34C743.104 350.78 745.311 349.751 748.18 346.677Z" fill="black"/>
<path d="M731.821 344.884L737.526 331.699L746.442 342.212L731.821 344.884Z" fill="black"/>
<path d="M737.52 331.7C740.326 329.511 745.059 329.729 747.521 332.632C749.984 335.535 749.242 340.024 746.436 342.213C742.91 342.582 739.82 343.464 737.358 340.561C734.896 337.658 736.369 335.774 737.52 331.7Z" fill="black"/>
<path d="M721.667 337.751L719.746 323.05L732.509 328.301L721.667 337.751Z" fill="black"/>
<path d="M719.745 323.05C720.977 319.715 725.035 317.639 728.559 319.089C732.084 320.538 733.74 324.966 732.508 328.301C729.754 330.329 727.623 332.614 724.099 331.164C720.575 329.714 720.849 327.298 719.745 323.05Z" fill="black"/>
<path d="M568.516 413.493L571.661 426.419L560.062 423.764L568.516 413.493Z" fill="black"/>
<path d="M571.662 426.42C570.929 429.623 567.617 432.153 564.414 431.419C561.211 430.686 559.33 426.968 560.063 423.765C562.248 421.491 563.866 419.087 567.069 419.82C570.272 420.553 570.277 422.774 571.662 426.42Z" fill="black"/>
<path d="M565.864 379.056L553.221 374.914L561.592 366.457L565.864 379.056Z" fill="black"/>
<path d="M553.221 374.915C550.885 372.603 550.482 368.456 552.793 366.121C555.105 363.785 559.256 364.146 561.591 366.458C562.372 369.513 563.562 372.156 561.25 374.491C558.939 376.826 557.049 375.66 553.221 374.915Z" fill="black"/>
<path d="M574.825 373.208L564.449 364.882L575.26 359.912L574.825 373.208Z" fill="black"/>
<path d="M564.449 364.881C563.077 361.896 564.158 357.871 567.144 356.499C570.129 355.127 573.888 356.926 575.26 359.911C574.916 363.046 575.099 365.938 572.114 367.31C569.128 368.683 567.77 366.926 564.449 364.881Z" fill="black"/>
<path d="M530.804 136.584L523.154 130.955L530.717 127.086L530.804 136.584Z" fill="black"/>
<path d="M523.153 130.955C522.084 128.866 522.735 125.963 524.824 124.895C526.912 123.826 529.647 124.997 530.716 127.085C530.564 129.332 530.782 131.389 528.693 132.458C526.605 133.526 525.583 132.314 523.153 130.955Z" fill="black"/>
<path d="M522.811 141.606L513.922 138.258L520.156 132.486L522.811 141.606Z" fill="black"/>
<path d="M513.922 138.258C512.328 136.537 512.169 133.566 513.891 131.972C515.612 130.378 518.562 130.765 520.156 132.486C520.618 134.69 521.384 136.612 519.663 138.206C517.941 139.8 516.63 138.909 513.922 138.258Z" fill="black"/>
<path d="M516.786 147.505L507.452 145.748L512.591 138.984L516.786 147.505Z" fill="black"/>
<path d="M507.45 145.749C505.582 144.33 504.911 141.432 506.33 139.564C507.749 137.696 510.721 137.565 512.589 138.984C513.426 141.075 514.514 142.835 513.095 144.703C511.675 146.571 510.229 145.921 507.45 145.749Z" fill="black"/>
<path d="M509.337 181.032L500.958 185.503L500.732 177.011L509.337 181.032Z" fill="black"/>
<path d="M500.957 185.504C498.612 185.566 496.274 183.725 496.212 181.38C496.15 179.035 498.387 177.074 500.732 177.011C502.692 178.118 504.642 178.81 504.704 181.155C504.767 183.5 503.232 183.898 500.957 185.504Z" fill="black"/>
<path d="M508.932 173.803L499.835 176.535L501.288 168.165L508.932 173.803Z" fill="black"/>
<path d="M499.834 176.536C497.523 176.134 495.594 173.87 495.995 171.558C496.396 169.247 498.976 167.764 501.287 168.166C502.991 169.637 504.767 170.7 504.365 173.011C503.964 175.322 502.381 175.41 499.834 176.536Z" fill="black"/>
<path d="M509.24 165.184L499.746 165.43L503.347 157.736L509.24 165.184Z" fill="black"/>
<path d="M499.745 165.431C497.621 164.436 496.355 161.744 497.349 159.619C498.343 157.495 501.222 156.742 503.346 157.736C504.604 159.604 506.038 161.096 505.043 163.22C504.049 165.345 502.498 165.014 499.745 165.431Z" fill="black"/>
<path d="M512.416 156.003L502.921 156.249L506.523 148.555L512.416 156.003Z" fill="black"/>
<path d="M502.921 156.25C500.796 155.256 499.53 152.563 500.525 150.439C501.519 148.314 504.397 147.561 506.522 148.556C507.78 150.423 509.213 151.915 508.219 154.04C507.225 156.164 505.674 155.833 502.921 156.25Z" fill="black"/>
<path d="M538.217 134.744L539.91 125.622L532.359 127.405L538.217 134.744Z" fill="black"/>
<path d="M539.911 125.62C539.336 123.348 537.085 121.53 535 122.023C532.914 122.515 531.785 125.131 532.36 127.403C533.863 129.031 534.997 130.745 537.082 130.253C539.167 129.761 539.106 128.189 539.911 125.62Z" fill="black"/>
<path d="M546.78 133.575L550.735 125.424L542.902 124.913L546.78 133.575Z" fill="black"/>
<path d="M550.735 125.424C550.746 123.103 549.003 120.725 546.84 120.584C544.677 120.442 542.913 122.592 542.902 124.913C543.962 126.893 544.638 128.848 546.801 128.989C548.964 129.131 549.301 127.624 550.735 125.424Z" fill="black"/>
<path d="M554.551 134.315L559.801 127.105L552.093 125.145L554.551 134.315Z" fill="black"/>
<path d="M559.801 127.106C560.187 124.844 558.837 122.2 556.708 121.659C554.58 121.117 552.479 122.884 552.093 125.146C552.827 127.275 553.184 129.307 555.313 129.849C557.441 130.39 558.019 128.983 559.801 127.106Z" fill="black"/>
<path d="M580.503 155.348L588.984 153.514L583.846 146.859L580.503 155.348Z" fill="black"/>
<path d="M588.986 153.513C590.619 152.088 591.06 149.208 589.642 147.371C588.223 145.533 585.48 145.434 583.848 146.859C583.205 148.939 582.31 150.695 583.729 152.532C585.148 154.37 586.439 153.711 588.986 153.513Z" fill="black"/>
<path d="M576.273 149.549L584.158 145.931L577.956 140.425L576.273 149.549Z" fill="black"/>
<path d="M584.158 145.931C585.479 144.171 585.379 141.223 583.666 139.702C581.953 138.181 579.277 138.665 577.956 140.424C577.714 142.623 577.17 144.553 578.883 146.074C580.595 147.594 581.726 146.667 584.158 145.931Z" fill="black"/>
<path d="M570.695 143.133L577.302 137.358L570.06 133.719L570.695 143.133Z" fill="black"/>
<path d="M577.302 137.358C578.126 135.261 577.309 132.401 575.31 131.396C573.31 130.391 570.885 131.622 570.06 133.719C570.369 135.941 570.324 137.986 572.324 138.991C574.324 139.995 575.171 138.768 577.302 137.358Z" fill="black"/>
<path d="M562.816 138.088L569.423 132.313L562.181 128.674L562.816 138.088Z" fill="black"/>
<path d="M569.423 132.313C570.248 130.216 569.431 127.356 567.431 126.351C565.431 125.346 563.006 126.577 562.181 128.674C562.49 130.896 562.445 132.941 564.445 133.945C566.445 134.95 567.292 133.722 569.423 132.313Z" fill="black"/>
<path d="M535.013 186.063L528.758 181.448L527.439 188.027L535.013 186.063Z" fill="black"/>
<path d="M528.758 181.446C526.849 181.08 524.691 182.196 524.327 184.013C523.963 185.829 525.53 187.659 527.439 188.025C529.19 187.429 530.877 187.155 531.242 185.338C531.606 183.521 530.404 183.004 528.758 181.446Z" fill="black"/>
<path d="M536.055 181.331L531.949 174.848L528.231 180.481L536.055 181.331Z" fill="black"/>
<path d="M531.951 174.847C530.304 173.835 527.865 174.108 526.838 175.664C525.811 177.219 526.585 179.468 528.232 180.481C530.095 180.546 531.776 180.886 532.803 179.331C533.83 177.775 532.902 176.871 531.951 174.847Z" fill="black"/>
<path d="M539.759 176.642L538.072 169.22L532.633 173.295L539.759 176.642Z" fill="black"/>
<path d="M538.073 169.22C536.856 167.733 534.452 167.196 532.95 168.321C531.448 169.446 531.417 171.809 532.634 173.295C534.377 173.963 535.854 174.83 537.356 173.705C538.858 172.579 538.286 171.429 538.073 169.22Z" fill="black"/>
<path d="M563.436 177.209L569.7 173.078L563.675 169.51L563.436 177.209Z" fill="black"/>
<path d="M569.702 173.078C570.6 171.445 570.127 169.053 568.463 168.067C566.799 167.082 564.575 167.876 563.677 169.509C563.76 171.34 563.548 172.997 565.212 173.982C566.875 174.968 567.72 174.042 569.702 173.078Z" fill="black"/>
<path d="M557.223 173.501L562.009 167.724L555.282 165.973L557.223 173.501Z" fill="black"/>
<path d="M562.01 167.723C562.403 165.886 561.281 163.703 559.423 163.22C557.566 162.736 555.677 164.136 555.284 165.973C555.877 167.724 556.143 169.389 558 169.872C559.858 170.355 560.399 169.219 562.01 167.723Z" fill="black"/>
<path d="M550.773 173.143L554.169 166.404L547.312 166.102L550.773 173.143Z" fill="black"/>
<path d="M554.169 166.404C554.161 164.502 552.617 162.579 550.723 162.495C548.829 162.412 547.303 164.2 547.312 166.102C548.254 167.709 548.861 169.301 550.755 169.385C552.649 169.468 552.931 168.228 554.169 166.404Z" fill="black"/>
<path d="M544.292 173.36L545.803 165.967L539.106 167.473L544.292 173.36Z" fill="black"/>
<path d="M545.804 165.966C545.296 164.133 543.302 162.681 541.453 163.097C539.604 163.513 538.599 165.639 539.106 167.473C540.437 168.776 541.441 170.154 543.29 169.738C545.139 169.322 545.087 168.051 545.804 165.966Z" fill="black"/>
<path d="M559.33 388.789L546.146 390.57L549.994 379.311L559.33 388.789Z" fill="black"/>
<path d="M546.145 390.571C543.036 389.508 540.865 385.951 541.928 382.842C542.99 379.733 546.884 378.249 549.993 379.311C552.028 381.721 554.25 383.581 553.187 386.69C552.125 389.799 549.916 389.573 546.145 390.571Z" fill="black"/>
<path d="M557.643 399.251L546.484 406.495L545.152 394.671L557.643 399.251Z" fill="black"/>
<path d="M546.487 406.496C543.221 406.864 539.739 404.576 539.371 401.31C539.003 398.045 541.889 395.039 545.155 394.672C548.024 395.981 550.827 396.713 551.195 399.978C551.563 403.244 549.469 403.983 546.487 406.496Z" fill="black"/>
<path d="M561.665 409.118L555.515 420.915L548.537 411.277L561.665 409.118Z" fill="black"/>
<path d="M555.515 420.915C552.853 422.842 548.695 422.563 546.768 419.902C544.842 417.24 545.875 413.203 548.537 411.276C551.679 411.005 554.48 410.262 556.407 412.924C558.334 415.586 556.875 417.259 555.515 420.915Z" fill="black"/>
<path d="M303.741 204.402L297.677 196.616L306.331 194.879L303.741 204.402Z" fill="black"/>
<path d="M297.675 196.615C297.195 194.226 298.665 191.506 301.055 191.026C303.445 190.547 305.85 192.489 306.33 194.879C305.544 197.082 305.182 199.201 302.792 199.681C300.402 200.161 299.722 198.66 297.675 196.615Z" fill="black"/>
<path d="M313.723 226.54L323.536 225.491L320.45 233.762L313.723 226.54Z" fill="black"/>
<path d="M323.537 225.491C325.821 226.343 327.357 229.025 326.505 231.309C325.652 233.593 322.734 234.613 320.451 233.761C318.992 231.932 317.382 230.507 318.234 228.223C319.087 225.939 320.72 226.153 323.537 225.491Z" fill="black"/>
<path d="M317.479 218.315L325.855 213.094L326.681 221.883L317.479 218.315Z" fill="black"/>
<path d="M325.854 213.094C328.281 212.865 330.833 214.61 331.061 217.037C331.289 219.464 329.107 221.654 326.68 221.882C324.57 220.872 322.501 220.29 322.272 217.864C322.044 215.437 323.607 214.917 325.854 213.094Z" fill="black"/>
<path d="M315.434 210.723L320.776 202.424L325.278 210.017L315.434 210.723Z" fill="black"/>
<path d="M320.773 202.425C322.87 201.181 325.922 201.668 327.166 203.765C328.409 205.862 327.372 208.774 325.275 210.017C322.936 210.005 320.816 210.364 319.573 208.268C318.33 206.171 319.521 205.033 320.773 202.425Z" fill="black"/>
<path d="M309.709 205.274L310.276 195.421L317.932 199.816L309.709 205.274Z" fill="black"/>
<path d="M310.275 195.422C311.489 193.308 314.386 192.229 316.5 193.443C318.614 194.656 319.145 197.702 317.931 199.816C315.888 200.957 314.22 202.312 312.106 201.099C309.992 199.885 310.469 198.308 310.275 195.422Z" fill="black"/>
<path d="M729.829 489.369L726.509 501.718L717.957 494.123L729.829 489.369Z" fill="#C40000"/>
<path d="M726.509 501.72C724.412 504.082 720.452 504.684 718.09 502.587C715.729 500.489 715.86 496.486 717.958 494.124C720.85 493.217 723.325 491.938 725.686 494.035C728.048 496.133 727.026 498.007 726.509 501.72Z" fill="#C40000"/>
<path d="M744.935 461.764L736.19 452.433L747.153 449.17L744.935 461.764Z" fill="#C40000"/>
<path d="M736.189 452.433C735.288 449.406 736.863 445.723 739.89 444.822C742.918 443.92 746.25 446.142 747.152 449.17C746.398 452.106 746.181 454.883 743.153 455.784C740.126 456.685 739.072 454.829 736.189 452.433Z" fill="#C40000"/>
<path d="M733.498 464.3L721.561 459.713L730.006 451.998L733.498 464.3Z" fill="#C40000"/>
<path d="M721.56 459.713C719.43 457.381 719.243 453.38 721.575 451.25C723.907 449.119 727.875 449.667 730.005 451.999C730.607 454.97 731.621 457.564 729.289 459.694C726.957 461.825 725.2 460.614 721.56 459.713Z" fill="#C40000"/>
<path d="M727.243 472.34L714.49 473.293L718.829 462.71L727.243 472.34Z" fill="#C40000"/>
<path d="M714.491 473.296C711.569 472.097 709.69 468.56 710.888 465.637C712.086 462.715 715.908 461.514 718.83 462.712C720.644 465.142 722.669 467.054 721.471 469.976C720.273 472.899 718.167 472.555 714.491 473.296Z" fill="#C40000"/>
<path d="M726.075 482.516L715.442 489.62L714.011 478.272L726.075 482.516Z" fill="#C40000"/>
<path d="M715.442 489.62C712.308 490.015 708.932 487.86 708.537 484.726C708.142 481.592 710.878 478.667 714.012 478.272C716.786 479.494 719.49 480.162 719.885 483.296C720.28 486.429 718.277 487.167 715.442 489.62Z" fill="#C40000"/>
<path d="M724.902 538.941L736.22 532.281L737.021 544L724.902 538.941Z" fill="black"/>
<path d="M736.219 532.282C739.455 532.061 742.79 534.469 743.011 537.704C743.232 540.94 740.256 543.779 737.02 544C734.247 542.585 731.514 541.741 731.293 538.505C731.072 535.27 733.169 534.631 736.219 532.282Z" fill="black"/>
<path d="M721.586 542.444L724.098 555.333L712.781 552.187L721.586 542.444Z" fill="black"/>
<path d="M724.097 555.332C723.228 558.457 719.848 560.8 716.723 559.932C713.598 559.063 711.912 555.311 712.781 552.186C715.039 550.043 716.744 547.747 719.869 548.615C722.994 549.484 722.898 551.674 724.097 555.332Z" fill="black"/>
<path d="M724.303 541.552L736.431 546.586L727.552 554.275L724.303 541.552Z" fill="black"/>
<path d="M736.43 546.585C738.554 549.037 738.637 553.149 736.185 555.273C733.733 557.396 729.675 556.726 727.552 554.274C727.015 551.208 726.044 548.517 728.496 546.394C730.948 544.271 732.719 545.562 736.43 546.585Z" fill="black"/>
<path d="M337.718 295.933C332.274 293.785 326.621 297.594 325.544 302.735C324.475 307.888 326.142 312.431 329.822 314.65C334.625 317.546 343.953 317.621 346.328 320.386C347.397 315.234 347.851 299.683 337.718 295.933Z" fill="black"/>
<path d="M344.904 303.989C346.314 310.31 342.704 315.743 337.159 315.986C331.603 316.218 327.106 313.58 325.351 309.169C323.06 303.412 324.419 293.234 321.891 290.146C327.446 289.913 341.748 292.632 344.904 303.989Z" fill="black"/>
<path d="M338.813 327.818C332.732 326.46 327.418 331.402 327.137 336.988C326.866 342.583 329.371 347.085 333.609 348.809C339.14 351.06 348.962 349.593 351.918 352.108C352.189 346.513 350.091 330.084 338.813 327.818Z" fill="black"/>
<path d="M347.707 335.101C350.237 341.515 347.341 347.827 341.549 349C335.745 350.165 330.579 348.136 328.002 343.787C324.64 338.112 324.383 327.184 321.213 324.354C327.017 323.189 342.508 323.68 347.707 335.101Z" fill="black"/>
<path d="M362.665 308.381C368.326 305.738 374.729 309.996 376.332 315.928C377.927 321.872 376.532 327.186 372.772 329.861C367.864 333.353 357.851 333.7 355.539 336.973C353.943 331.029 352.106 313.011 362.665 308.381Z" fill="black"/>
<path d="M355.648 317.921C354.682 325.29 359.031 331.488 365.009 331.615C370.997 331.729 375.598 328.546 377.101 323.382C379.062 316.643 376.719 304.881 379.166 301.229C373.178 301.115 358.051 304.666 355.648 317.921Z" fill="black"/>
<path d="M638.557 207.267C654.707 198.49 673.155 204.198 677.897 216.122C682.618 228.077 678.755 240.298 668.052 248.113C654.083 258.311 625.41 264.498 618.871 272.813C614.15 260.858 608.429 222.991 638.557 207.267Z" fill="black"/>
<path d="M618.698 231.658C616.119 248.077 628.733 259.086 645.86 256.112C663.014 253.106 676.114 243.739 680.287 231.784C685.733 216.182 678.723 192.083 685.641 182.876C668.486 185.882 625.246 201.76 618.698 231.658Z" fill="black"/>
<path d="M768.776 457.909C768.514 442.373 776.416 430.076 783.899 430.539C791.392 431.027 796.731 438.25 797.947 449.238C799.533 463.579 795.101 487.907 797.689 495.846C790.196 495.358 768.928 486.667 768.776 457.909Z" fill="black"/>
<path d="M776.192 481.722C784.062 489.406 793.17 483.46 796.194 469.178C799.208 454.865 797.823 441.484 792.705 434.114C786.026 424.496 771.591 421.571 768.639 413.029C765.624 427.343 762.354 466.299 776.192 481.722Z" fill="black"/>
<path d="M878.212 325.488C883.972 311.056 896.011 302.767 902.734 306.084C909.457 309.429 911.592 318.153 908.468 328.758C904.392 342.598 890.906 363.326 890.227 371.649C883.504 368.304 867.243 352.072 878.212 325.488Z" fill="black"/>
<path d="M875.852 350.316C880.143 360.444 890.841 358.478 899.146 346.472C907.456 334.434 911.347 321.557 909.474 312.782C907.028 301.33 894.844 293.056 895.42 284.038C887.11 296.076 869.046 330.745 875.852 350.316Z" fill="black"/>
<path d="M811.195 346.329C799.866 335.659 785.295 333.627 780.467 339.854C775.651 346.107 777.312 355.192 784.614 363.552C794.143 374.463 815.231 387.342 819.324 394.735C824.14 388.482 832.397 365.814 811.195 346.329Z" fill="black"/>
<path d="M823.715 368.227C823.969 379.624 813.27 382.82 800.6 375.594C787.912 368.338 778.955 358.233 777.031 349.224C774.52 337.466 782.327 324.084 778.039 315.998C790.727 323.254 821.85 346.901 823.715 368.227Z" fill="black"/>
<path d="M796.684 462.39C804.122 452.428 816.019 449.469 821.336 454.306C826.648 459.166 827.056 466.966 822.558 474.637C816.688 484.649 801.451 497.306 799.469 503.888C794.157 499.029 782.668 480.626 796.684 462.39Z" fill="#C40000"/>
<path d="M796.684 462.39C804.122 452.428 816.019 449.469 821.336 454.306C826.648 459.166 827.056 466.966 822.558 474.637C816.688 484.649 801.451 497.306 799.469 503.888C794.157 499.029 782.668 480.626 796.684 462.39Z" fill="#C40000"/>
<path d="M796.684 462.39C804.122 452.428 816.019 449.469 821.336 454.306C826.648 459.166 827.056 466.966 822.558 474.637C816.688 484.649 801.451 497.306 799.469 503.888C794.157 499.029 782.668 480.626 796.684 462.39Z" fill="#C40000"/>
<path d="M790.479 481.917C792.536 491.546 802.205 493.327 811.462 486.152C820.728 478.952 826.275 469.668 826.104 461.91C825.881 451.784 816.622 441.17 818.631 433.988C809.365 441.188 787.803 463.781 790.479 481.917Z" fill="#C40000"/>
<path d="M790.479 481.917C792.536 491.546 802.205 493.327 811.462 486.152C820.728 478.952 826.275 469.668 826.104 461.91C825.881 451.784 816.622 441.17 818.631 433.988C809.365 441.188 787.803 463.781 790.479 481.917Z" fill="#C40000"/>
<path d="M790.479 481.917C792.536 491.546 802.205 493.327 811.462 486.152C820.728 478.952 826.275 469.668 826.104 461.91C825.881 451.784 816.622 441.17 818.631 433.988C809.365 441.188 787.803 463.781 790.479 481.917Z" fill="#C40000"/>
<path d="M819.662 478.426C829.547 476.271 838.429 480.353 839.11 485.751C839.776 491.161 835.862 495.886 829.005 498.145C820.057 501.094 803.946 501.013 799.215 503.866C798.549 498.456 801.322 482.177 819.662 478.426Z" fill="#C40000"/>
<path d="M819.662 478.426C829.547 476.271 838.429 480.353 839.11 485.751C839.776 491.161 835.862 495.886 829.005 498.145C820.057 501.094 803.946 501.013 799.215 503.866C798.549 498.456 801.322 482.177 819.662 478.426Z" fill="#C40000"/>
<path d="M819.662 478.426C829.547 476.271 838.429 480.353 839.11 485.751C839.776 491.161 835.862 495.886 829.005 498.145C820.057 501.094 803.946 501.013 799.215 503.866C798.549 498.456 801.322 482.177 819.662 478.426Z" fill="#C40000"/>
<path d="M805.428 486.733C801.55 493.323 806.534 499.07 816.047 499.418C825.579 499.757 833.941 497.073 837.978 492.487C843.248 486.502 843.231 475.83 848.299 472.641C838.767 472.303 813.469 474.904 805.428 486.733Z" fill="#C40000"/>
<path d="M805.428 486.733C801.55 493.323 806.534 499.07 816.047 499.418C825.579 499.757 833.941 497.073 837.978 492.487C843.248 486.502 843.231 475.83 848.299 472.641C838.767 472.303 813.469 474.904 805.428 486.733Z" fill="#C40000"/>
<path d="M805.428 486.733C801.55 493.323 806.534 499.07 816.047 499.418C825.579 499.757 833.941 497.073 837.978 492.487C843.248 486.502 843.231 475.83 848.299 472.641C838.767 472.303 813.469 474.904 805.428 486.733Z" fill="#C40000"/>
<path d="M609.16 160.11C625.965 162.467 637.55 174.096 635.47 183.026C633.359 191.963 624.444 197.149 612.341 196.722C596.545 196.165 571.255 186.644 562.148 188.395C564.26 179.458 578.126 155.346 609.16 160.11Z" fill="black"/>
<path d="M581.92 164.938C571.973 173.093 576.457 185.081 591.214 191.178C606.008 197.269 620.726 197.903 629.753 193.009C641.534 186.622 647.74 169.746 657.572 167.661C642.779 161.569 601.473 150.931 581.92 164.938Z" fill="black"/>
<path d="M484.771 206.481C475.329 219.796 477.123 235.996 485.946 240.818C494.796 245.625 505.147 243.077 513.002 234.379C523.253 223.027 532.504 198.797 540.135 193.707C531.285 188.9 501.867 181.603 484.771 206.481Z" fill="black"/>
<path d="M507.259 190.965C520.774 189.785 527.683 201.308 522.734 215.827C517.755 230.367 508.299 241.025 498.114 243.855C484.821 247.549 466.605 240.012 458.205 245.372C463.183 230.832 482.37 194.704 507.259 190.965Z" fill="black"/>
<path d="M531.93 241.716C522.22 248.24 509.624 243.987 505.388 235.115C501.161 226.221 502.517 217.131 508.761 211.322C516.911 203.74 535.049 199.148 538.525 192.964C542.752 201.859 550.107 230.029 531.93 241.716Z" fill="#C40000"/>
<path d="M542.572 223.577C542.688 211.364 533.397 203.171 522.494 205.378C511.576 207.607 503.915 214.571 502.332 223.463C500.265 235.067 507.146 252.996 503.508 259.842C514.426 257.612 541.152 245.816 542.572 223.577Z" fill="#C40000"/>
<path d="M602.668 209.768C613.922 206.258 619.178 194.87 615.479 187.039C611.756 179.203 604.176 175.296 595.753 176.686C584.761 178.499 569.319 189.137 562.463 188.325C566.186 196.161 581.988 216.62 602.668 209.768Z" fill="#C40000"/>
<path d="M582.26 207.709C573.21 201.227 573.372 190.108 582.248 183.416C591.15 176.725 601.364 174.932 608.95 178.568C618.85 183.313 627.444 197.924 634.895 198.975C625.992 205.666 599.543 218.638 582.26 207.709Z" fill="#C40000"/>
<path d="M581.016 221.384C590.42 223.704 598.955 217.79 599.681 210.577C600.393 203.35 596.723 197.285 590.21 194.66C581.71 191.234 566.331 192.23 561.855 188.699C561.144 195.925 563.563 217.409 581.016 221.384Z" fill="black"/>
<path d="M567.54 211.128C563.93 202.583 568.769 194.671 577.853 193.683C586.956 192.709 594.9 195.814 598.689 201.687C603.634 209.351 603.469 223.537 608.262 227.496C599.159 228.471 575.049 226.408 567.54 211.128Z" fill="black"/>
<path d="M552.026 215.79C547.239 207.997 537.204 206.741 531.59 211.498C525.976 216.275 524.183 223.057 526.776 229.192C530.159 237.198 541.386 246.468 541.941 251.936C547.556 247.159 561.145 230.012 552.026 215.79Z" fill="black"/>
<path d="M553.967 231.981C550.373 240.521 541.449 243.114 534.534 237.928C527.616 232.72 524.386 225.307 525.961 218.587C528.016 209.817 538.194 199.64 537.725 193.656C544.643 198.863 559.671 216.024 553.967 231.981Z" fill="black"/>
<path d="M346.87 275.761C351.052 267.328 358.879 263.024 362.917 265.458C366.954 267.91 367.916 273.354 365.531 279.619C362.42 287.795 353.174 299.584 352.404 304.61C348.367 302.159 338.944 291.272 346.87 275.761Z" fill="black"/>
<path d="M344.364 290.735C346.606 297.166 353.335 296.629 358.997 289.831C364.663 283.014 367.619 275.413 366.822 269.954C365.782 262.83 358.558 257.04 359.293 251.584C353.627 258.401 340.954 278.397 344.364 290.735Z" fill="black"/>
<path d="M219.75 356.638C235.5 339.39 256.319 335.66 261.913 341.319C267.489 347.014 261.563 366.705 251.259 379.613C237.811 396.459 212.057 412.052 205.999 422.557C200.423 416.861 190.327 388.334 219.75 356.638Z" fill="black"/>
<path d="M205.966 380.269C204.455 394.128 217.721 408.318 234.847 394.71C247.975 387.489 261.618 374.823 265.039 363.203C269.504 348.038 263.729 324.475 263.729 311.347C251.254 327.757 210.588 353.8 205.966 380.269Z" fill="black"/>
<path d="M47.111 307.133C42.5246 330.072 53.8765 349.038 63.0102 350.168C72.1638 351.262 85.9442 334.771 90.4273 318.797C96.2782 297.95 92.2613 267.95 97.5597 256.822C88.406 255.729 55.1974 264.593 47.111 307.133Z" fill="black"/>
<path d="M46.4705 321.845C47.7194 306.936 55.9008 264.97 71.4281 280.385C83.9948 288.765 95.9871 303 97.2479 315.607C98.8933 332.06 90.5393 353.085 87.824 367.137C68.8681 364.539 45.9465 350.406 46.4705 321.845Z" fill="black"/>
<path d="M145.289 405.313C123.905 410.14 108.056 399.855 108.134 391.269C108.249 382.664 124.891 369.311 139.939 364.734C159.578 358.761 186.334 361.889 197.079 356.65C196.965 365.255 184.897 396.756 145.289 405.313Z" fill="black"/>
<path d="M131.854 406.237C145.543 404.732 184.641 396.098 172.522 381.799C166.433 370.136 154.958 359.144 143.663 358.232C128.921 357.042 108.818 365.379 95.7295 368.247C95.7946 386.059 105.854 407.357 131.854 406.237Z" fill="black"/>
<circle cx="550.578" cy="190.568" r="15.0973" fill="#C40000"/>
<ellipse cx="474.334" cy="186.477" rx="15.5559" ry="15.3296" transform="rotate(-144.566 474.334 186.477)" fill="#C40000"/>
<path d="M486.486 196.231L473.036 186.66L482.446 173.435L494.267 181.846C495.167 182.487 495.377 183.735 494.737 184.635L486.486 196.231Z" fill="#C40000"/>
<ellipse cx="503.428" cy="97.6531" rx="15.5559" ry="15.3296" transform="rotate(-79.8362 503.428 97.6531)" fill="#C40000"/>
<path d="M499.795 112.805L502.708 96.5562L518.685 99.4204L516.124 113.701C515.93 114.788 514.89 115.512 513.803 115.317L499.795 112.805Z" fill="#C40000"/>
<ellipse cx="479.69" cy="121.149" rx="15.5559" ry="15.3296" transform="rotate(-106.093 479.69 121.149)" fill="#C40000"/>
<path d="M483.135 136.345L478.559 120.484L494.154 115.985L498.176 129.924C498.482 130.986 497.87 132.094 496.808 132.4L483.135 136.345Z" fill="#C40000"/>
<ellipse cx="469.288" cy="152.626" rx="15.5559" ry="15.3296" transform="rotate(-121.895 469.288 152.626)" fill="#C40000"/>
<path d="M476.742 166.31L468.02 152.294L481.8 143.718L489.466 156.036C490.05 156.973 489.763 158.207 488.825 158.79L476.742 166.31Z" fill="#C40000"/>
<ellipse cx="14.884" cy="14.3601" rx="14.884" ry="14.3601" transform="matrix(0.342697 -0.939446 -0.954365 -0.298642 618.486 153.947)" fill="#C40000"/>
<path d="M605.59 149.91L611.003 135.071L596.492 130.53L591.764 143.49C591.386 144.528 591.933 145.637 592.988 145.966L605.59 149.91Z" fill="#C40000"/>
<ellipse cx="14.3608" cy="14.8684" rx="14.3608" ry="14.8684" transform="matrix(-0.724116 -0.689678 -0.699187 0.714939 560.002 85.0042)" fill="#C40000"/>
<path d="M550.217 95.0085L539.181 84.4978L528.174 95.7531L537.761 104.885C538.561 105.646 539.836 105.624 540.608 104.834L550.217 95.0085Z" fill="#C40000"/>
<ellipse cx="14.4275" cy="14.8056" rx="14.4275" ry="14.8056" transform="matrix(-0.322923 -0.946425 -0.935906 0.35225 589.021 98.2336)" fill="#C40000"/>
<path d="M575.98 103.141L571.036 88.6508L556.364 94.1729L560.663 106.771C561.02 107.816 562.147 108.348 563.181 107.959L575.98 103.141Z" fill="#C40000"/>
<ellipse cx="14.5943" cy="14.646" rx="14.5943" ry="14.646" transform="matrix(-0.0447964 -0.998996 -0.995718 0.0924435 610.861 120.665)" fill="#C40000"/>
<path d="M597.137 121.939L596.443 106.466L581.002 107.9L581.606 121.374C581.656 122.478 582.587 123.29 583.687 123.187L597.137 121.939Z" fill="#C40000"/>
<path d="M633.284 401.274C633.284 414.688 609.939 438.033 596.525 438.033C583.112 438.033 572.238 427.16 572.238 413.746C572.238 400.333 581.143 398.649 594.556 398.649C607.969 398.649 612.279 407.181 633.284 401.274Z" fill="#C40000"/>
<path d="M633.941 390.115C584.711 382.895 596.831 410.464 586.68 410.464C576.529 410.464 568.301 402.235 568.301 392.084C568.301 381.934 576.529 373.705 586.68 373.705C596.831 373.705 618.188 371.079 633.941 390.115Z" fill="#C40000"/>
<path d="M618.249 396.078C606.434 404.611 599.701 409.206 593.901 409.206C588.101 409.206 583.398 405.679 583.398 401.329C583.398 396.979 588.101 393.452 593.901 393.452C599.701 393.452 576.896 388.857 618.249 396.078Z" fill="#C40000"/>
<path d="M233.078 212.084C227.158 221.647 200.208 227.988 190.645 222.067C181.082 216.147 178.128 203.594 184.049 194.031C189.969 184.467 197.062 187.197 206.625 193.117C216.188 199.038 215.495 207.024 233.078 212.084Z" fill="black"/>
<path d="M233.078 212.084C227.158 221.647 200.208 227.988 190.645 222.067C181.082 216.147 178.128 203.594 184.049 194.031C189.969 184.467 197.062 187.197 206.625 193.117C216.188 199.038 215.495 207.024 233.078 212.084Z" fill="black"/>
<path d="M233.078 212.084C227.158 221.647 200.208 227.988 190.645 222.067C181.082 216.147 178.128 203.594 184.049 194.031C189.969 184.467 197.062 187.197 206.625 193.117C216.188 199.038 215.495 207.024 233.078 212.084Z" fill="black"/>
<path d="M233.078 212.084C227.158 221.647 200.208 227.988 190.645 222.067C181.082 216.147 178.128 203.594 184.049 194.031C189.969 184.467 197.062 187.197 206.625 193.117C216.188 199.038 215.495 207.024 233.078 212.084Z" fill="black"/>
<path d="M238.472 204.417C206.558 177.539 203.031 202.545 195.794 198.065C188.556 193.584 186.322 184.085 190.802 176.848C195.282 169.611 204.781 167.376 212.019 171.856C219.256 176.337 235.642 183.891 238.472 204.417Z" fill="black"/>
<path d="M238.472 204.417C206.558 177.539 203.031 202.545 195.794 198.065C188.556 193.584 186.322 184.085 190.802 176.848C195.282 169.611 204.781 167.376 212.019 171.856C219.256 176.337 235.642 183.891 238.472 204.417Z" fill="black"/>
<path d="M238.472 204.417C206.558 177.539 203.031 202.545 195.794 198.065C188.556 193.584 186.322 184.085 190.802 176.848C195.282 169.611 204.781 167.376 212.019 171.856C219.256 176.337 235.642 183.891 238.472 204.417Z" fill="black"/>
<path d="M238.472 204.417C206.558 177.539 203.031 202.545 195.794 198.065C188.556 193.584 186.322 184.085 190.802 176.848C195.282 169.611 204.781 167.376 212.019 171.856C219.256 176.337 235.642 183.891 238.472 204.417Z" fill="black"/>
<path d="M224.651 201.742C212.46 202.611 205.632 202.915 201.496 200.355C197.361 197.795 195.565 193.205 197.485 190.103C199.405 187.002 204.314 186.563 208.45 189.123C212.585 191.683 198.354 178.341 224.651 201.742Z" fill="black"/>
<path d="M224.651 201.742C212.46 202.611 205.632 202.915 201.496 200.355C197.361 197.795 195.565 193.205 197.485 190.103C199.405 187.002 204.314 186.563 208.45 189.123C212.585 191.683 198.354 178.341 224.651 201.742Z" fill="black"/>
<path d="M224.651 201.742C212.46 202.611 205.632 202.915 201.496 200.355C197.361 197.795 195.565 193.205 197.485 190.103C199.405 187.002 204.314 186.563 208.45 189.123C212.585 191.683 198.354 178.341 224.651 201.742Z" fill="black"/>
<path d="M224.651 201.742C212.46 202.611 205.632 202.915 201.496 200.355C197.361 197.795 195.565 193.205 197.485 190.103C199.405 187.002 204.314 186.563 208.45 189.123C212.585 191.683 198.354 178.341 224.651 201.742Z" fill="black"/>
<path d="M254.343 214.028C262.276 203.932 293.653 200.168 303.749 208.1C313.844 216.033 315.598 230.647 307.665 240.743C299.732 250.839 292.034 246.84 281.939 238.908C271.843 230.975 273.646 222.004 254.343 214.028Z" fill="black"/>
<path d="M254.343 214.028C262.276 203.932 293.653 200.168 303.749 208.1C313.844 216.033 315.598 230.647 307.665 240.743C299.732 250.839 292.034 246.84 281.939 238.908C271.843 230.975 273.646 222.004 254.343 214.028Z" fill="black"/>
<path d="M254.343 214.028C262.276 203.932 293.653 200.168 303.749 208.1C313.844 216.033 315.598 230.647 307.665 240.743C299.732 250.839 292.034 246.84 281.939 238.908C271.843 230.975 273.646 222.004 254.343 214.028Z" fill="black"/>
<path d="M254.343 214.028C262.276 203.932 293.653 200.168 303.749 208.1C313.844 216.033 315.598 230.647 307.665 240.743C299.732 250.839 292.034 246.84 281.939 238.908C271.843 230.975 273.646 222.004 254.343 214.028Z" fill="black"/>
<path d="M247.25 222.039C280.033 256.588 287.216 228.671 294.855 234.674C302.495 240.677 303.822 251.737 297.819 259.377C291.816 267.017 280.756 268.343 273.116 262.34C265.477 256.337 247.85 245.683 247.25 222.039Z" fill="black"/>
<path d="M247.25 222.039C280.033 256.588 287.216 228.671 294.855 234.674C302.495 240.677 303.822 251.737 297.819 259.377C291.816 267.017 280.756 268.343 273.116 262.34C265.477 256.337 247.85 245.683 247.25 222.039Z" fill="black"/>
<path d="M247.25 222.039C280.033 256.588 287.216 228.671 294.855 234.674C302.495 240.677 303.822 251.737 297.819 259.377C291.816 267.017 280.756 268.343 273.116 262.34C265.477 256.337 247.85 245.683 247.25 222.039Z" fill="black"/>
<path d="M247.25 222.039C280.033 256.588 287.216 228.671 294.855 234.674C302.495 240.677 303.822 251.737 297.819 259.377C291.816 267.017 280.756 268.343 273.116 262.34C265.477 256.337 247.85 245.683 247.25 222.039Z" fill="black"/>
<path d="M262.588 226.832C276.528 227.397 284.313 227.92 288.678 231.35C293.044 234.781 294.497 240.216 291.925 243.49C289.352 246.764 283.727 246.638 279.362 243.207C274.996 239.777 289.443 256.722 262.588 226.832Z" fill="black"/>
<path d="M262.588 226.832C276.528 227.397 284.313 227.92 288.678 231.35C293.044 234.781 294.497 240.216 291.925 243.49C289.352 246.764 283.727 246.638 279.362 243.207C274.996 239.777 289.443 256.722 262.588 226.832Z" fill="black"/>
<path d="M262.588 226.832C276.528 227.397 284.313 227.92 288.678 231.35C293.044 234.781 294.497 240.216 291.925 243.49C289.352 246.764 283.727 246.638 279.362 243.207C274.996 239.777 289.443 256.722 262.588 226.832Z" fill="black"/>
<path d="M262.588 226.832C276.528 227.397 284.313 227.92 288.678 231.35C293.044 234.781 294.497 240.216 291.925 243.49C289.352 246.764 283.727 246.638 279.362 243.207C274.996 239.777 289.443 256.722 262.588 226.832Z" fill="black"/>
<path d="M244.502 197.795C232.994 188.916 228.419 153.432 237.298 141.924C246.178 130.416 262.705 128.285 274.213 137.165C285.721 146.044 281.271 154.799 272.392 166.307C263.513 177.815 253.339 175.864 244.502 197.795Z" fill="black"/>
<path d="M244.502 197.795C232.994 188.916 228.419 153.432 237.298 141.924C246.178 130.416 262.705 128.285 274.213 137.165C285.721 146.044 281.271 154.799 272.392 166.307C263.513 177.815 253.339 175.864 244.502 197.795Z" fill="black"/>
<path d="M244.502 197.795C232.994 188.916 228.419 153.432 237.298 141.924C246.178 130.416 262.705 128.285 274.213 137.165C285.721 146.044 281.271 154.799 272.392 166.307C263.513 177.815 253.339 175.864 244.502 197.795Z" fill="black"/>
<path d="M244.502 197.795C232.994 188.916 228.419 153.432 237.298 141.924C246.178 130.416 262.705 128.285 274.213 137.165C285.721 146.044 281.271 154.799 272.392 166.307C263.513 177.815 253.339 175.864 244.502 197.795Z" fill="black"/>
<path d="M253.642 205.745C292.426 168.288 260.75 160.436 267.47 151.727C274.189 143.018 286.697 141.406 295.405 148.125C304.114 154.845 305.727 167.352 299.007 176.06C292.288 184.769 280.403 204.83 253.642 205.745Z" fill="black"/>
<path d="M253.642 205.745C292.426 168.288 260.75 160.436 267.47 151.727C274.189 143.018 286.697 141.406 295.405 148.125C304.114 154.845 305.727 167.352 299.007 176.06C292.288 184.769 280.403 204.83 253.642 205.745Z" fill="black"/>
<path d="M253.642 205.745C292.426 168.288 260.75 160.436 267.47 151.727C274.189 143.018 286.697 141.406 295.405 148.125C304.114 154.845 305.727 167.352 299.007 176.06C292.288 184.769 280.403 204.83 253.642 205.745Z" fill="black"/>
<path d="M253.642 205.745C292.426 168.288 260.75 160.436 267.47 151.727C274.189 143.018 286.697 141.406 295.405 148.125C304.114 154.845 305.727 167.352 299.007 176.06C292.288 184.769 280.403 204.83 253.642 205.745Z" fill="black"/>
<path d="M258.913 188.333C259.414 172.547 259.928 163.729 263.768 158.752C267.608 153.776 273.746 152.076 277.478 154.956C281.211 157.836 281.124 164.204 277.284 169.181C273.444 174.157 292.483 157.633 258.913 188.333Z" fill="black"/>
<path d="M258.913 188.333C259.414 172.547 259.928 163.729 263.768 158.752C267.608 153.776 273.746 152.076 277.478 154.956C281.211 157.836 281.124 164.204 277.284 169.181C273.444 174.157 292.483 157.633 258.913 188.333Z" fill="black"/>
<path d="M258.913 188.333C259.414 172.547 259.928 163.729 263.768 158.752C267.608 153.776 273.746 152.076 277.478 154.956C281.211 157.836 281.124 164.204 277.284 169.181C273.444 174.157 292.483 157.633 258.913 188.333Z" fill="black"/>
<path d="M258.913 188.333C259.414 172.547 259.928 163.729 263.768 158.752C267.608 153.776 273.746 152.076 277.478 154.956C281.211 157.836 281.124 164.204 277.284 169.181C273.444 174.157 292.483 157.633 258.913 188.333Z" fill="black"/>
<path d="M632.683 376.655C614.98 374.299 588.268 339.389 590.623 321.686C592.978 303.984 609.239 291.542 626.941 293.897C644.644 296.252 645.304 308.3 642.949 326.003C640.593 343.706 628.575 347.895 632.683 376.655Z" fill="#C40000"/>
<path d="M647.295 379.48C665.469 315.774 626.955 326.929 628.738 313.532C630.52 300.136 642.825 290.72 656.222 292.503C669.618 294.285 679.034 306.59 677.252 319.987C675.469 333.383 675.185 362.031 647.295 379.48Z" fill="#C40000"/>
<path d="M642.182 357.723C632.994 340.631 628.112 330.938 629.131 323.283C630.149 315.627 635.629 310.041 641.371 310.805C647.112 311.568 650.941 318.394 649.922 326.049C648.904 333.704 658.972 304.412 642.182 357.723Z" fill="#C40000"/>
<path d="M660.031 385.165C660.85 369.501 689.539 343.663 705.204 344.482C720.868 345.301 732.903 358.663 732.084 374.328C731.265 389.992 720.763 391.416 705.099 390.597C689.434 389.778 684.922 379.55 660.031 385.165Z" fill="#C40000"/>
<path d="M658.581 398.157C715.633 409.596 703.162 376.66 715.017 377.279C726.871 377.899 735.978 388.012 735.358 399.866C734.738 411.72 724.626 420.827 712.772 420.207C700.918 419.588 675.816 421.35 658.581 398.157Z" fill="#C40000"/>
<path d="M677.269 392.152C691.588 382.908 699.732 377.953 706.506 378.307C713.279 378.661 718.555 383.067 718.29 388.147C718.024 393.228 712.317 397.059 705.544 396.705C698.77 396.351 725.122 403.109 677.269 392.152Z" fill="#C40000"/>
<path d="M651.007 642.831C653.196 630.327 633.284 621.826 614.248 629.703C600.467 629.703 607.394 632.585 603.089 646.77C598.785 660.955 606.366 669.087 622.12 690.748C654.939 664.492 647.725 653.99 651.007 642.831Z" fill="#C40000"/>
<path d="M199.587 433.938C198.462 443.598 196.592 449.848 186.649 449.848C176.707 449.848 173.142 439.052 173.145 427.687C173.147 416.323 174.834 402.117 200.714 373.706C192.204 392.457 199.587 414.618 199.587 433.938Z" fill="black"/>
<path d="M349.718 602.133C349.718 612.636 345.713 619.698 353.656 623.138C361.599 626.578 374 616.465 378.515 606.036C383.03 595.606 389.759 579.816 376.63 546.996C375.825 548.996 354.313 559.467 349.718 602.133Z" fill="black"/>
<path d="M350.05 616.835C349.658 621.986 352.856 622.717 353.657 623.138C355.737 624.233 361.427 624.771 364.031 619.824C366.635 614.876 370.526 607.382 365.311 590.792C364.841 591.743 353.897 596.076 350.05 616.835Z" fill="#EFEFEF"/>
<path d="M332.731 364.681C325.207 365.84 319.659 363.441 318.165 370.123C316.671 376.805 325.432 385.529 333.455 387.96C341.478 390.391 353.612 393.988 375.519 379.95C373.987 379.532 363.857 363.619 332.731 364.681Z" fill="black"/>
<path d="M322.238 366.566C318.5 366.823 318.367 369.441 318.163 370.123C317.633 371.894 317.943 376.468 321.805 377.988C325.668 379.508 331.512 381.768 342.759 375.8C342.02 375.532 337.579 367.328 322.238 366.566Z" fill="#EFEFEF"/>
<path d="M695.642 250.301C688.173 250.657 681.183 249.681 678.497 244.774C675.812 239.867 682.632 231.682 689.913 228.473C697.195 225.265 708.223 220.475 731.961 227.668C730.562 228.245 725.849 245.952 695.642 250.301Z" fill="black"/>
<path d="M683.089 246.841C679.436 247.264 678.821 245.266 678.497 244.774C677.655 243.496 677.102 239.915 680.542 238.101C683.982 236.286 689.196 233.572 701.152 236.309C700.489 236.638 697.737 243.706 683.089 246.841Z" fill="#EFEFEF"/>
<path d="M723.027 268.328C717.804 264.734 713.588 260.487 714.294 255.797C715.001 251.107 723.805 249.084 730.366 250.657C736.927 252.23 746.828 254.659 759.154 271.697C757.915 271.369 745.645 280.899 723.027 268.328Z" fill="black"/>
<path d="M716.329 259.549C713.647 257.959 714.257 256.294 714.291 255.796C714.38 254.502 715.844 251.801 719.097 252.343C722.35 252.884 727.261 253.729 733.925 261.713C733.309 261.595 727.823 264.952 716.329 259.549Z" fill="#EFEFEF"/>
<path d="M740.799 292.422C737.55 289.058 735.125 285.37 736.324 282.083C737.522 278.797 744.183 278.625 748.695 280.725C753.207 282.824 760.008 286.031 766.42 300.155C765.572 299.736 755.305 304.826 740.799 292.422Z" fill="black"/>
<path d="M737.244 285.094C735.539 283.551 736.224 282.438 736.322 282.082C736.576 281.16 738.03 279.422 740.302 280.291C742.574 281.159 746.001 282.49 749.647 289.239C749.219 289.063 744.761 290.685 737.244 285.094Z" fill="#EFEFEF"/>
<path d="M745.376 310.949C744.056 307.922 743.343 304.891 744.872 303.045C746.402 301.198 750.736 302.779 753.161 305.3C755.586 307.821 759.232 311.649 760.112 322.524C759.662 322.034 751.87 322.756 745.376 310.949Z" fill="black"/>
<path d="M744.771 305.249C744.027 303.806 744.725 303.252 744.87 303.044C745.246 302.504 746.584 301.737 747.848 302.883C749.113 304.029 751.016 305.771 751.812 311.115C751.576 310.891 748.329 310.82 744.771 305.249Z" fill="#EFEFEF"/>
<path d="M387.792 566.687C387.792 575.901 387.27 588.552 394.239 591.57C401.207 594.588 412.087 585.715 416.048 576.565C420.009 567.416 425.912 553.563 414.394 524.769C413.688 526.524 391.823 529.256 387.792 566.687Z" fill="#C40000"/>
<path d="M391.073 586.04C390.729 590.559 393.534 591.2 394.237 591.57C396.061 592.531 401.054 593.003 403.338 588.662C405.623 584.322 409.036 577.747 404.461 563.192C404.049 564.027 394.448 567.828 391.073 586.04Z" fill="#EFEFEF"/>
<path d="M382.352 629.099C374.618 636.205 380.571 631.672 362.848 642.174C372.037 651.364 375.993 656.495 398.962 652.945C421.932 649.395 434.222 631.382 449.506 599.509C447.488 600.269 423.901 586.38 382.352 629.099Z" fill="black"/>
<path d="M374.007 640.862C368.756 642.175 362.616 641.3 362.847 642.175C363.448 644.447 372.038 647.426 378.602 647.426C385.166 647.426 392.566 647.972 401.254 632.908C390.418 631.016 379.915 638.893 374.007 640.862Z" fill="#EFEFEF"/>
<path d="M859.992 449.126C852.259 456.232 858.211 451.698 840.488 462.201C849.678 471.39 853.634 476.521 876.603 472.971C899.572 469.421 911.862 451.408 927.147 419.535C925.129 420.295 901.541 406.406 859.992 449.126Z" fill="#C40000"/>
<path d="M851.648 460.888C846.397 462.201 840.257 461.326 840.488 462.201C841.089 464.473 849.678 467.452 856.243 467.452C862.807 467.452 870.206 467.998 878.894 452.934C868.058 451.042 857.556 458.919 851.648 460.888Z" fill="#EFEFEF"/>
<path d="M142.634 156.469C129.883 154.314 139.051 155.116 113.822 155.464C116.8 141.903 117.27 134.992 143.022 125.342C168.773 115.692 193.676 125.261 231.186 145.82C228.614 146.258 214.275 172.199 142.634 156.469Z" fill="black"/>
<path d="M126.052 150.401C119.819 152.149 114.194 156.396 113.825 155.466C112.865 153.051 119.522 145.506 126.181 141.82C132.84 138.135 139.969 133.481 159.182 142.377C149.496 150.19 133.404 148.885 126.052 150.401Z" fill="#EFEFEF"/>
<path d="M644.063 567.854C628.842 571.993 639.426 568.272 611.532 581.065C608.306 566.058 605.498 558.926 629.488 536.589C653.479 514.252 685.791 511.52 737.424 513.541C734.774 515.246 731.332 548.217 644.063 567.854Z" fill="black"/>
<path d="M622.693 569.977C616.602 574.797 612.393 581.811 611.534 581.065C609.303 579.128 613.07 568.311 618.7 561.347C624.329 554.383 630.015 546.22 655.674 545.622C648.667 558.201 630.139 564.836 622.693 569.977Z" fill="#EFEFEF"/>
<path d="M279.041 372.085C277.432 371.993 289.467 347.756 269.476 370.491C271.07 354.018 279.794 347.106 287.342 343.655C294.891 340.204 298.032 339.242 323.92 346.912C314.331 361.294 316.237 374.21 279.041 372.085Z" fill="#C40000"/>
<path d="M126.455 424.761C132.468 430.755 135.742 435.416 130.367 442.231C124.992 449.046 115.664 445.653 107.875 439.508C100.086 433.363 89.2533 420.31 89.2533 389.459C93.8481 409.807 113.211 414.317 126.455 424.761Z" fill="black"/>
<path d="M429.896 219.891C427.35 211.792 426.614 206.144 434.537 202.601C442.461 199.058 449.149 206.392 453.197 215.45C457.245 224.508 460.784 241.097 446.468 268.426C451.84 248.268 436.781 235.288 429.896 219.891Z" fill="black"/>
<path d="M427.843 263.587C434.243 258.024 437.867 253.684 433.359 247.24C428.851 240.795 419.511 243.886 411.383 249.574C403.254 255.262 391.499 267.4 388.425 296.337C394.887 277.295 414.022 273.254 427.843 263.587Z" fill="black"/>
<path d="M402.318 254.8C404.932 247.927 405.925 243.125 399.84 240.045C393.755 236.964 387.881 243.152 383.996 250.829C380.111 258.506 376.096 272.598 385.596 295.977C382.738 278.775 395.711 267.85 402.318 254.8Z" fill="#C40000"/>
<path d="M380.977 252.678C381.094 248.084 380.684 245.047 376.458 244.491C372.231 243.936 370.05 248.802 369.351 254.133C368.651 259.465 369.203 268.606 379.65 280.423C374.4 270.872 379.785 261.742 380.977 252.678Z" fill="black"/>
<path d="M272.561 314.56C270.512 310.441 269.634 307.484 273.536 304.947C277.439 302.41 281.622 305.784 284.552 310.293C287.482 314.802 290.791 323.375 285.543 339.137C286.659 327.933 277.544 322.225 272.561 314.56Z" fill="black"/>
<path d="M495.503 440.729C491.056 439.547 488.797 435.704 489.47 431.098C490.143 426.493 495.257 422.935 500.577 423.714C505.898 424.493 510.772 430.239 523.147 440.358C511.93 440.448 504.548 442.051 495.503 440.729Z" fill="#C40000"/>
<path d="M495.503 440.729C491.056 439.547 488.797 435.704 489.47 431.098C490.143 426.493 495.257 422.935 500.577 423.714C505.898 424.493 510.772 430.239 523.147 440.358C511.93 440.448 504.548 442.051 495.503 440.729Z" fill="#C40000"/>
<path d="M551.363 441.007C555.728 442.46 557.747 446.434 556.793 450.99C555.838 455.546 550.515 458.782 545.252 457.678C539.989 456.574 535.478 450.539 523.748 439.68C534.949 440.278 542.416 439.132 551.363 441.007Z" fill="#C40000"/>
<path d="M307.573 308.029C308.854 303.61 310.21 300.84 314.799 301.615C319.389 302.39 320.184 307.705 319.287 313.007C318.391 318.309 315.021 326.859 300.487 334.906C308.894 327.416 306.051 317.043 307.573 308.029Z" fill="black"/>
<path d="M427.518 456.219C423.712 450.544 421.87 446.339 427.274 441.704C432.678 437.069 439.553 441.163 444.75 447.224C449.946 453.284 456.432 465.307 451.358 489.912C451.043 472.999 436.354 466.52 427.518 456.219Z" fill="black"/>
<path d="M478.093 457.822C473.163 460.196 469.662 461.229 466.954 456.863C464.246 452.496 468.442 447.726 473.882 444.353C479.322 440.981 489.522 437.122 507.554 442.813C494.571 441.718 487.34 452.088 478.093 457.822Z" fill="black"/>
<path d="M551.977 476.96C554.826 481.639 557.269 484.394 562.481 482.014C567.693 479.634 567.037 473.249 564.377 467.428C561.718 461.606 555.146 452.842 535.479 448.273C547.709 454.184 547.457 467.062 551.977 476.96Z" fill="black"/>
<path d="M798.805 296.996C797.034 292.552 796.587 289.249 802.662 285.538C808.738 281.826 813.664 284.992 816.555 289.727C819.446 294.463 821.804 303.893 810.417 323.369C814.884 310.018 803.723 305.044 798.805 296.996Z" fill="black"/>
<path d="M859.587 278.915C859.062 274.158 857.898 271.03 850.715 270.59C843.532 270.15 840.634 275.253 840.297 280.791C839.96 286.329 842.323 295.767 861.717 307.658C851.403 297.946 859.011 288.329 859.587 278.915Z" fill="black"/>
<path d="M878.556 290.238C878.987 286.789 878.664 284.369 873.429 282.727C868.193 281.084 865.172 284.141 863.969 287.98C862.766 291.819 862.888 298.907 875.181 310.883C869.227 302.127 876.508 296.763 878.556 290.238Z" fill="#C40000"/>
<path d="M787.094 314.148C784.687 311.655 783.47 309.585 786.436 305.6C789.402 301.616 793.531 302.469 796.757 304.872C799.983 307.275 804.169 312.917 802.106 328.663C801.321 318.71 792.58 318.232 787.094 314.148Z" fill="#C40000"/>
<path d="M412.339 394.811C406.286 401.219 401.302 404.619 392.021 398.118C382.739 391.618 385.003 381.303 390.891 372.9C396.779 364.497 410.408 353.095 447.646 355.053C423.987 358.949 422.345 380.523 412.339 394.811Z" fill="black"/>
<path d="M539.784 347.26C548.396 349.189 554.435 349.221 558.491 338.641C562.548 328.061 554.891 320.773 545.298 317.098C535.705 313.422 518.011 311.589 488.219 334.036C510.027 324.036 523.478 341.008 539.784 347.26Z" fill="black"/>
<path d="M513.804 388.151C519.775 394.646 522.829 399.841 515.786 408.48C508.743 417.119 498.654 414.05 490.693 407.557C482.733 401.063 472.293 386.685 476.618 350.075C478.969 373.751 500.268 377.116 513.804 388.151Z" fill="black"/>
<path d="M750.232 513.52C745.005 516.904 742.263 524.819 745.53 531.899C748.797 538.978 760.926 538.082 767.509 535.042C774.093 532.001 783.77 524.032 787.331 498.422C776.381 510.238 763.253 501.048 750.232 513.52Z" fill="black"/>
<path d="M443.45 402.793C441.641 410.728 441.64 416.326 451.819 420.356C461.998 424.387 468.957 417.473 472.439 408.674C475.92 399.874 477.593 383.517 455.893 355.325C465.602 375.798 449.373 387.835 443.45 402.793Z" fill="black"/>
<path d="M440.305 401.065C437.646 407.959 435 412.193 426.949 410.216C418.898 408.24 417.965 399.576 420.022 391.202C422.08 382.828 428.802 369.633 455.232 359.024C439.691 369.714 443.8 386.829 440.305 401.065Z" fill="#C40000"/>
<path d="M516.554 378.805C522.507 383.776 527.271 386.192 535.206 379.227C543.14 372.262 540.334 363.328 534.385 356.555C528.435 349.781 515.253 341.293 481.656 347.686C503.378 348.217 506.443 367.287 516.554 378.805Z" fill="#C40000"/>
<path d="M540.931 309.631C549.154 306.807 554.244 303.834 552.244 293.855C550.243 283.877 540.082 282.193 530.142 284.188C520.202 286.184 504.397 293.587 490.84 325.274C504.053 306.921 524.032 313.019 540.931 309.631Z" fill="#C40000"/>
<path d="M584.053 331.039C582.084 321.193 582.74 317.255 591.229 307.488C581.113 308.601 578.54 318.574 579.651 328.651C580.762 338.728 586.742 355.124 617.11 371.423C599.993 356.643 584.053 342.443 584.053 331.039Z" fill="#C40000"/>
<path d="M655.366 274.447C660.502 277.264 661.939 279.128 662.563 287.252C666.408 281.656 663.162 276.471 658.292 273.127C653.423 269.783 643.713 266.472 623.605 275.65C637.378 272.648 650.394 270.021 655.366 274.447Z" fill="#C40000"/>
<path d="M520.905 280.08C525.607 274.646 528.009 270.407 522.435 264.108C516.86 257.81 508.9 260.827 502.627 266.382C496.353 271.937 488.136 283.793 491.612 312.066C493.428 293.463 510.238 289.521 520.905 280.08Z" fill="black"/>
<path d="M465.77 269.774C464.048 265.782 462.262 263.37 456.413 264.86C450.564 266.35 449.651 271.535 450.9 276.43C452.149 281.325 456.621 288.902 475.347 294.169C464.459 288.426 467.891 278.096 465.77 269.774Z" fill="black"/>
<path d="M461.335 282.093C458.946 280.173 456.982 279.294 453.343 282.453C449.705 285.613 450.61 289.29 452.937 291.969C455.263 294.647 460.637 297.837 475.271 294.179C465.966 294.582 465.289 286.647 461.335 282.093Z" fill="black"/>
<path d="M423.893 278.715C423.138 274.462 423.285 271.508 428.812 269.752C434.339 267.997 437.863 271.899 439.485 276.67C441.107 281.44 441.567 290.133 429.268 304.219C434.978 293.769 426.653 286.825 423.893 278.715Z" fill="black"/>
<path d="M434.102 286.818C435 283.969 436.114 282.216 440.752 283.007C445.39 283.797 446.636 287.364 446.196 290.821C445.755 294.278 443.129 299.736 429.338 304.187C437.073 299.735 433.355 292.695 434.102 286.818Z" fill="black"/>
<path d="M489.693 268.681C489.947 262.575 489.302 258.481 482.257 257.239C475.211 255.998 471.51 262.22 470.275 269.239C469.04 276.258 469.846 288.501 487.127 305.481C478.488 292.136 487.591 280.613 489.693 268.681Z" fill="#C40000"/>
<path d="M489.693 268.681C489.947 262.575 489.302 258.481 482.257 257.239C475.211 255.998 471.51 262.22 470.275 269.239C469.04 276.258 469.846 288.501 487.127 305.481C478.488 292.136 487.591 280.613 489.693 268.681Z" fill="#C40000"/>
<path d="M489.693 268.681C489.947 262.575 489.302 258.481 482.257 257.239C475.211 255.998 471.51 262.22 470.275 269.239C469.04 276.258 469.846 288.501 487.127 305.481C478.488 292.136 487.591 280.613 489.693 268.681Z" fill="#C40000"/>
<path d="M489.693 268.681C489.947 262.575 489.302 258.481 482.257 257.239C475.211 255.998 471.51 262.22 470.275 269.239C469.04 276.258 469.846 288.501 487.127 305.481C478.488 292.136 487.591 280.613 489.693 268.681Z" fill="#C40000"/>
<path d="M489.693 268.681C489.947 262.575 489.302 258.481 482.257 257.239C475.211 255.998 471.51 262.22 470.275 269.239C469.04 276.258 469.846 288.501 487.127 305.481C478.488 292.136 487.591 280.613 489.693 268.681Z" fill="#C40000"/>
<path d="M404.227 293.768C401.216 288.445 399.942 284.487 405.807 280.012C411.672 275.536 417.882 279.314 422.205 284.98C426.527 290.647 431.363 301.946 423.318 325.347C425.129 309.32 411.577 303.399 404.227 293.768Z" fill="#C40000"/>
<path d="M404.227 293.768C401.216 288.445 399.942 284.487 405.807 280.012C411.672 275.536 417.882 279.314 422.205 284.98C426.527 290.647 431.363 301.946 423.318 325.347C425.129 309.32 411.577 303.399 404.227 293.768Z" fill="#C40000"/>
<path d="M404.227 293.768C401.216 288.445 399.942 284.487 405.807 280.012C411.672 275.536 417.882 279.314 422.205 284.98C426.527 290.647 431.363 301.946 423.318 325.347C425.129 309.32 411.577 303.399 404.227 293.768Z" fill="#C40000"/>
<path d="M404.227 293.768C401.216 288.445 399.942 284.487 405.807 280.012C411.672 275.536 417.882 279.314 422.205 284.98C426.527 290.647 431.363 301.946 423.318 325.347C425.129 309.32 411.577 303.399 404.227 293.768Z" fill="#C40000"/>
<path d="M404.227 293.768C401.216 288.445 399.942 284.487 405.807 280.012C411.672 275.536 417.882 279.314 422.205 284.98C426.527 290.647 431.363 301.946 423.318 325.347C425.129 309.32 411.577 303.399 404.227 293.768Z" fill="#C40000"/>
<path d="M389.247 318.23C383.202 314.336 379.713 310.91 383.378 303.023C387.044 295.137 395.577 295.665 403.175 299.198C410.772 302.732 421.983 311.855 426.385 340.666C419.516 322.964 402.164 324.234 389.247 318.23Z" fill="black"/>
<path d="M389.591 364.828C382.73 367.084 377.726 367.468 372.809 358.114C367.892 348.76 373.175 341.702 380.594 337.806C388.012 333.909 402.42 331.206 430.425 349.806C410.868 342.022 402.201 358.201 389.591 364.828Z" fill="#C40000"/>
<path d="M554.459 576.433C560.195 580.147 563.545 583.285 560.407 589.676C557.269 596.066 549.337 595.015 542.171 591.495C535.006 587.975 524.304 579.484 519.264 554.872C526.223 570.29 542.277 570.452 554.459 576.433Z" fill="black"/>
<path d="M640.285 289.683C643.975 290.902 646.56 291.268 648.282 287.589C650.003 283.91 646.714 280.763 642.601 278.839C638.489 276.916 630.911 275.2 618.188 281.764C627.511 279.34 633.294 286.412 640.285 289.683Z" fill="#C40000"/>
<path d="M640.285 289.683C643.975 290.902 646.56 291.268 648.282 287.589C650.003 283.91 646.714 280.763 642.601 278.839C638.489 276.916 630.911 275.2 618.188 281.764C627.511 279.34 633.294 286.412 640.285 289.683Z" fill="#C40000"/>
<path d="M640.285 289.683C643.975 290.902 646.56 291.268 648.282 287.589C650.003 283.91 646.714 280.763 642.601 278.839C638.489 276.916 630.911 275.2 618.188 281.764C627.511 279.34 633.294 286.412 640.285 289.683Z" fill="#C40000"/>
<path d="M598.732 274.838C601.389 269.406 602.706 265.654 599.203 263.598C595.7 261.541 591.032 266.614 587.441 272.732C583.849 278.849 579.272 289.917 582.132 307.436C582.7 294.331 592.626 285.237 598.732 274.838Z" fill="#C40000"/>
<path d="M598.732 274.838C601.389 269.406 602.706 265.654 599.203 263.598C595.7 261.541 591.032 266.614 587.441 272.732C583.849 278.849 579.272 289.917 582.132 307.436C582.7 294.331 592.626 285.237 598.732 274.838Z" fill="#C40000"/>
<path d="M598.732 274.838C601.389 269.406 602.706 265.654 599.203 263.598C595.7 261.541 591.032 266.614 587.441 272.732C583.849 278.849 579.272 289.917 582.132 307.436C582.7 294.331 592.626 285.237 598.732 274.838Z" fill="black"/>
<path d="M592.349 257.163C594.146 253.491 595.036 250.955 592.668 249.564C590.3 248.174 587.144 251.604 584.716 255.739C582.288 259.875 579.193 267.357 581.127 279.201C581.511 270.341 588.221 264.193 592.349 257.163Z" fill="#C40000"/>
<path d="M592.349 257.163C594.146 253.491 595.036 250.955 592.668 249.564C590.3 248.174 587.144 251.604 584.716 255.739C582.288 259.875 579.193 267.357 581.127 279.201C581.511 270.341 588.221 264.193 592.349 257.163Z" fill="#C40000"/>
<path d="M592.349 257.163C594.146 253.491 595.036 250.955 592.668 249.564C590.3 248.174 587.144 251.604 584.716 255.739C582.288 259.875 579.193 267.357 581.127 279.201C581.511 270.341 588.221 264.193 592.349 257.163Z" fill="black"/>
<path d="M588.017 242.637C589.314 239.814 589.881 237.827 587.513 236.437C585.145 235.046 582.547 237.527 580.706 240.663C578.864 243.8 576.751 249.611 579.814 259.532C579.24 252.304 584.886 247.968 588.017 242.637Z" fill="#C40000"/>
<path d="M588.017 242.637C589.314 239.814 589.881 237.827 587.513 236.437C585.145 235.046 582.547 237.527 580.706 240.663C578.864 243.8 576.751 249.611 579.814 259.532C579.24 252.304 584.886 247.968 588.017 242.637Z" fill="#C40000"/>
<path d="M588.017 242.637C589.314 239.814 589.881 237.827 587.513 236.437C585.145 235.046 582.547 237.527 580.706 240.663C578.864 243.8 576.751 249.611 579.814 259.532C579.24 252.304 584.886 247.968 588.017 242.637Z" fill="black"/>
<path d="M582.161 231.951C582.925 230.036 583.147 228.637 580.779 227.247C578.411 225.856 576.409 227.322 575.195 229.39C573.982 231.458 572.918 235.482 577.189 243.345C575.59 237.863 580.097 235.466 582.161 231.951Z" fill="#C40000"/>
<path d="M582.161 231.951C582.925 230.036 583.147 228.637 580.779 227.247C578.411 225.856 576.409 227.322 575.195 229.39C573.982 231.458 572.918 235.482 577.189 243.345C575.59 237.863 580.097 235.466 582.161 231.951Z" fill="#C40000"/>
<path d="M582.161 231.951C582.925 230.036 583.147 228.637 580.779 227.247C578.411 225.856 576.409 227.322 575.195 229.39C573.982 231.458 572.918 235.482 577.189 243.345C575.59 237.863 580.097 235.466 582.161 231.951Z" fill="black"/>
<path d="M550.241 268.154C546.96 262.102 545.249 257.924 548.831 255.645C552.413 253.366 557.818 259.025 562.154 265.842C566.49 272.66 572.28 284.989 570.634 304.476C568.968 289.891 557.614 279.743 550.241 268.154Z" fill="#C40000"/>
<path d="M550.241 268.154C546.96 262.102 545.249 257.924 548.831 255.645C552.413 253.366 557.818 259.025 562.154 265.842C566.49 272.66 572.28 284.989 570.634 304.476C568.968 289.891 557.614 279.743 550.241 268.154Z" fill="#C40000"/>
<path d="M550.241 268.154C546.96 262.102 545.249 257.924 548.831 255.645C552.413 253.366 557.818 259.025 562.154 265.842C566.49 272.66 572.28 284.989 570.634 304.476C568.968 289.891 557.614 279.743 550.241 268.154Z" fill="black"/>
<path d="M560.813 260.179C559.104 256.972 558.238 254.744 560.324 253.417C562.41 252.09 565.332 255.031 567.62 258.628C569.908 262.225 572.883 268.781 571.467 279.411C570.885 271.526 564.703 266.294 560.813 260.179Z" fill="#C40000"/>
<path d="M560.813 260.179C559.104 256.972 558.238 254.744 560.324 253.417C562.41 252.09 565.332 255.031 567.62 258.628C569.908 262.225 572.883 268.781 571.467 279.411C570.885 271.526 564.703 266.294 560.813 260.179Z" fill="#C40000"/>
<path d="M560.813 260.179C559.104 256.972 558.238 254.744 560.324 253.417C562.41 252.09 565.332 255.031 567.62 258.628C569.908 262.225 572.883 268.781 571.467 279.411C570.885 271.526 564.703 266.294 560.813 260.179Z" fill="black"/>
<path d="M560.813 244.426C559.104 241.218 558.238 238.99 560.324 237.663C562.41 236.336 565.332 239.277 567.62 242.874C569.908 246.472 572.883 253.027 571.467 263.657C570.885 255.773 564.703 250.54 560.813 244.426Z" fill="#C40000"/>
<path d="M560.813 244.426C559.104 241.218 558.238 238.99 560.324 237.663C562.41 236.336 565.332 239.277 567.62 242.874C569.908 246.472 572.883 253.027 571.467 263.657C570.885 255.773 564.703 250.54 560.813 244.426Z" fill="#C40000"/>
<path d="M560.813 244.426C559.104 241.218 558.238 238.99 560.324 237.663C562.41 236.336 565.332 239.277 567.62 242.874C569.908 246.472 572.883 253.027 571.467 263.657C570.885 255.773 564.703 250.54 560.813 244.426Z" fill="black"/>
<path d="M561.774 230.659C560.739 228.702 560.222 227.339 561.542 226.499C562.863 225.659 564.66 227.439 566.053 229.629C567.446 231.819 569.237 235.824 568.234 242.386C567.956 237.537 564.143 234.382 561.774 230.659Z" fill="#C40000"/>
<path d="M561.774 230.659C560.739 228.702 560.222 227.339 561.542 226.499C562.863 225.659 564.66 227.439 566.053 229.629C567.446 231.819 569.237 235.824 568.234 242.386C567.956 237.537 564.143 234.382 561.774 230.659Z" fill="#C40000"/>
<path d="M561.774 230.659C560.739 228.702 560.222 227.339 561.542 226.499C562.863 225.659 564.66 227.439 566.053 229.629C567.446 231.819 569.237 235.824 568.234 242.386C567.956 237.537 564.143 234.382 561.774 230.659Z" fill="black"/>
<path d="M675.661 288.372C680.505 292.082 684.221 293.902 689.293 288.847C694.364 283.791 691.411 277.192 686.387 272.154C681.363 267.117 670.895 260.755 647.069 265.163C662.948 265.745 667.122 279.806 675.661 288.372Z" fill="#C40000"/>
<path d="M675.661 288.372C680.505 292.082 684.221 293.902 689.293 288.847C694.364 283.791 691.411 277.192 686.387 272.154C681.363 267.117 670.895 260.755 647.069 265.163C662.948 265.745 667.122 279.806 675.661 288.372Z" fill="#C40000"/>
<path d="M675.661 288.372C680.505 292.082 684.221 293.902 689.293 288.847C694.364 283.791 691.411 277.192 686.387 272.154C681.363 267.117 670.895 260.755 647.069 265.163C662.948 265.745 667.122 279.806 675.661 288.372Z" fill="#C40000"/>
<path d="M703.473 299.756C707.815 306.35 711.619 310.143 720.264 306.024C728.909 301.905 728.248 292.536 724.288 284.231C720.328 275.926 710.183 263.717 678.433 259.22C697.98 266.557 696.744 285.635 703.473 299.756Z" fill="#C40000"/>
<path d="M703.473 299.756C707.815 306.35 711.619 310.143 720.264 306.024C728.909 301.905 728.248 292.536 724.288 284.231C720.328 275.926 710.183 263.717 678.433 259.22C697.98 266.557 696.744 285.635 703.473 299.756Z" fill="#C40000"/>
<path d="M703.473 299.756C707.815 306.35 711.619 310.143 720.264 306.024C728.909 301.905 728.248 292.536 724.288 284.231C720.328 275.926 710.183 263.717 678.433 259.22C697.98 266.557 696.744 285.635 703.473 299.756Z" fill="#C40000"/>
<path d="M590.531 547.151C597.122 545.383 601.273 543.513 600.281 537.197C599.289 530.88 591.441 529.792 583.555 531.032C575.668 532.272 562.886 536.92 550.469 556.936C561.852 545.354 577.124 549.257 590.531 547.151Z" fill="black"/>
<path d="M614.046 528.464C621.208 528.9 626.042 528.195 627.776 519.61C629.51 511.026 622.347 506.375 614.152 504.721C605.957 503.068 591.547 503.802 570.926 524.573C586.938 514.289 600.115 525.649 614.046 528.464Z" fill="black"/>
<path d="M672.749 510.575C684.641 511.44 692.638 510.499 695.276 497.441C697.914 484.384 685.903 477.085 672.264 474.332C658.625 471.58 634.744 472.3 601.12 503.437C627.392 488.182 649.564 505.891 672.749 510.575Z" fill="black"/>
<path d="M700.874 459.305C713.434 455.501 721.289 451.533 718.918 438.425C716.547 425.316 701.358 423.21 686.266 425.943C671.174 428.676 646.904 438.59 624.459 480.432C645.529 456.138 675.216 463.947 700.874 459.305Z" fill="black"/>
<path d="M790.908 358.762C779.218 352.796 770.806 350.21 763.428 361.301C756.05 372.393 765.537 384.44 778.309 392.933C791.081 401.425 815.444 411.105 860.627 396.508C828.6 399.41 812.618 373.203 790.908 358.762Z" fill="#C40000"/>
<path d="M907.047 325.454C914.515 314.645 920.819 308.415 933.617 315.078C946.415 321.741 944.275 337.055 937.189 350.658C930.104 364.261 913.039 384.291 863.682 391.892C894.617 379.747 895.006 348.582 907.047 325.454Z" fill="#C40000"/>
<path d="M815.756 405.638C807.283 409.65 802.188 413.466 805.559 424.092C808.93 434.717 820.034 435.388 830.45 432.081C840.866 428.774 856.909 418.913 867.56 382.894C855.642 404.37 833.464 400.021 815.756 405.638Z" fill="black"/>
<path d="M903.436 377.166C912.032 375.763 917.981 376.075 921.352 386.701C924.723 397.327 916.751 404.049 907.086 407.113C897.421 410.176 879.886 410.968 851.868 387.216C872.757 398.284 887.007 382.378 903.436 377.166Z" fill="black"/>
<path d="M462.813 577.892C468.967 574.949 472.711 572.384 470.646 566.629C468.581 560.873 460.703 561.371 453.189 564.068C445.675 566.765 433.953 573.621 425.246 594.875C434.398 581.762 450.039 582.475 462.813 577.892Z" fill="black"/>
<path d="M629.877 430.841C629.043 427.678 628.89 425.476 632.25 424.12C635.609 422.765 638.171 425.643 639.599 429.184C641.026 432.726 642.044 439.2 635.417 449.801C638.167 441.965 632.305 436.861 629.877 430.841Z" fill="black"/>
<path d="M463.506 529.162C465.833 524.919 467.914 522.4 472.928 524.375C477.943 526.35 477.774 532.05 475.703 537.304C473.633 542.559 468.126 550.539 450.146 555.146C461.114 549.549 459.987 538.095 463.506 529.162Z" fill="#C40000"/>
<path d="M433.667 527.58C433.24 522.76 433.569 519.509 438.834 518.361C444.1 517.213 447.131 522.044 448.332 527.562C449.534 533.08 449.398 542.775 437.018 556.604C443.02 545.853 435.712 536.961 433.667 527.58Z" fill="#C40000"/>
<path d="M419.326 535.379C418.864 528.552 419.176 524.037 424.499 523.196C429.822 522.354 432.92 529.576 434.172 537.496C435.423 545.416 435.345 559.002 422.901 576.602C428.908 562.389 421.455 548.842 419.326 535.379Z" fill="black"/>
<path d="M444.906 502.03C444.302 495.226 444.378 490.749 448.445 490.106C452.512 489.462 455.16 496.756 456.412 504.676C457.663 512.596 458.098 526.101 449.159 543.146C453.266 529.234 447.035 515.494 444.906 502.03Z" fill="black"/>
<path d="M573.037 560.44C576.993 559.933 579.536 559.325 579.395 556.881C579.253 554.436 574.764 553.816 570.092 554.087C565.419 554.358 557.664 555.807 549.062 563.15C556.481 559.01 565.094 560.899 573.037 560.44Z" fill="black"/>
<path d="M549.088 519.905C549.022 515.919 549.246 513.317 551.569 513.125C553.892 512.932 555.092 517.294 555.478 521.958C555.864 526.622 555.563 534.5 549.826 544.019C552.708 536.107 549.745 527.834 549.088 519.905Z" fill="black"/>
<path d="M459.703 499.183C459.549 496.902 459.702 495.38 461.911 494.98C464.119 494.581 465.364 496.936 465.839 499.566C466.314 502.197 466.209 506.758 460.962 512.938C463.526 508.036 460.512 503.654 459.703 499.183Z" fill="#C40000"/>
<path d="M642.204 599.094C647.939 600.135 651.818 600.228 653.282 595.172C654.747 590.116 649.047 586.501 642.495 584.604C635.942 582.707 624.389 581.596 607.684 592.052C620.605 587.503 631.065 595.868 642.204 599.094Z" fill="black"/>
<path d="M672.415 589.543C680.933 590.523 686.637 590.288 688.303 582.726C689.969 575.164 681.257 570.402 671.456 568.244C661.656 566.086 644.589 565.56 621.068 582.506C639.6 574.593 655.755 585.871 672.415 589.543Z" fill="#C40000"/>
<path d="M566.469 493.926C567.422 487.159 568.856 482.798 575.974 482.953C583.092 483.108 585.48 490.745 585.305 498.727C585.13 506.708 581.936 519.99 561.736 534.927C572.789 522.122 566.174 507.494 566.469 493.926Z" fill="black"/>
<path d="M584.161 472.381C583.504 466.791 583.964 462.921 591.665 460.718C599.365 458.514 603.834 463.694 605.63 469.977C607.426 476.261 607.29 487.666 589.26 505.913C597.974 492.315 587.217 483.062 584.161 472.381Z" fill="black"/>
<path d="M604.448 452.794C603.661 445.751 604.305 440.864 614.339 437.994C624.373 435.123 630.119 441.602 632.378 449.505C634.636 457.409 634.324 471.795 610.673 495.025C622.161 477.77 608.292 466.229 604.448 452.794Z" fill="black"/>
<path d="M736.941 666.2C745.097 664.506 750.291 662.332 749.571 652.949C748.851 643.567 739.386 640.91 729.696 641.656C720.005 642.402 704.095 647.473 687.445 675.092C702.187 659.68 720.467 667.465 736.941 666.2Z" fill="black"/>
<path d="M440.972 438.903C438.369 433.796 437.255 430.11 442.22 426.789C447.184 423.469 452.501 427.566 456.223 433.134C459.946 438.701 464.146 449.364 457.459 469.35C458.888 455.232 447.301 448.367 440.972 438.903Z" fill="#C40000"/>
<path d="M529.217 551.648C537.561 553.898 543.227 554.626 545.557 548.284C547.887 541.941 539.693 536.349 530.186 532.858C520.68 529.368 503.835 526.116 479.028 537.092C498.083 533.201 513.058 545.711 529.217 551.648Z" fill="#C40000"/>
<path d="M304.67 267.872C311.871 268.391 316.567 269.565 316.88 276.862C317.193 284.159 309.296 287.119 300.866 287.479C292.435 287.839 278.211 285.467 261.104 265.797C275.351 276.247 290.338 268.487 304.67 267.872Z" fill="black"/>
<path d="M285.266 300.622C284.202 294.975 284.152 291.123 289.703 289.401C295.255 287.678 299.136 293.153 301.125 299.567C303.115 305.98 304.178 317.408 292.517 334.566C297.665 321.481 288.65 311.525 285.266 300.622Z" fill="#C40000"/>
<path d="M373.017 394.571C378.716 395.297 382.396 396.436 382.326 402.248C382.256 408.06 375.851 410.067 369.137 409.985C362.422 409.902 351.223 407.395 338.489 391.017C349.352 399.944 361.601 394.433 373.017 394.571Z" fill="#C40000"/>
<path d="M379.423 414.688C383.583 415.924 386.188 417.22 385.428 421.544C384.669 425.868 379.65 426.585 374.655 425.707C369.659 424.828 361.616 421.597 354.116 407.838C361.128 415.814 370.93 413.197 379.423 414.688Z" fill="black"/>
<path d="M382.093 434.645C385.044 436.562 386.747 438.237 384.961 442.022C383.174 445.808 379.01 445.502 375.302 443.751C371.593 441.999 366.121 437.528 363.966 423.592C367.322 432.179 375.789 431.67 382.093 434.645Z" fill="#C40000"/>
<path d="M228.039 321.292C231.786 316.947 234.692 314.472 238.892 317.409C243.092 320.345 240.942 326.626 237.093 332.129C233.244 337.632 225.096 345.636 205.965 348.038C218.606 343.49 221.498 330.648 228.039 321.292Z" fill="#C40000"/>
<path d="M315.368 414.772C321.81 418.271 326.379 419.943 329.86 414.786C333.341 409.629 327.828 403.217 320.711 398.415C313.594 393.613 300.275 387.685 276.857 392.829C293.75 392.873 303.27 406.606 315.368 414.772Z" fill="#C40000"/>
<path d="M283.821 414.758C291.076 415.815 295.941 415.805 297.425 409.763C298.909 403.721 291.521 399.609 283.183 397.562C274.844 395.516 260.297 394.556 240.1 407.475C255.967 401.68 269.647 411.276 283.821 414.758Z" fill="black"/>
<path d="M214.863 304.424C214.957 298.69 214.46 294.917 209.614 294.368C204.768 293.82 202.313 299.962 201.559 306.635C200.805 313.308 201.52 324.689 213.591 339.069C207.492 327.338 213.58 315.767 214.863 304.424Z" fill="#C40000"/>
<path d="M239.038 300.54C242.488 295.492 244.167 291.743 239.35 287.531C234.532 283.319 228.338 286.917 223.639 292.294C218.939 297.672 213.044 308.382 217.439 330.492C217.829 315.334 231.046 309.681 239.038 300.54Z" fill="#C40000"/>
<path d="M233.065 265.362C235.357 259.672 236.071 255.544 229.373 251.651C222.675 247.758 216.864 252.228 213.276 258.404C209.689 264.58 206.42 276.493 218.204 299.249C213.933 283.271 226.964 275.859 233.065 265.362Z" fill="#C40000"/>
<path d="M55.2238 426.306C51.5345 434.016 48.138 438.667 39.3549 435.724C30.5718 432.781 30.435 422.736 33.608 413.274C36.781 403.812 45.6666 389.19 76.2862 379.183C57.8164 390.189 60.6145 410.22 55.2238 426.306Z" fill="#C40000"/>
<path d="M93.068 312.663C89.2145 327.103 93.7077 368.288 87.1655 360.581C80.6232 352.874 59.9471 302.604 80.5902 285.09C101.233 267.577 110.056 262.706 148.497 267.084C121.475 269.959 95.0315 292.968 93.068 312.663Z" fill="#C40000"/>
<path d="M142.561 362.665C127.545 367.707 88.0048 366.428 94.1936 372.434C100.382 378.441 145.42 395.368 167.022 373.099C188.624 350.83 195.286 341.521 199.143 302.985C190.58 330.545 162.343 359.117 142.561 362.665Z" fill="#C40000"/>
<path d="M42.5823 389.868C36.8546 392.262 32.765 393.139 29.4289 387.297C26.0928 381.455 30.8763 375.945 37.1715 372.352C43.4666 368.759 55.3525 365.133 76.784 374.518C61.453 371.55 53.2828 383.758 42.5823 389.868Z" fill="black"/>
<path d="M158.119 323.737C169.019 316.287 176.895 312.454 184.06 321.039C191.226 329.624 182.519 342.114 170.648 352.019C158.777 361.924 136.007 374.987 93.1521 370.103C123.385 366.907 137.941 340.578 158.119 323.737Z" fill="black"/>
<path d="M134.098 309.5C140.873 299.513 144.108 292.041 134.109 283.249C124.109 274.456 111.688 281.353 102.388 291.934C93.0884 302.514 81.6143 323.79 91.6103 368.699C91.6778 338.113 118.285 327.483 134.098 309.5Z" fill="black"/>
<path d="M134.098 309.5C140.873 299.513 144.108 292.041 134.109 283.249C124.109 274.456 111.688 281.353 102.388 291.934C93.0884 302.514 81.6143 323.79 91.6103 368.699C91.6778 338.113 118.285 327.483 134.098 309.5Z" fill="black"/>
<path d="M124.863 331.001C130.121 324.585 132.804 319.675 126.539 313.082C120.274 306.488 111.358 310.462 104.339 317.134C97.3191 323.806 88.1354 337.651 92.1013 368.899C94.0925 348.024 112.927 342.342 124.863 331.001Z" fill="#C40000"/>
<path d="M134.049 335.4C140.946 330.065 146.026 327.264 151.402 332.921C156.778 338.579 151.678 347.286 144.278 354.314C136.879 361.343 122.315 370.788 93.065 368.533C113.286 365.609 121.472 347.35 134.049 335.4Z" fill="#C40000"/>
<path d="M84.5068 431.542C85.0988 440.012 85.2051 446.491 76.6749 448.094C68.1447 449.697 62.6422 440.194 60.8119 430.443C58.9816 420.692 63.5259 394.71 87.1565 379.826C75.3412 407.182 81.392 414.966 84.5068 431.542Z" fill="black"/>
<path d="M144.561 198.808C153.385 204.722 160.367 208.855 167.803 200.239C175.238 191.622 168.564 179.537 159.172 171.435C149.779 163.333 118.467 152.357 86.5009 169.757C124.16 173.393 128.596 185.031 144.561 198.808Z" fill="#C40000"/>
<path d="M583.703 639.846C578.413 630.635 573.986 623.835 563.502 628.264C553.018 632.693 553.645 646.484 558.474 657.91C563.304 669.335 586.509 693.051 622.876 691.619C590.728 671.671 591.909 659.271 583.703 639.846Z" fill="#C40000"/>
<path d="M622.136 623.33C624.324 610.827 625.46 601.198 612.447 597.246C599.434 593.294 589.461 606.436 585.157 620.62C580.852 634.803 582.085 671.056 622.139 691.404C605.715 658.584 614.813 647.441 622.136 623.33Z" fill="black"/>
<path d="M648.203 628.961C651.146 616.627 653.876 607.346 666.368 608.874C678.86 610.401 682.24 626.402 680.438 641.115C678.637 655.828 663.711 688.588 622.125 691.394C648.552 667.795 645.145 653.973 648.203 628.961Z" fill="black"/>
<path d="M674.484 650.77C681.849 643.101 687.819 637.581 697.591 644.789C707.363 651.997 703.789 665.45 696.423 675.431C689.058 685.412 660.299 702.566 623.44 691.324C660.535 680.307 661.966 667.74 674.484 650.77Z" fill="#C40000"/>
<ellipse cx="379.984" cy="207.385" rx="23.3418" ry="23.0022" transform="rotate(-45.9455 379.984 207.385)" fill="#C40000"/>
<path d="M362.781 223.219L380.005 205.417L397.509 222.352L381.676 238.717C380.907 239.511 379.641 239.532 378.847 238.764L362.781 223.219Z" fill="#C40000"/>
<path d="M366.692 184.839C368.888 179.588 381.226 170.22 375.318 161.03C359.502 146.59 337.841 167.117 335.259 190.49C332.677 213.863 343.073 231.985 380.702 239.965C362.19 220.763 355.76 203.875 366.692 184.839Z" fill="black"/>
<path d="M395.376 185.103C393.334 179.833 381.421 170.328 387.42 161.222C403.262 146.994 424.088 167.756 426.119 191.127C428.15 214.499 417.551 232.469 380.43 239.982C399.022 221.032 405.7 204.245 395.376 185.103Z" fill="black"/>
<ellipse cx="852.056" cy="365.245" rx="23.3418" ry="23.0022" transform="rotate(-59.859 852.056 365.245)" fill="#C40000"/>
<path d="M839.166 384.751L851.604 363.33L872.666 375.559L861.233 395.251C860.678 396.206 859.454 396.531 858.499 395.976L839.166 384.751Z" fill="#C40000"/>
<path d="M833.732 346.556C834.601 340.932 844.324 328.871 836.38 321.372C817.556 311.158 801.466 336.292 804.58 359.6C807.694 382.908 822.142 397.998 860.587 396.695C838.001 382.509 827.698 367.663 833.732 346.556Z" fill="black"/>
<path d="M861.641 339.915C858.391 335.29 844.542 328.929 848.176 318.648C860.132 301.028 885.339 316.172 892.931 338.37C900.522 360.568 894.555 380.559 860.329 396.777C873.819 373.913 876.265 356.013 861.641 339.915Z" fill="black"/>
<ellipse cx="515.941" cy="472.718" rx="23.3417" ry="23.0022" transform="rotate(149.263 515.941 472.718)" fill="#C40000"/>
<path d="M536.693 461.951L515.402 474.612L502.954 453.678L522.526 442.04C523.476 441.475 524.703 441.787 525.268 442.737L536.693 461.951Z" fill="#C40000"/>
<path d="M522.853 497.962C519.357 502.452 504.993 508.256 508.283 518.673C519.757 536.757 546.045 522.631 554.668 500.754C563.291 478.878 558.013 458.663 523.795 441.091C536.622 464.477 538.397 482.46 522.853 497.962Z" fill="black"/>
<path d="M495.242 490.182C495.831 495.803 504.834 508.101 496.656 515.313C477.636 524.888 462.986 499.389 467.157 476.304C471.329 453.218 486.27 438.657 524.062 441.146C501.151 454.555 490.302 469.002 495.242 490.182Z" fill="black"/>
<path d="M117.764 227.712C122.352 237.292 126.26 244.403 137.045 240.768C147.83 237.133 148.233 223.333 144.269 211.579C140.305 199.826 118.932 174.446 82.5602 173.162C113.131 195.452 111.029 207.729 117.764 227.712Z" fill="#C40000"/>
<path d="M93.7698 222.554C93.7679 228.371 94.0146 232.807 100.201 233.565C106.386 234.322 109.852 227.604 110.676 220.861C111.501 214.119 106.954 196.528 89.297 187.286C99.1172 205.528 95.1737 211.093 93.7698 222.554Z" fill="black"/>
<circle cx="621.469" cy="692.061" r="9.84606" fill="black"/>
<circle cx="523.664" cy="439.346" r="6.56404" fill="black"/>
<path d="M549.92 557.498C571.265 505.642 589.921 518.771 610.074 495.14C630.226 471.509 649.948 452.414 651.47 438.033C652.992 423.652 652.134 407.077 651.47 406.525" stroke="black" stroke-width="2" stroke-linecap="round"/>
<path d="M158.721 304.29C181.128 287.715 190.109 272.855 180.252 278.994C170.395 285.133 158.676 305.431 158.922 304.141" stroke="black" stroke-width="2" stroke-linecap="round"/>
<path d="M162.658 306.05C176.986 305.65 185.067 302.021 179.092 301.71C173.117 301.399 162.313 306.518 162.786 306.046" stroke="black" stroke-width="2" stroke-linecap="round"/>
<path d="M155.829 300.867C162.966 288.437 164.088 279.649 160.705 284.584C157.321 289.518 156.049 301.405 155.893 300.756" stroke="black" stroke-width="2" stroke-linecap="round"/>
<path d="M95.695 366.307C133.259 339.073 144.428 318.759 127.358 329.421C110.288 340.083 96.1432 367.629 96.0314 366.063" stroke="black" stroke-width="2" stroke-linecap="round"/>
<path d="M524.84 436.788C534.438 410.622 533.766 393.272 528.91 403.82C524.054 414.368 525.429 437.766 524.926 436.553" stroke="black" stroke-width="2" stroke-linecap="round"/>
<path d="M529.095 436.092C540.842 427.878 545.595 420.403 540.434 423.429C535.273 426.456 529.065 436.673 529.2 436.019" stroke="black" stroke-width="2" stroke-linecap="round"/>
<path d="M520.542 435.521C519.666 421.213 515.77 413.257 515.658 419.239C515.546 425.221 521.021 435.849 520.534 435.393" stroke="black" stroke-width="2" stroke-linecap="round"/>
<circle cx="92.4069" cy="367.798" r="11.1589" fill="black"/>
<circle cx="92.4076" cy="367.798" r="5.90764" fill="#C40000"/>
</svg>
