<svg aria-hidden="true" style="position: absolute; width: 0; height: 0; overflow: hidden;" version="1.1" xmlns="http://www.w3.org/2000/svg" xmlns:xlink="http://www.w3.org/1999/xlink">
<defs>
<symbol id="icon-close" viewBox="0 0 30 32">
<path d="M30.283 3.524l-2.933-3.083-11.627 12.223-11.627-12.223-2.933 3.083 11.627 12.223-11.627 12.223 2.933 3.083 11.627-12.223 11.627 12.223 2.933-3.083-11.627-12.223 11.627-12.223z"></path>
</symbol>
<symbol id="icon-mobile-btn" viewBox="0 0 53 32">
<path fill="none" stroke="#c40000" style="stroke: var(--color1, #c40000)" stroke-linejoin="miter" stroke-linecap="round" stroke-miterlimit="4" stroke-width="3.4286" d="M2.286 2.286h48"></path>
<path fill="none" stroke="#c40000" style="stroke: var(--color1, #c40000)" stroke-linejoin="miter" stroke-linecap="round" stroke-miterlimit="4" stroke-width="3.4286" d="M2.286 16h48"></path>
<path fill="none" stroke="#c40000" style="stroke: var(--color1, #c40000)" stroke-linejoin="miter" stroke-linecap="round" stroke-miterlimit="4" stroke-width="3.4286" d="M2.286 29.714h48"></path>
</symbol>
<symbol id="icon-telegram" viewBox="0 0 35 32">
<path fill="#c40000" style="fill: var(--color1, #c40000)" d="M32.121 0.198c-0.28 0.111-7.509 3.158-16.060 6.76-9.586 4.039-15.625 6.623-15.741 6.743-0.241 0.248-0.366 0.745-0.303 1.147 0.124 0.693 0.163 0.71 4.653 2.379 3.424 1.275 4.116 1.506 4.256 1.429 0.086-0.060 1.082-0.719 2.202-1.48 1.128-0.753 5.369-3.611 9.431-6.341 7.579-5.092 7.633-5.117 7.633-4.629 0 0.103-2.506 2.696-7.058 7.308-3.883 3.928-7.143 7.239-7.252 7.359-0.179 0.214-0.187 0.3-0.444 4.296-0.179 2.875-0.233 4.159-0.179 4.322 0.086 0.282 0.428 0.488 0.669 0.402 0.093-0.026 1.183-1.147 2.428-2.482s2.288-2.43 2.319-2.43c0.039 0 1.883 1.506 4.093 3.354s4.147 3.431 4.295 3.517c0.591 0.342 1.447 0.068 1.86-0.582 0.132-0.214 0.825-3.543 3.043-14.633 1.587-7.898 2.879-14.479 2.879-14.616 0-0.513-0.187-0.95-0.584-1.386-0.607-0.676-1.222-0.796-2.14-0.436z"></path>
</symbol>
<symbol id="icon-tiktok" viewBox="0 0 28 32">
<path fill="#c40000" style="fill: var(--color1, #c40000)" d="M14.774 0.131c-0.127 0.075-0.286 0.219-0.35 0.331-0.114 0.188-0.121 0.525-0.153 10.98l-0.032 10.786-0.14 0.413c-0.388 1.119-1.335 1.995-2.531 2.345-0.502 0.144-1.393 0.144-1.908 0-0.954-0.275-1.851-1.007-2.264-1.851-0.299-0.607-0.382-0.957-0.382-1.619 0.006-1.013 0.324-1.757 1.062-2.495 0.363-0.356 0.572-0.506 0.992-0.694 0.54-0.25 1.075-0.381 1.545-0.381 0.299 0 0.604-0.175 0.82-0.456 0.127-0.175 0.134-0.25 0.153-2.907l0.013-2.732-0.14-0.275c-0.21-0.394-0.458-0.506-1.126-0.506-1.037 0-2.512 0.288-3.561 0.7-3.504 1.363-5.99 4.364-6.658 8.022-0.134 0.763-0.159 2.514-0.038 3.251 0.598 3.633 2.906 6.615 6.264 8.078 3.758 1.638 8.28 0.95 11.319-1.726 1.762-1.551 2.893-3.458 3.428-5.796 0.14-0.613 0.146-0.694 0.165-5.89 0.006-2.895 0.025-5.265 0.038-5.265s0.293 0.125 0.63 0.281c0.827 0.381 1.978 0.75 2.919 0.932 0.897 0.181 2.461 0.325 2.811 0.263 0.305-0.056 0.655-0.363 0.738-0.65 0.051-0.156 0.064-1.144 0.051-2.932-0.019-2.632-0.025-2.701-0.153-2.876-0.242-0.313-0.477-0.406-1.253-0.463-1.583-0.119-2.913-0.738-4-1.857-1.056-1.094-1.622-2.357-1.736-3.902-0.051-0.694-0.172-0.944-0.541-1.125-0.203-0.1-0.483-0.113-2.989-0.113-2.69 0-2.773 0.006-2.995 0.131z"></path>
</symbol>
<symbol id="icon-facebook" viewBox="0 0 21 32">
<path fill="#c40000" style="fill: var(--color1, #c40000)" d="M13.272 0.157c-3.485 0.579-5.783 2.238-6.806 4.923-0.377 0.978-0.483 1.87-0.483 4.21v2.215h-2.626c-2.916 0-3.041 0.023-3.234 0.47-0.164 0.383-0.164 5.251 0 5.635 0.183 0.423 0.425 0.462 3.331 0.462l2.529 0.008v13.453l0.463 0.438 3.466 0.023c3.726 0.023 4.074 0 4.258-0.337 0.087-0.149 0.116-1.98 0.116-6.926v-6.723l3.234-0.023c2.945-0.023 3.244-0.039 3.398-0.164 0.164-0.125 0.174-0.36 0.174-3.068v-2.927l-0.222-0.18c-0.212-0.18-0.232-0.18-3.408-0.204l-3.196-0.023 0.039-2.090c0.029-2.246 0.058-2.356 0.589-2.763 0.396-0.305 0.637-0.337 3.331-0.376l2.645-0.047 0.463-0.438v-5.322l-0.241-0.188-0.232-0.196-3.36 0.008c-2.867 0.008-3.485 0.023-4.229 0.149z"></path>
</symbol>
<symbol id="icon-instagram" viewBox="0 0 32 32">
<path fill="" style="fill: var(--color1, #c40000)" d="M9.954 1.421c1.564-0.072 2.063-0.088 6.047-0.088s4.482 0.017 6.046 0.088c1.562 0.071 2.629 0.319 3.562 0.682 0.979 0.368 1.865 0.946 2.598 1.692 0.746 0.733 1.323 1.619 1.692 2.598 0.363 0.933 0.61 2 0.682 3.561 0.072 1.564 0.088 2.063 0.088 6.047s-0.017 4.482-0.088 6.047c-0.071 1.561-0.32 2.628-0.682 3.561-0.375 0.964-0.877 1.783-1.692 2.598-0.733 0.746-1.619 1.323-2.598 1.692-0.933 0.363-2 0.61-3.561 0.682-1.565 0.072-2.063 0.088-6.047 0.088s-4.482-0.017-6.047-0.088c-1.561-0.071-2.628-0.319-3.561-0.682-0.964-0.375-1.783-0.877-2.598-1.692-0.746-0.733-1.323-1.619-1.692-2.598-0.363-0.933-0.61-2-0.682-3.561-0.072-1.565-0.088-2.062-0.088-6.047s0.017-4.482 0.088-6.046c0.071-1.562 0.319-2.629 0.682-3.562 0.368-0.979 0.946-1.865 1.692-2.598 0.733-0.746 1.619-1.323 2.598-1.692 0.933-0.363 2-0.61 3.561-0.682zM22.169 5.12c-1.547-0.070-2.252 0-6.168 0s-4.214-0.070-5.76 0c-1.43 0.065-2.363 0.119-2.88 0.32-0.684 0.266-1.087 0.447-1.6 0.96s-0.374 0.596-0.64 1.28c-0.201 0.517-0.488 0.996-0.553 2.426-0.070 1.546-0.087 1.978-0.087 5.894s-0.070 4.5 0 6.047c0.065 1.43 0.439 2.087 0.64 2.603 0.235 0.637 0.473 0.797 0.96 1.27 0.473 0.487 0.643 0.405 1.28 0.64 0.517 0.201 1.283 0.255 2.713 0.32 1.546 0.070 2.010 0 5.927 0s4.533 0.070 6.080 0c1.43-0.065 2.043-0.119 2.56-0.32 0.684-0.266 1.087-0.439 1.6-0.953 0.487-0.473 0.405-0.32 0.64-0.957 0.201-0.517 0.488-1.293 0.554-2.723 0.070-1.547 0-2.011 0-5.927s0.070-4.499 0-6.046c-0.065-1.43-0.352-2.077-0.554-2.594-0.266-0.684-0.447-0.767-0.96-1.28s-0.596-0.374-1.28-0.64c-0.517-0.201-1.042-0.255-2.472-0.32zM14.128 20.521c0.594 0.246 1.23 0.373 1.873 0.373 1.298 0 2.543-0.516 3.46-1.433s1.433-2.163 1.433-3.46c0-1.298-0.516-2.543-1.433-3.46s-2.162-1.433-3.46-1.433c-0.643 0-1.279 0.127-1.873 0.373s-1.133 0.606-1.588 1.061c-0.454 0.454-0.815 0.994-1.061 1.588s-0.372 1.23-0.372 1.873c0 0.643 0.127 1.279 0.372 1.873s0.606 1.133 1.061 1.588 0.994 0.815 1.588 1.061zM9.954 9.953c1.414-1.414 4.047-2.273 6.047-2.273s4.666 0.826 6.080 2.24c1.414 1.414 2.56 4.081 2.56 6.080s-1.146 4.513-2.56 5.927c-1.414 1.414-4.081 2.073-6.080 2.073s-4.633-0.66-6.047-2.073c-1.414-1.414-2.593-3.928-2.593-5.927s1.18-4.633 2.593-6.047zM25.211 9.585c0.334-0.334 0.522-0.787 0.522-1.26s-0.188-0.926-0.522-1.26c-0.334-0.334-0.787-0.522-1.26-0.522s-0.926 0.188-1.26 0.522c-0.334 0.334-0.522 0.787-0.522 1.26s0.188 0.926 0.522 1.26c0.334 0.334 0.787 0.522 1.26 0.522s0.926-0.188 1.26-0.522z"></path>
</symbol>
<symbol id="icon-ornament" viewBox="0 0 10 32">
<path fill="#efefef" style="fill: var(--color2, #efefef)" d="M0.634 1.711h8.428v29.148h-8.428v-29.148z"></path>
<path fill="#c40000" style="fill: var(--color1, #c40000)" d="M0.628 1.706h0.538v29.152h-0.538v-29.152z"></path>
<path fill="#c40000" style="fill: var(--color1, #c40000)" d="M8.521 1.706h0.538v29.152h-0.538v-29.152z"></path>
<path fill="#c40000" style="fill: var(--color1, #c40000)" d="M2.961 16.327h0.897l-2.692 5.843v-2.092l1.795-3.75z"></path>
<path fill="#c40000" style="fill: var(--color1, #c40000)" d="M2.961 16.327h0.897l-2.799-5.702 0.005 2.057 1.898 3.646z"></path>
<path fill="#c40000" style="fill: var(--color1, #c40000)" d="M1.003 13.603l1.426 2.733-1.341 3.002-0.085-5.735z"></path>
<path fill="#c40000" style="fill: var(--color1, #c40000)" d="M3.745 12.683l0.546 0.697-1.249 1.914-0.591-0.675 1.294-1.936z"></path>
<path fill="#c40000" style="fill: var(--color1, #c40000)" d="M4.428 13.717l0.565 0.682-1.195 1.948-0.609-0.658 1.24-1.971z"></path>
<path fill="#c40000" style="fill: var(--color1, #c40000)" d="M2.968 11.705l0.543 0.7-1.258 1.908-0.588-0.678 1.303-1.93z"></path>
<path fill="#c40000" style="fill: var(--color1, #c40000)" d="M4.844 15.52l0.384 0.763-0.385 0.764-0.381-0.763 0.382-0.764z"></path>
<path fill="#c40000" style="fill: var(--color1, #c40000)" d="M4.779 8.882l0.384 0.763-0.385 0.764-0.381-0.763 0.382-0.764z"></path>
<path fill="#c40000" style="fill: var(--color1, #c40000)" d="M4.868 22.247l0.384 0.763-0.385 0.764-0.381-0.763 0.382-0.764z"></path>
<path fill="#efefef" style="fill: var(--color2, #efefef)" d="M1.96 10.669l0.639-0.71 2.68 4.558-0.345 1.093-2.974-4.941z"></path>
<path fill="#c40000" style="fill: var(--color1, #c40000)" d="M3.929 19.971l0.487-0.607-1.249-1.914-0.495 0.567 1.257 1.954z"></path>
<path fill="#c40000" style="fill: var(--color1, #c40000)" d="M4.541 18.693l0.452-0.559-1.195-1.948-0.535 0.584 1.278 1.922z"></path>
<path fill="#c40000" style="fill: var(--color1, #c40000)" d="M3.147 21.038l0.543-0.531-1.258-1.908-0.5 0.591 1.215 1.848z"></path>
<path fill="#efefef" style="fill: var(--color2, #efefef)" d="M3.205 21.673l-1.051 0.564 2.495-5.103 0.875 0.257-2.319 4.282z"></path>
<path fill="#c40000" style="fill: var(--color1, #c40000)" d="M6.759 16.327h-0.897l2.692 5.843v-2.093l-1.795-3.75z"></path>
<path fill="#c40000" style="fill: var(--color1, #c40000)" d="M6.759 16.327h-0.897l2.799-5.702-0.005 2.057-1.898 3.645z"></path>
<path fill="#c40000" style="fill: var(--color1, #c40000)" d="M8.553 13.995l-1.256 2.332 1.256 2.781v-5.113z"></path>
<path fill="#c40000" style="fill: var(--color1, #c40000)" d="M5.975 12.683l-0.546 0.697 1.249 1.914 0.591-0.675-1.294-1.936z"></path>
<path fill="#c40000" style="fill: var(--color1, #c40000)" d="M5.291 13.717l-0.565 0.682 1.196 1.948 0.609-0.658-1.24-1.971z"></path>
<path fill="#c40000" style="fill: var(--color1, #c40000)" d="M6.752 11.705l-0.543 0.7 1.258 1.908 0.588-0.678-1.303-1.93z"></path>
<path fill="#efefef" style="fill: var(--color2, #efefef)" d="M7.769 10.655l-0.648-0.696-2.486 4.255 0.398 1.169 2.736-4.728z"></path>
<path fill="#c40000" style="fill: var(--color1, #c40000)" d="M5.804 19.972l-0.391-0.64 1.225-1.827 0.459 0.531-1.294 1.936z"></path>
<path fill="#c40000" style="fill: var(--color1, #c40000)" d="M5.323 18.535l-0.597-0.401 1.196-1.948 0.489 0.574-1.088 1.774z"></path>
<path fill="#c40000" style="fill: var(--color1, #c40000)" d="M6.573 21.206l-0.521-0.581 1.373-1.943 0.451 0.594-1.303 1.93z"></path>
<path fill="#efefef" style="fill: var(--color2, #efefef)" d="M6.515 21.673l1.051 0.564-2.495-5.103-0.585 0.674 2.029 3.865z"></path>
<path fill="#c40000" style="fill: var(--color1, #c40000)" d="M4.817 5.581l0.020 1.844 3.909-5.719-1.435-0-2.494 3.875z"></path>
<path fill="#c40000" style="fill: var(--color1, #c40000)" d="M4.817 5.581l0.020 1.844-3.919-5.712 1.391-0.006 2.508 3.874z"></path>
<path fill="#c40000" style="fill: var(--color1, #c40000)" d="M3.198 1.718l1.607 2.757 1.85-2.795-3.457 0.038z"></path>
<path fill="#c40000" style="fill: var(--color1, #c40000)" d="M2.371 7.22l0.484 1.118 1.266-2.581-0.47-1.21-1.28 2.674z"></path>
<path fill="#c40000" style="fill: var(--color1, #c40000)" d="M3.085 8.618l0.474 1.157 1.29-2.472-0.459-1.248-1.305 2.563z"></path>
<path fill="#c40000" style="fill: var(--color1, #c40000)" d="M1.692 5.63l0.485 1.111 1.262-2.6-0.471-1.204-1.276 2.692z"></path>
<path fill="#efefef" style="fill: var(--color2, #efefef)" d="M1.303 4.039l-0.136 1.839 2.269 4.086 0.781-0.826-2.915-5.098z"></path>
<path fill="#c40000" style="fill: var(--color1, #c40000)" d="M7.363 7.42l-0.459 1.128-1.322-2.553 0.443-1.22 1.338 2.645z"></path>
<path fill="#c40000" style="fill: var(--color1, #c40000)" d="M6.533 8.579l-0.448 1.167-1.344-2.443 0.431-1.258 1.361 2.534z"></path>
<path fill="#c40000" style="fill: var(--color1, #c40000)" d="M8.12 5.927l-0.461 1.121-1.319-2.571 0.445-1.214 1.334 2.664z"></path>
<path fill="#efefef" style="fill: var(--color2, #efefef)" d="M8.437 6.042l-0-1.869-3.037 4.871 0.469 1.199 2.568-4.2z"></path>
<path fill="#c40000" style="fill: var(--color1, #c40000)" d="M4.779 26.434v-1.227l-3.971 5.652h0.956l3.015-4.424z"></path>
<path fill="#c40000" style="fill: var(--color1, #c40000)" d="M4.779 26.445v-1.238l3.877 5.652h-0.894l-2.984-4.414z"></path>
<path fill="#c40000" style="fill: var(--color1, #c40000)" d="M6.527 30.859l-1.711-2.704-1.943 2.704h3.654z"></path>
<path fill="#c40000" style="fill: var(--color1, #c40000)" d="M7.313 25.302l-0.378-1.033-1.31 2.577 0.437 0.803 1.251-2.347z"></path>
<path fill="#c40000" style="fill: var(--color1, #c40000)" d="M6.453 23.889l-0.37-1.017-1.317 2.458 0.43 0.936 1.257-2.376z"></path>
<path fill="#c40000" style="fill: var(--color1, #c40000)" d="M7.904 27.037l-0.395-1.014-1.236 2.461 0.486 0.739 1.145-2.186z"></path>
<path fill="#efefef" style="fill: var(--color2, #efefef)" d="M8.276 28.632l0.156-1.837-2.224-4.11-0.79 0.817 2.859 5.13z"></path>
<path fill="#c40000" style="fill: var(--color1, #c40000)" d="M2.302 25.082l0.433-0.855 1.231 2.462-0.397 0.928-1.267-2.535z"></path>
<path fill="#c40000" style="fill: var(--color1, #c40000)" d="M3.116 23.72l0.401-0.845 1.357 2.455-0.449 0.851-1.31-2.461z"></path>
<path fill="#c40000" style="fill: var(--color1, #c40000)" d="M1.605 26.487l0.347-0.934 1.29 2.586-0.486 0.672-1.151-2.323z"></path>
<path fill="#efefef" style="fill: var(--color2, #efefef)" d="M1.164 26.55l-0 1.865 3.070-4.833-0.456-1.204-2.614 4.172z"></path>
<path fill="#c40000" style="fill: var(--color1, #c40000)" d="M0.853 8.21l1.614 3.184-1.076 1.659-0.538-4.844z"></path>
<path fill="#c40000" style="fill: var(--color1, #c40000)" d="M8.746 8.613l-1.48 2.826 1.076 1.57 0.404-4.395z"></path>
<path fill="#c40000" style="fill: var(--color1, #c40000)" d="M1.058 7.322l-0.042-1.399 3.853 6.528 0 1.373-3.811-6.502z"></path>
<path fill="#c40000" style="fill: var(--color1, #c40000)" d="M8.604 7.548l0.155-1.418-3.891 6.321v1.373l3.736-6.276z"></path>
<path fill="#c40000" style="fill: var(--color1, #c40000)" d="M8.555 25.376l0.154 1.523-3.853-6.971v-1l3.699 6.447z"></path>
<path fill="#c40000" style="fill: var(--color1, #c40000)" d="M1.089 25.208v1.525l3.768-6.825v-0.979l-3.768 6.279z"></path>
</symbol>
<symbol id="icon-project" viewBox="0 0 32 32">
<path d="M7.862 0.069c-0.706 0.163-1.469 0.8-1.788 1.475-0.156 0.337-0.169 0.431-0.188 1.438l-0.025 1.075-4.706 0.037-0.331 0.181c-0.175 0.1-0.394 0.275-0.481 0.388-0.356 0.469-0.344 0.231-0.344 6.619 0 3.244 0.019 5.944 0.037 6 0.063 0.15 0.375 0.288 0.556 0.244 0.344-0.087 0.344-0.069 0.344-3.044v-2.744l0.275 0.331c0.575 0.694 1.469 1.287 2.35 1.563l0.344 0.106 0.031 0.831c0.025 0.738 0.050 0.863 0.181 1.075 0.075 0.131 0.256 0.294 0.394 0.362 0.225 0.113 0.344 0.125 1.237 0.106 1.1-0.019 1.188-0.050 1.487-0.488 0.125-0.188 0.138-0.281 0.138-0.975v-0.775h10.3l0.019 0.762c0.025 0.675 0.044 0.8 0.175 1.006 0.075 0.131 0.256 0.294 0.394 0.362 0.225 0.113 0.344 0.125 1.238 0.106 1.1-0.019 1.188-0.050 1.488-0.488 0.125-0.188 0.137-0.281 0.137-1.037v-0.825l0.419-0.137c0.85-0.275 1.569-0.731 2.194-1.4 0.212-0.225 0.4-0.412 0.419-0.412s0.031 1 0.031 2.219c0 1.219-0.019 2.219-0.038 2.219s-0.394-0.163-0.831-0.356c-1.225-0.55-0.7-0.694-5.881 1.594-2.425 1.075-4.475 2-4.556 2.063-0.613 0.456-0.575 1.35 0.069 1.719 0.15 0.087 0.581 0.288 0.956 0.456 0.794 0.344 0.844 0.375 0.844 0.531 0 0.119-0.137 0.119-5.856 0.106l-5.862-0.019-0.425-0.2c-0.556-0.262-1.113-0.8-1.356-1.294-0.225-0.462-0.313-0.894-0.313-1.569 0-0.45-0.019-0.525-0.144-0.644-0.206-0.194-0.5-0.181-0.669 0.038-0.131 0.156-0.138 0.219-0.113 0.919 0.025 0.594 0.063 0.844 0.194 1.219 0.381 1.075 1.212 1.906 2.331 2.331l0.369 0.137 11.813 0.063 0.031 1.969 0.031 1.975 0.206 0.275c0.2 0.281 0.794 0.731 1.137 0.875 0.169 0.069 0.188 0.106 0.188 0.375 0 0.281-0.038 0.344-0.844 1.406-0.688 0.906-0.844 1.144-0.844 1.313 0 0.375 0.463 0.6 0.738 0.356 0.069-0.056 0.3-0.344 0.519-0.637l0.4-0.531 0.019 0.512c0.019 0.469 0.031 0.525 0.181 0.644 0.431 0.337 0.769 0.025 0.769-0.725v-0.413l0.425 0.55c0.231 0.306 0.494 0.594 0.581 0.644 0.231 0.131 0.475 0.044 0.594-0.206 0.131-0.269 0.113-0.306-0.844-1.563-0.5-0.65-0.756-1.044-0.756-1.144 0-0.131 0.025-0.15 0.144-0.119 2.956 0.831 7.781 0.712 10.325-0.244 0.894-0.337 1.669-0.913 1.844-1.375 0.038-0.1 0.063-1.169 0.063-2.65 0-1.919 0.019-2.506 0.081-2.55 0.038-0.031 0.387-0.194 0.762-0.356 0.381-0.163 0.806-0.369 0.956-0.45 0.588-0.344 0.687-1.175 0.188-1.637-0.219-0.2-1.356-0.7-1.594-0.7-0.137 0-0.238 0.050-0.325 0.163-0.281 0.356-0.094 0.606 0.712 0.956 0.306 0.137 0.569 0.275 0.581 0.313 0.031 0.087 0.144 0.031-4.544 2.1-2.313 1.019-4.256 1.844-4.319 1.825-0.188-0.050-4.188-1.819-4.188-1.856 0-0.019 0.694-0.35 1.538-0.731 1.45-0.669 1.544-0.7 1.7-0.619 0.725 0.369 1.938 0.219 2.469-0.313 0.962-0.962-0.2-2.244-1.825-2.019-0.794 0.113-1.356 0.581-1.431 1.181l-0.044 0.331-1.806 0.825c-1.394 0.644-1.837 0.819-1.938 0.781-0.494-0.194-3.137-1.387-3.188-1.438-0.037-0.038-0.037-0.081 0-0.113 0.031-0.031 0.706-0.337 1.494-0.681 0.794-0.35 2.756-1.212 4.362-1.925l2.925-1.288 2.981 1.319c1.844 0.813 3.056 1.313 3.181 1.313 0.137 0 0.238-0.050 0.325-0.163 0.337-0.431 0.163-0.575-1.837-1.45l-1.688-0.738-0.031-5.719c-0.031-5.325-0.038-5.731-0.144-5.963-0.144-0.313-0.438-0.625-0.762-0.8-0.244-0.131-0.331-0.138-2.6-0.156l-2.356-0.019-0.025-1.013c-0.025-0.869-0.050-1.063-0.169-1.375-0.288-0.738-0.906-1.306-1.675-1.544-0.344-0.106-0.581-0.125-1.519-0.125-0.613 0-1.162 0.019-1.219 0.037-0.050 0.025-0.144 0.125-0.194 0.225-0.081 0.156-0.081 0.219-0.019 0.369 0.037 0.106 0.125 0.213 0.188 0.244 0.063 0.037 0.581 0.063 1.162 0.063 0.575 0 1.156 0.031 1.281 0.063 0.394 0.112 0.806 0.438 1.012 0.813 0.188 0.337 0.194 0.369 0.212 1.294l0.025 0.956h-0.75l-0.025-0.875c-0.025-0.944-0.056-1.050-0.45-1.337-0.169-0.131-0.225-0.131-4.525-0.131-4.244 0-4.362 0.006-4.569 0.125-0.369 0.219-0.444 0.444-0.444 1.388v0.831h-0.763l0.025-0.987c0.019-0.938 0.025-0.994 0.188-1.275 0.1-0.156 0.281-0.375 0.406-0.488 0.438-0.356 0.6-0.375 3.3-0.375h2.45l0.131-0.144c0.194-0.206 0.181-0.5-0.025-0.662-0.162-0.125-0.225-0.131-2.675-0.125-1.375 0.006-2.612 0.031-2.737 0.063zM16.613 3.356l0.019 0.706h-8.131v-1.438l8.094 0.031 0.019 0.7zM23.856 5.125c0.319 0.194 0.35 0.412 0.313 2.469-0.031 2.031-0.063 2.213-0.488 3.081-0.369 0.75-1.006 1.387-1.8 1.781-0.319 0.162-0.619 0.294-0.669 0.294-0.069 0-0.087-0.144-0.087-0.713 0-0.631-0.012-0.731-0.137-0.912-0.3-0.438-0.387-0.469-1.494-0.488-0.938-0.019-1.006-0.012-1.244 0.119-0.444 0.25-0.525 0.463-0.556 1.381l-0.019 0.8h-10.3v-0.806c0-0.725-0.013-0.819-0.138-1.006-0.3-0.438-0.388-0.469-1.487-0.488-0.894-0.019-1.013-0.006-1.237 0.106-0.425 0.219-0.538 0.481-0.569 1.306-0.025 0.819 0.038 0.781-0.756 0.4-0.681-0.331-1.444-1.1-1.794-1.825-0.406-0.825-0.456-1.2-0.456-3.331 0-1.781 0.006-1.844 0.131-2.006 0.075-0.094 0.194-0.2 0.269-0.225 0.069-0.031 5.125-0.056 11.225-0.056 10.894-0.006 11.1-0.006 11.294 0.119zM6.438 12.25v0.694l-1.531-0.037-0.019-0.588c-0.006-0.325-0.006-0.625 0.013-0.675 0.025-0.063 0.219-0.081 0.787-0.081h0.75v0.688zM20.188 12.25v0.694l-1.531-0.037-0.019-0.588c-0.006-0.325-0.006-0.625 0.012-0.675 0.025-0.063 0.219-0.081 0.788-0.081h0.75v0.688zM6.438 14.531v0.662l-1.531-0.037-0.019-0.644-0.019-0.637h1.569v0.656zM20.188 14.531v0.662l-1.531-0.037-0.019-0.644-0.019-0.637h1.569v0.656zM22.813 19.8c0.119 0.056 0.219 0.144 0.219 0.194 0 0.181-0.413 0.35-0.844 0.35s-0.844-0.169-0.844-0.35c0-0.156 0.406-0.306 0.844-0.306 0.262 0 0.481 0.038 0.625 0.113zM16.238 22.769c0.094 0.075 0.113 4.669 0.012 4.669-0.031 0-0.175-0.1-0.313-0.225l-0.25-0.225v-4.488l0.238 0.106c0.125 0.063 0.269 0.131 0.313 0.163zM28.519 27.144c-0.55 0.569-2.369 1.106-4.412 1.3-1.063 0.1-3.844 0.044-4.731-0.1-0.719-0.113-1.925-0.381-2.050-0.456-0.056-0.044-0.075-0.556-0.063-2.363l0.019-2.313 2.25 1c2.156 0.956 2.269 1 2.656 1 0.394 0 0.5-0.038 3.125-1.206 1.494-0.663 2.863-1.269 3.031-1.344l0.313-0.137 0.019 2.219 0.012 2.219-0.169 0.181z"></path>
</symbol>
<symbol id="icon-book" viewBox="0 0 32 32">
<path d="M9.121 2.631c-3.899 1.622-6.763 2.85-6.856 2.944-0.2 0.187-0.227 0.581-0.053 0.794 0.073 0.093 1.182 0.587 2.957 1.328l2.837 1.188 0.020 3.084 0.013 3.084h-2.817c-1.736 0-2.917 0.027-3.071 0.067-0.474 0.133-0.454-0.020-0.454 3.778v3.418l-0.668 0.027c-0.621 0.020-0.674 0.033-0.848 0.207l-0.187 0.18v8.744l0.187 0.18 0.18 0.187h27.604l0.534-0.154c1.275-0.367 2.296-1.175 2.937-2.316 0.654-1.175 0.741-2.797 0.214-4.072-0.461-1.108-1.575-2.229-2.564-2.577-0.26-0.087-0.267-0.127-0.080-0.3 0.22-0.194 0.694-0.828 0.848-1.135 0.073-0.147 0.207-0.481 0.294-0.734 0.2-0.601 0.214-1.722 0.027-2.33-0.367-1.201-1.148-2.156-2.21-2.67-0.748-0.367-1.122-0.441-2.617-0.481l-1.355-0.040v-6.154l2.223-0.914c1.215-0.507 2.27-0.935 2.33-0.961 0.1-0.033 0.113 0.1 0.134 1.595 0.020 1.622 0.020 1.642 0.18 1.809 0.087 0.093 0.24 0.187 0.347 0.207 0.214 0.047 0.554-0.107 0.661-0.294 0.040-0.087 0.067-0.954 0.067-2.336 0-2.189 0-2.203-0.147-2.37-0.113-0.127-1.956-0.928-6.883-2.977-3.705-1.542-6.816-2.804-6.909-2.797-0.1 0-3.191 1.255-6.876 2.79zM21.752 3.512l4.393 1.829-5.214 0.033c-5.147 0.033-5.214 0.033-5.347 0.174-0.073 0.073-0.154 0.24-0.174 0.374-0.033 0.2-0.007 0.274 0.16 0.461l0.2 0.227 10.281 0.067-10.040 4.185-5.828-2.43c-3.758-1.562-5.788-2.443-5.734-2.476 0.047-0.033 2.67-1.135 5.828-2.45l5.735-2.39 0.674 0.28c0.367 0.16 2.644 1.108 5.067 2.116zM12.586 10.794c1.883 0.781 3.318 1.342 3.431 1.342 0.113-0.007 1.649-0.607 3.418-1.348 1.776-0.741 3.238-1.342 3.258-1.342s0.033 1.302 0.033 2.897c0 2.703-0.007 2.904-0.113 2.937-0.067 0.020-1.562 0.441-3.325 0.941l-3.204 0.908-6.843-1.896v-2.897c0-1.642 0.027-2.89 0.060-2.89s1.509 0.607 3.284 1.348zM12.219 17.356c2.049 0.567 3.785 1.035 3.852 1.035 0.073 0 0.901-0.214 1.836-0.481 1.268-0.354 1.722-0.461 1.809-0.407 0.194 0.12 0.521 0.854 0.607 1.342 0.2 1.188-0.36 2.423-1.395 3.044-0.754 0.461-0.367 0.441-8.598 0.441h-7.43v-2.33l4.393-0.020c4.733-0.020 4.586-0.013 4.746-0.367 0.12-0.267 0.087-0.487-0.12-0.694l-0.194-0.194h-8.825v-2.403h5.594l3.725 1.035zM26.532 16.395c1.742 0.274 2.877 1.996 2.437 3.685-0.14 0.554-0.334 0.888-0.741 1.315-0.401 0.421-0.808 0.667-1.362 0.828-0.32 0.093-0.788 0.107-3.398 0.093l-3.024-0.020 0.267-0.334c0.988-1.242 1.182-3.017 0.501-4.439-0.1-0.2-0.18-0.394-0.18-0.434-0.007-0.033 0.534-0.22 1.195-0.407l1.202-0.347 1.335-0.007c0.734 0 1.529 0.027 1.769 0.067zM16.044 23.697c1.175 0.28 2.223 1.275 2.57 2.436 0.14 0.467 0.14 1.468 0 1.936-0.347 1.161-1.395 2.156-2.57 2.436-0.367 0.087-1.442 0.1-7.617 0.1h-7.197v-1.468l6.863-0.007c5.127 0 6.916-0.020 7.090-0.080 0.454-0.154 0.561-0.774 0.18-1.061-0.14-0.107-0.614-0.12-7.136-0.12h-6.996v-1.535h3.892c4.293 0 4.106 0.020 4.252-0.427 0.093-0.28 0.007-0.521-0.247-0.688-0.167-0.113-0.454-0.12-4.039-0.14l-3.859-0.020v-1.462h7.197c6.175 0 7.25 0.013 7.617 0.1zM28.060 23.697c1.175 0.28 2.223 1.275 2.57 2.436 0.14 0.467 0.14 1.468 0 1.936-0.347 1.161-1.395 2.156-2.57 2.436-0.36 0.080-1.155 0.1-4.987 0.1h-4.566l0.267-0.32c0.467-0.554 0.794-1.128 0.988-1.729 0.174-0.527 0.194-0.681 0.194-1.455s-0.020-0.928-0.194-1.455c-0.194-0.601-0.521-1.175-0.988-1.736l-0.267-0.314h4.566c3.832 0 4.626 0.020 4.987 0.1z"></path>
<path d="M11.37 25.219c-0.154 0.113-0.26 0.347-0.26 0.547 0 0.26 0.334 0.567 0.621 0.567 0.514 0 0.788-0.667 0.414-1.035-0.18-0.187-0.587-0.227-0.774-0.080z"></path>
<path d="M28.908 12.083c-0.134 0.12-0.174 0.227-0.174 0.434 0 0.367 0.227 0.601 0.581 0.601 0.574-0.007 0.828-0.607 0.427-1.008-0.254-0.254-0.581-0.26-0.834-0.027z"></path>
</symbol>
<symbol id="icon-desktop" viewBox="0 0 33 32">
<path d="M1.935 0.064c-0.398 0.093-0.983 0.422-1.266 0.719-0.141 0.149-0.353 0.459-0.463 0.688l-0.206 0.415v21.023l0.238 0.471c0.289 0.564 0.662 0.911 1.26 1.184l0.431 0.198 11.279 0.037v2.461l-0.977 0.031c-0.611 0.019-1.093 0.068-1.272 0.124-1.632 0.521-2.712 1.779-2.866 3.342-0.051 0.496 0.039 0.756 0.302 0.887 0.27 0.136 15.785 0.136 16.055 0.006 0.334-0.167 0.411-0.595 0.231-1.327-0.334-1.37-1.279-2.393-2.616-2.846-0.398-0.136-0.617-0.161-1.446-0.192l-0.983-0.025v-2.461l11.286-0.037 0.488-0.229c0.585-0.279 0.945-0.639 1.228-1.215l0.206-0.415v-21.017l-0.206-0.415c-0.283-0.577-0.643-0.936-1.228-1.215l-0.488-0.229-5.849-0.019c-4.351-0.012-5.9 0-6.035 0.056-0.193 0.081-0.366 0.341-0.366 0.552 0 0.18 0.167 0.471 0.302 0.533 0.064 0.031 2.731 0.068 5.932 0.087l5.816 0.031 0.244 0.149c0.135 0.081 0.321 0.26 0.418 0.397l0.174 0.254 0.019 9.008 0.013 9.008h-30.335l0.013-9.008 0.019-9.002 0.154-0.236c0.084-0.13 0.27-0.31 0.411-0.403l0.263-0.167 5.816-0.031c3.201-0.019 5.874-0.056 5.939-0.087 0.135-0.062 0.302-0.353 0.302-0.527 0-0.068-0.032-0.198-0.077-0.285-0.167-0.353 0.064-0.341-6.17-0.335-3.201 0.006-5.849 0.031-5.99 0.062zM31.582 22.023c-0.026 0.639-0.039 0.725-0.199 0.955-0.096 0.136-0.283 0.316-0.418 0.397l-0.244 0.149h-28.607l-0.264-0.167c-0.456-0.291-0.559-0.533-0.591-1.339l-0.019-0.694h30.361l-0.019 0.701zM18.349 26.034v1.24h-3.856v-2.48h3.856v1.24zM21.755 28.682c0.707 0.279 1.337 0.899 1.568 1.544l0.096 0.273h-13.998l0.096-0.26c0.283-0.787 0.977-1.401 1.825-1.624 0.302-0.081 1.086-0.093 5.206-0.081l4.852 0.012 0.354 0.136z"></path>
<path d="M16.107 21.905c-0.559 0.298-0.321 1.153 0.315 1.153 0.328 0 0.643-0.304 0.643-0.614 0-0.465-0.533-0.769-0.958-0.539z"></path>
<path d="M16.107 0.083c-0.559 0.298-0.321 1.153 0.315 1.153 0.328 0 0.643-0.304 0.643-0.614 0-0.465-0.533-0.769-0.958-0.539z"></path>
<path d="M10.572 5.582c-2.738 1.37-5.032 2.542-5.090 2.616-0.148 0.18-0.148 0.546 0.006 0.732 0.071 0.081 0.932 0.552 1.928 1.048l1.8 0.899 0.019 2.151c0.019 2.040 0.026 2.158 0.148 2.313 0.084 0.112 1.131 0.663 3.117 1.655 2.584 1.29 3.027 1.494 3.278 1.494 0.257 0.006 0.656-0.18 3.278-1.488 1.992-0.998 3.034-1.55 3.117-1.662 0.122-0.155 0.129-0.273 0.148-2.313l0.019-2.151 1.279-0.639 1.285-0.639v1.42l-0.283 0.161c-0.347 0.192-0.656 0.533-0.835 0.899-0.129 0.273-0.135 0.378-0.135 2.443v2.164l0.212 0.18 0.206 0.18h3.034l0.186-0.186 0.193-0.18-0.019-2.219-0.019-2.219-0.193-0.335c-0.199-0.347-0.495-0.62-0.848-0.781l-0.212-0.099v-1.345c0-1.178-0.019-1.364-0.116-1.482-0.058-0.074-2.352-1.252-5.097-2.616-3.741-1.86-5.045-2.486-5.206-2.486-0.161 0.006-1.62 0.707-5.199 2.486zM19.312 6.146l3.522 1.755-4.435 0.062-0.186 0.205c-0.103 0.112-0.186 0.273-0.186 0.36 0 0.205 0.161 0.502 0.315 0.583 0.084 0.037 0.938 0.062 2.327 0.062 1.234 0 2.179 0.025 2.147 0.056-0.103 0.087-6.96 3.478-7.038 3.478-0.058 0-5.347-2.61-7.61-3.757l-0.765-0.384 0.443-0.217c0.244-0.124 2.121-1.060 4.171-2.083s3.741-1.86 3.747-1.86c0.013-0.006 1.607 0.781 3.548 1.742zM13.104 12.811c1.8 0.899 2.507 1.221 2.674 1.221s0.848-0.31 2.674-1.221c1.343-0.67 2.481-1.221 2.519-1.221 0.058 0 0.077 0.391 0.077 1.507v1.507l-2.635 1.314-2.635 1.308-5.27-2.629v-1.5c0-1.11 0.019-1.507 0.077-1.507 0.039 0 1.176 0.552 2.519 1.221zM26.029 12.408l0.161 0.186v3.211h-1.285v-1.537c0-1.742 0.039-1.903 0.443-2.034 0.296-0.093 0.495-0.043 0.681 0.174z"></path>
<path d="M15.546 7.987c-0.193 0.081-0.411 0.366-0.411 0.546 0 0.198 0.167 0.496 0.315 0.577 0.071 0.031 0.219 0.062 0.328 0.062 0.27 0 0.431-0.093 0.546-0.31 0.141-0.267 0.116-0.471-0.077-0.682-0.193-0.198-0.482-0.279-0.7-0.192z"></path>
</symbol>
<symbol id="icon-people" viewBox="0 0 35 32">
<path d="M16.373 0.067c-1.48 0.26-2.75 0.901-3.902 1.968-1.685 1.561-2.757 3.763-3.056 6.292-0.263 2.149 0.219 4.444 1.305 6.292v0c0.158 0.273 0.104 0.619-0.128 0.831l-0.061 0.056-0.294 0.265c-0.085 0.076-0.219 0.055-0.275-0.045v0c-0.16-0.274-0.649-0.641-0.985-0.727-0.357-0.1-0.97-0.1-1.335 0-0.357 0.1-0.875 0.507-1.050 0.834-0.124 0.227-0.139 0.48-0.175 2.616l-0.011 0.709c-0.007 0.475-0.632 0.645-0.879 0.238v0 0c-0.563-0.925-0.861-1.987-0.861-3.070v-0.373c0-1.344 0.211-2.68 0.624-3.958l0.623-1.927c1.313-4.057 1.378-4.324 1.145-4.824-0.16-0.334-0.467-0.654-0.817-0.821-0.255-0.127-0.416-0.147-1.065-0.147-0.686 0-0.802 0.020-1.087 0.167-0.613 0.32-0.627 0.347-2.421 4.977l-0.302 0.783c-0.904 2.345-1.368 4.837-1.368 7.35v1.33c0 2.034 0.355 4.052 1.050 5.963v0l0.853 2.341c0.096 0.263-0.099 0.541-0.379 0.541v0c-0.518 0-0.605 0.020-0.758 0.167v0c-0.116 0.102-0.182 0.249-0.182 0.403v3.131c0 0.154 0.066 0.301 0.182 0.403v0 0c0.112 0.107 0.262 0.167 0.417 0.167h12.805c0.155 0 0.304-0.060 0.417-0.167v0 0c0.116-0.102 0.182-0.249 0.182-0.403v-3.131c0-0.154-0.066-0.301-0.182-0.403v0c-0.16-0.153-0.233-0.167-0.875-0.167v0c-0.383 0-0.693-0.31-0.693-0.693v-1.676c0-0.619-0.098-1.234-0.292-1.821v0c-0.153-0.487-0.306-0.947-0.328-1.021-0.044-0.127 0.037-0.127 5.288-0.127s5.331 0 5.288 0.127c-0.022 0.073-0.175 0.534-0.328 1.021v0c-0.193 0.588-0.292 1.203-0.292 1.821v1.676c0 0.383-0.31 0.693-0.693 0.693v0c-0.642 0-0.715 0.013-0.875 0.167v0c-0.116 0.102-0.182 0.249-0.182 0.403v3.131c0 0.154 0.066 0.301 0.182 0.403v0 0c0.112 0.107 0.262 0.167 0.417 0.167h12.805c0.155 0 0.304-0.060 0.417-0.167v0 0c0.116-0.102 0.182-0.249 0.182-0.403v-3.131c0-0.154-0.066-0.301-0.182-0.403v0c-0.153-0.147-0.241-0.167-0.758-0.167v0c-0.28 0-0.475-0.278-0.379-0.541l0.853-2.341c0.695-1.911 1.050-3.929 1.050-5.963v-1.33c0-2.513-0.464-5.005-1.368-7.35l-0.302-0.783c-1.794-4.63-1.809-4.657-2.421-4.977-0.284-0.147-0.401-0.167-1.087-0.167-0.649 0-0.81 0.020-1.065 0.147-0.35 0.167-0.656 0.487-0.817 0.821-0.233 0.5-0.168 0.767 1.145 4.824l0.623 1.927c0.413 1.279 0.624 2.614 0.624 3.958v0 0.376c0 1.081-0.295 2.141-0.853 3.067v0 0c-0.25 0.409-0.879 0.237-0.886-0.242l-0.011-0.705c-0.037-2.135-0.051-2.389-0.175-2.616-0.175-0.327-0.693-0.734-1.050-0.834-0.365-0.1-0.977-0.1-1.335 0-0.343 0.087-0.824 0.454-0.985 0.734v0c-0.060 0.103-0.2 0.124-0.288 0.044l-0.274-0.251c-0.266-0.243-0.333-0.636-0.163-0.954l0.090-0.167c1.313-2.442 1.597-5.144 0.824-7.893-0.766-2.716-2.662-4.991-5.003-5.978-0.299-0.127-0.802-0.294-1.109-0.367-0.729-0.173-2.057-0.22-2.749-0.1zM18.999 1.248c2.020 0.574 3.712 2.128 4.668 4.297 1.203 2.722 1.079 5.878-0.321 8.42-0.584 1.061-0.562 1.067-0.613-0.12-0.066-1.475-0.343-2.536-0.992-3.83-0.27-0.527-0.292-0.607-0.226-0.861 0.037-0.147 0.073-1.121 0.073-2.162 0-1.868 0-1.888-0.16-2.035-0.131-0.113-0.729-0.274-2.662-0.714l-1.087-0.247c-0.918-0.208-1.878-0.11-2.734 0.28v0c-0.729 0.334-1.364 0.661-1.422 0.734-0.080 0.107-0.102 0.5-0.102 2.002 0.007 1.027 0.036 2.002 0.066 2.162 0.058 0.26 0.036 0.347-0.226 0.867-0.642 1.268-0.926 2.362-0.999 3.877l-0.019 0.417c-0.008 0.168-0.228 0.226-0.317 0.083v0c-1.174-1.895-1.626-4.057-1.313-6.259 0.314-2.175 1.16-3.91 2.582-5.271 1.014-0.974 2.173-1.575 3.42-1.781 0.569-0.1 1.809-0.027 2.385 0.14zM18.495 5.285l0.268 0.062c0.971 0.225 1.655 1.096 1.642 2.093v0l-0.015 1.14c-0.005 0.377-0.1 0.748-0.277 1.081v0c-0.328 0.607-0.751 0.981-1.429 1.274-0.445 0.194-0.554 0.213-1.181 0.213s-0.737-0.020-1.181-0.213c-0.678-0.293-1.101-0.667-1.429-1.274v0c-0.177-0.333-0.272-0.704-0.277-1.081l-0.015-1.174-0.010-0.806c-0.007-0.578 0.325-1.106 0.849-1.349v0c0.474-0.22 0.919-0.4 0.992-0.4 0.066-0.007 0.999 0.194 2.064 0.434zM5.747 5.418c0.372 0.234 0.387 0.173-0.97 4.397l-0.589 1.829c-0.455 1.414-0.687 2.89-0.687 4.376v0 0c0 1.467 0.401 2.905 1.161 4.16l0.341 0.564c0.824 1.368 1.568 2.535 1.648 2.602 0.211 0.167 0.54 0.147 0.751-0.053v0c0.116-0.102 0.182-0.249 0.182-0.403v-6.334c0-0.154 0.066-0.301 0.182-0.403v0c0.219-0.207 0.802-0.234 1.050-0.053 0.117 0.093 0.467 1.081 1.502 4.304l0.869 2.698c0.318 0.989 0.481 2.021 0.481 3.061v0 0c0 0.865-0.703 1.566-1.568 1.563l-3.606-0.013c-1.901-0.009-3.595-1.199-4.248-2.984v0 0c-0.714-1.964-1.079-4.038-1.079-6.128v-0.861c0-2.512 0.463-5.001 1.366-7.345l0.238-0.618c1.269-3.296 1.641-4.197 1.794-4.317 0.226-0.187 0.919-0.207 1.181-0.040zM30.442 5.458c0.153 0.12 0.525 1.021 1.794 4.317l0.238 0.618c0.903 2.344 1.366 4.833 1.366 7.345v0.861c0 2.090-0.365 4.164-1.079 6.128v0 0c-0.653 1.785-2.348 2.975-4.248 2.984l-1.003 0.005-2.604 0.008c-0.865 0.003-1.568-0.698-1.568-1.563v0 0c0-1.039 0.162-2.072 0.481-3.061l0.869-2.698c1.036-3.223 1.386-4.21 1.502-4.304 0.248-0.18 0.831-0.153 1.050 0.053v0c0.116 0.102 0.182 0.249 0.182 0.403v6.334c0 0.154 0.066 0.301 0.182 0.403v0c0.211 0.2 0.54 0.22 0.751 0.053 0.080-0.067 0.824-1.234 1.648-2.602l0.341-0.564c0.759-1.255 1.161-2.693 1.161-4.16v0 0c0-1.485-0.232-2.962-0.687-4.376l-0.589-1.829c-1.357-4.224-1.342-4.163-0.97-4.397 0.263-0.167 0.955-0.147 1.181 0.040zM15.17 12.33v0c0 0.447-0.219 0.866-0.586 1.122l-0.296 0.206-0.344 0.238c-0.219 0.151-0.515-0.019-0.494-0.284v0c0.066-0.807 0.204-1.461 0.496-2.282v0c0.1-0.296 0.471-0.393 0.703-0.184l0.019 0.017c0.32 0.289 0.503 0.7 0.503 1.131v0.036zM21.070 11.329c0.284 0.821 0.423 1.481 0.489 2.282v0c0.020 0.265-0.276 0.435-0.494 0.284l-0.344-0.238-0.302-0.21c-0.364-0.253-0.581-0.668-0.581-1.111v0-0.035c0-0.428 0.18-0.837 0.496-1.126v0c0.27-0.254 0.496-0.46 0.503-0.46s0.109 0.28 0.233 0.614zM17.504 12.217c0.299 0 0.686-0.020 0.861-0.053v0c0.161-0.025 0.306 0.1 0.306 0.263v0.364c0 0.367 0.029 0.721 0.066 0.781s0.445 0.367 0.912 0.681v0c0.567 0.387 0.547 0.784-0.060 1.106-0.181 0.096-0.38 0.2-0.589 0.309v0c-0.937 0.489-2.053 0.489-2.99 0v0c-0.209-0.108-0.408-0.213-0.589-0.309-0.607-0.322-0.627-0.719-0.060-1.106v0c0.467-0.314 0.875-0.62 0.912-0.681s0.066-0.414 0.066-0.781v-0.357c0-0.167 0.148-0.295 0.314-0.27v0c0.168 0.033 0.554 0.053 0.853 0.053zM15.542 16.647c0.985 0.514 1.867 0.941 1.962 0.941s0.999-0.44 2.020-0.974c1.021-0.534 1.867-0.961 1.882-0.947s-0.073 0.32-0.19 0.687c-0.226 0.714-0.226 0.887 0.022 1.101 0.321 0.274 0.547 0.187 1.203-0.434 0.328-0.314 0.656-0.661 0.729-0.767 0.066-0.113 0.168-0.2 0.211-0.2 0.248 0 0.985 1.048 0.992 1.394 0 0.093-0.27 0.994-0.591 1.995-0.328 1.001-0.591 1.835-0.591 1.848 0 0.020-2.56 0.033-5.689 0.033s-5.689-0.013-5.689-0.033c0-0.013-0.263-0.847-0.591-1.848-0.321-1.001-0.591-1.902-0.591-1.995 0.007-0.36 0.744-1.394 0.992-1.394 0.044 0 0.168 0.113 0.27 0.254 0.109 0.14 0.416 0.467 0.678 0.727 0.54 0.534 0.802 0.64 1.109 0.454 0.343-0.2 0.365-0.36 0.146-1.054-0.197-0.647-0.226-0.807-0.131-0.761 0.029 0.013 0.861 0.454 1.845 0.974zM13.419 29.865v0c0 0.59-0.478 1.067-1.068 1.067h-9.534c-0.59 0-1.068-0.478-1.068-1.067v0 0c0-0.59 0.478-1.068 1.068-1.068h9.534c0.59 0 1.068 0.478 1.068 1.068v0zM33.257 29.865v0c0 0.59-0.478 1.067-1.068 1.067h-9.534c-0.59 0-1.068-0.478-1.068-1.067v0 0c0-0.59 0.478-1.068 1.068-1.068h9.534c0.59 0 1.068 0.478 1.068 1.068v0z"></path>
<path d="M15.754 6.913v0c0 0.295 0.239 0.534 0.534 0.534h0.099c0.295 0 0.534-0.239 0.534-0.534v0 0c0-0.295-0.239-0.534-0.534-0.534h-0.099c-0.295 0-0.534 0.239-0.534 0.534v0z"></path>
<path d="M18.089 6.913v0c0 0.295 0.239 0.534 0.534 0.534h0.099c0.295 0 0.534-0.239 0.534-0.534v0 0c0-0.295-0.239-0.534-0.534-0.534h-0.099c-0.295 0-0.534 0.239-0.534 0.534v0z"></path>
</symbol>
<symbol id="icon-teacher" viewBox="0 0 29 32">
<path d="M13.044 0.048c-1.063 0.162-2.319 0.647-3.214 1.243-0.599 0.398-1.43 1.2-1.842 1.778-0.644 0.901-1.127 2.095-1.282 3.158-0.045 0.317-0.071 2.736-0.071 7.131v6.646h-0.966c-0.947 0-0.979 0.006-1.127 0.155-0.303 0.286-0.238 0.41 0.625 1.256 0.663 0.647 0.76 0.765 0.625 0.765-0.541 0-1.198 0.473-1.34 0.964-0.090 0.317-0.090 0.864 0 1.181 0.090 0.323 0.58 0.783 0.934 0.889 0.386 0.106 17.054 0.112 17.441 0 0.348-0.099 0.824-0.56 0.927-0.895 0.206-0.678 0.039-1.386-0.431-1.778l-0.309-0.249 1.539-2.698c0.902-1.579 1.533-2.76 1.533-2.854s-0.032-0.218-0.064-0.28c-0.058-0.099-0.006-0.162 0.296-0.398 0.193-0.155 0.528-0.373 0.741-0.479 0.489-0.255 0.844-0.584 1.069-1.001 0.148-0.28 0.174-0.404 0.174-0.827 0-0.417-0.026-0.547-0.168-0.808-0.238-0.441-0.502-0.659-1.34-1.1l-0.741-0.398-0.032-4.526-0.032-4.526-0.155-0.118c-0.206-0.162-0.431-0.149-0.618 0.037l-0.161 0.149v8.71h-0.27c-0.605 0-1.256 0.473-1.565 1.138-0.155 0.317-0.174 0.423-0.155 0.933 0.039 1.355 0.006 1.536-0.251 1.536-0.103 0-0.232 0.037-0.29 0.075-0.058 0.044-0.296 0.417-0.528 0.827l-0.419 0.746v-4.862c0-3.115-0.026-5.030-0.071-5.34-0.219-1.542-0.979-3.003-2.132-4.116-0.953-0.92-2.17-1.592-3.465-1.909-0.76-0.186-2.158-0.261-2.866-0.155zM15.717 1.124c1.179 0.292 2.19 0.864 3.033 1.704 0.824 0.814 1.34 1.691 1.655 2.816l0.174 0.591 0.019 4.364 0.019 4.371-0.502-0.485c-0.277-0.267-0.708-0.603-0.966-0.752-0.496-0.28-1.494-0.628-1.823-0.628-0.187 0-0.174-0.019 0.399-0.578 0.792-0.758 1.153-1.362 1.449-2.412 0.174-0.597 0.167-3.494 0-4.128-0.509-1.859-2.080-3.326-3.987-3.699-0.792-0.162-1.211-0.162-1.385 0-0.135 0.118-0.155 0.193-0.245 0.982-0.090 0.765-0.535 1.61-1.198 2.244-0.708 0.684-1.604 1.107-2.473 1.169-0.592 0.037-0.831 0.118-0.927 0.292-0.129 0.224-0.058 2.686 0.084 3.171 0.303 1.038 0.663 1.629 1.443 2.381 0.573 0.56 0.586 0.578 0.399 0.578-0.328 0-1.327 0.348-1.823 0.628-0.258 0.149-0.689 0.485-0.966 0.752l-0.502 0.485 0.019-4.371 0.019-4.364 0.174-0.591c0.328-1.163 0.908-2.126 1.771-2.928 1.314-1.237 2.885-1.828 4.721-1.772 0.58 0.019 0.979 0.068 1.417 0.18zM15.652 3.387c0.998 0.385 1.758 1.057 2.222 1.971 0.438 0.852 0.496 1.225 0.47 2.928-0.026 1.355-0.032 1.455-0.193 1.902-0.47 1.299-1.404 2.201-2.75 2.655-0.432 0.143-0.592 0.162-1.294 0.162s-0.863-0.019-1.294-0.162c-1.34-0.454-2.286-1.355-2.737-2.63-0.161-0.441-0.18-0.609-0.206-1.523l-0.026-1.026 0.541-0.106c2.080-0.417 3.665-1.94 4.090-3.942l0.11-0.504 0.322 0.062c0.18 0.031 0.515 0.124 0.747 0.211zM25.384 12.172c0.122 0.068 0.122 0.075-0.019 0.329-0.122 0.218-0.148 0.361-0.148 0.821 0 0.671 0.129 0.989 0.586 1.461 0.167 0.168 0.27 0.311 0.238 0.311-0.039 0-0.27 0.18-0.522 0.404l-0.451 0.404-0.593-0.317c-0.547-0.298-0.586-0.336-0.554-0.485 0.11-0.485 0.161-1.144 0.116-1.542-0.058-0.479 0.019-0.92 0.187-1.113 0.251-0.298 0.844-0.435 1.159-0.274zM27.103 13.123c0.316 0.28 0.341 0.877 0.052 1.206l-0.148 0.162-0.238-0.137c-0.541-0.323-0.76-0.926-0.528-1.461l0.103-0.236 0.303 0.168c0.174 0.093 0.374 0.23 0.457 0.298zM15.266 14.516c-0.219 0.305-0.56 0.777-0.76 1.057-0.206 0.28-0.38 0.51-0.399 0.51s-0.193-0.23-0.399-0.51c-0.2-0.28-0.541-0.752-0.76-1.057l-0.393-0.541h3.104l-0.393 0.541zM11.144 15.56v1.529l0.161 0.149 0.155 0.155h5.294l0.155-0.155 0.161-0.149v-3.071l0.283 0.037c0.747 0.1 1.784 0.69 2.312 1.318 0.58 0.696 0.94 1.629 0.947 2.431 0 0.28-0.058 0.423-0.535 1.256l-0.528 0.945h-0.676v-0.796c0-1.094-0.103-1.374-0.515-1.374s-0.515 0.28-0.515 1.374v0.796h-0.889c-1.32 0-1.848 0.162-2.499 0.771l-0.348 0.323-0.348-0.323c-0.65-0.609-1.179-0.771-2.499-0.771h-0.889v-0.796c0-1.094-0.103-1.374-0.515-1.374s-0.515 0.28-0.515 1.374v0.796h-1.739v-1.262c0-1.772 0.168-2.4 0.876-3.283 0.567-0.715 1.784-1.405 2.492-1.418l0.174-0.006v1.523zM12.677 15.765c0.258 0.348 0.464 0.653 0.464 0.665 0 0.019-0.232 0.031-0.515 0.031h-0.515v-0.727c0-0.398 0.026-0.703 0.052-0.671 0.032 0.037 0.264 0.348 0.515 0.703zM16.103 15.747v0.715h-0.522c-0.283 0-0.509-0.025-0.496-0.050 0.032-0.075 0.979-1.38 0.998-1.38 0.013 0 0.019 0.323 0.019 0.715zM24.025 16.406l0.953 0.504-0.219 0.386c-0.122 0.205-0.258 0.441-0.296 0.516-0.039 0.081-0.097 0.143-0.135 0.143-0.077 0-1.842-0.933-1.881-0.995-0.045-0.068 0.489-1.057 0.573-1.057 0.026 0 0.483 0.23 1.005 0.504zM23.432 18.575c0.219 0.118 0.399 0.242 0.399 0.28-0.006 0.031-0.142 0.305-0.309 0.603l-0.303 0.547h-1.269c-0.702 0-1.275-0.012-1.275-0.031s0.277-0.522 0.618-1.119l0.618-1.088 0.56 0.292c0.303 0.162 0.734 0.392 0.96 0.516zM12.303 21c0.38 0.099 0.824 0.416 1.030 0.727 0.11 0.162 0.193 0.33 0.193 0.373 0 0.062-0.2 0.081-0.869 0.081-0.844 0-0.882 0.006-1.030 0.155-0.206 0.193-0.206 0.429 0 0.622 0.148 0.149 0.187 0.155 1.063 0.155h0.902v1.243h-7.928l-0.155-0.155c-0.129-0.118-0.161-0.211-0.161-0.466s0.032-0.348 0.161-0.466c0.148-0.149 0.18-0.155 1.127-0.155s0.979-0.006 1.127-0.155c0.090-0.081 0.161-0.224 0.161-0.311 0-0.199-0.264-0.466-0.464-0.466-0.103 0-0.348-0.193-0.792-0.622l-0.644-0.622h3.027c1.784 0 3.124 0.025 3.252 0.062zM22.376 21.479c-0.168 0.305-0.335 0.584-0.367 0.622-0.090 0.118-7.323 0.118-7.323 0 0-0.162 0.386-0.665 0.638-0.827 0.528-0.329 0.496-0.329 4.051-0.336h3.304l-0.303 0.541zM22.705 23.269c0.129 0.118 0.161 0.211 0.161 0.466s-0.032 0.348-0.161 0.466l-0.155 0.155h-7.928v-1.243h7.928l0.155 0.155z"></path>
<path d="M9.369 22.337c-0.090 0.081-0.161 0.224-0.161 0.311s0.071 0.23 0.161 0.311c0.084 0.087 0.232 0.155 0.322 0.155s0.238-0.068 0.322-0.155c0.090-0.081 0.161-0.224 0.161-0.311s-0.071-0.23-0.161-0.311c-0.084-0.087-0.232-0.155-0.322-0.155s-0.238 0.068-0.322 0.155z"></path>
<path d="M0.167 24.488l-0.167 0.124v2.599l0.167 0.124c0.155 0.118 0.258 0.131 1.063 0.131h0.895v4.047l0.161 0.149 0.155 0.155h23.327l0.155-0.155 0.161-0.149v-4.047h1.024c1.43 0 1.327 0.118 1.327-1.554 0-1.703 0.155-1.554-1.655-1.554-1.34 0-1.346 0-1.501 0.155-0.206 0.193-0.206 0.429 0 0.622 0.155 0.149 0.18 0.155 1.191 0.155h1.030v1.243h-26.534v-1.243h0.902c0.876 0 0.915-0.006 1.063-0.155 0.090-0.081 0.161-0.224 0.161-0.311s-0.071-0.23-0.161-0.311c-0.155-0.155-0.167-0.155-1.372-0.155-1.133 0-1.23 0.006-1.391 0.131zM25.117 29.175v1.71h-22.026v-3.419h22.026v1.71z"></path>
</symbol>
<symbol id="icon-house" viewBox="0 0 34 32">
<path d="M16.363 1.887v0c0 1.196-0.547 2.327-1.485 3.069l-13.317 10.54c-0.176 0.139-0.082 0.422 0.142 0.429v0l0.463 0.013c0.119 0.003 0.22 0.089 0.243 0.206v0c0.020 0.113 0.079 0.55 0.132 0.981 0.059 0.431 0.119 0.819 0.132 0.856 0.020 0.050 0.152 0.081 0.363 0.081v0c0.182 0 0.33 0.148 0.33 0.33v6.057c0 0.201-0.163 0.363-0.363 0.363v0c-0.244 0-0.363 0.025-0.363 0.075 0 0.044-0.059 0.519-0.132 1.050-0.031 0.23-0.060 0.442-0.083 0.609-0.028 0.202-0.208 0.348-0.412 0.341v0 0c-0.196-0.014-0.363 0.142-0.363 0.339v0.956c0 0.444-0.362 0.802-0.805 0.799v0 0c-0.448-0.007-0.817 0.351-0.823 0.799l-0.009 0.701c-0.007 0.837 0.669 1.519 1.506 1.519h30.776c0.828 0 1.5-0.672 1.5-1.5v0-0.642c0-0.474-0.384-0.858-0.858-0.858v0 0c-0.474 0-0.858-0.384-0.858-0.858v-0.881c0-0.179-0.145-0.323-0.323-0.323v0c-0.257 0-0.337-0.025-0.363-0.113-0.013-0.056-0.086-0.537-0.145-1.062l-0.075-0.603c-0.025-0.198-0.193-0.347-0.393-0.347v0 0c-0.193 0-0.35-0.157-0.35-0.35v-6.044c0-0.196 0.154-0.359 0.35-0.369v0 0c0.199-0.011 0.362-0.162 0.387-0.36l0.088-0.69 0.046-0.356c0.050-0.39 0.373-0.688 0.766-0.706v0 0c0.235-0.011 0.331-0.308 0.146-0.454l-14.662-11.609c-0.123-0.097-0.189-0.249-0.177-0.406v0 0c0.011-0.142 0.129-0.251 0.271-0.253l1.621-0.017c0.882-0.006 1.594-0.723 1.594-1.605v0 0c0-0.88-0.714-1.594-1.594-1.594h-1.007c-1.044 0-1.89 0.844-1.894 1.887v0zM19.867 1.594v0c0 0.362-0.294 0.656-0.656 0.656h-1.196c-0.362 0-0.656-0.294-0.656-0.656v0 0c0-0.362 0.294-0.656 0.656-0.656h1.196c0.362 0 0.656 0.294 0.656 0.656v0zM23.524 9.813c1.961 1.552 3.726 2.955 4.909 3.901 1.021 0.816 0.87 1.257-0.437 1.265-2.317 0.014-6.453 0.022-11.145 0.022l-12.873-0.006c-0.080-0-0.114-0.102-0.050-0.15v0c0.112-0.087 3.063-2.425 6.567-5.206 5.393-4.281 6.389-5.044 6.482-4.988 0.059 0.037 3.003 2.363 6.548 5.163zM7.168 16.325c-0.026 0.219-0.059 0.487-0.086 0.6v0c-0.019 0.115-0.119 0.199-0.236 0.199l-1.56-0.011-1.472-0.016c-0.163-0.002-0.301-0.123-0.324-0.284v0c-0.020-0.156-0.059-0.413-0.079-0.581v0c-0.024-0.154 0.095-0.294 0.251-0.294h3.16c0.208 0 0.369 0.181 0.344 0.388v0zM10.125 16.888c0.059 0.525 0.132 1.006 0.145 1.062 0.026 0.088 0.106 0.113 0.363 0.113v0c0.179 0 0.323 0.145 0.323 0.323v6.077c0 0.193-0.151 0.352-0.343 0.362v0 0c-0.203 0.011-0.369 0.165-0.394 0.366l-0.088 0.684-0.019 0.147c-0.065 0.505-0.495 0.884-1.004 0.884v0 0c-0.509 0-0.939-0.379-1.004-0.884l-0.019-0.147-0.088-0.684c-0.026-0.201-0.192-0.355-0.394-0.366v0 0c-0.192-0.010-0.343-0.17-0.343-0.362v-6.077c0-0.179 0.145-0.323 0.323-0.323v0c0.257 0 0.337-0.025 0.363-0.113 0.013-0.056 0.086-0.537 0.145-1.062l0.007-0.059c0.064-0.509 0.496-0.891 1.009-0.891v0 0c0.513 0 0.945 0.382 1.009 0.891l0.007 0.059zM14.811 16.137c-0.020 0.113-0.053 0.375-0.079 0.581v0c-0.026 0.215-0.208 0.377-0.424 0.379l-1.378 0.015-1.56 0.011c-0.117 0.001-0.217-0.083-0.236-0.199v0c-0.026-0.113-0.059-0.381-0.086-0.6v0c-0.025-0.206 0.136-0.387 0.344-0.387h3.248c0.106 0 0.187 0.095 0.17 0.2v0zM17.953 15.981c0 0.031 0.059 0.488 0.132 1.019s0.132 0.987 0.132 1.012c0 0.031 0.165 0.050 0.363 0.050v0c0.2 0 0.362 0.163 0.362 0.363l-0.012 2.993-0.018 3.019c-0.001 0.193-0.152 0.352-0.345 0.362v0c-0.389 0.019-0.337-0.113-0.515 1.256-0.059 0.431-0.119 0.8-0.139 0.831-0.026 0.044-2.073 0.075-2.073 0.031 0-0.006-0.059-0.45-0.132-0.981s-0.132-1.006-0.132-1.050c0-0.050-0.119-0.075-0.363-0.075v0c-0.201 0-0.363-0.163-0.363-0.363v-6.057c0-0.182 0.148-0.33 0.33-0.33v0c0.211 0 0.343-0.031 0.363-0.081 0.013-0.037 0.073-0.425 0.132-0.856 0.053-0.431 0.112-0.875 0.132-0.988v0c0.023-0.116 0.125-0.2 0.244-0.2h0.846c0.581 0 1.056 0.019 1.056 0.044zM22.732 16.312c-0.026 0.206-0.066 0.469-0.086 0.581v0c-0.027 0.117-0.131 0.2-0.251 0.2h-3.075c-0.12 0-0.224-0.083-0.251-0.2v0c-0.020-0.113-0.059-0.375-0.086-0.581v0c-0.025-0.199 0.131-0.375 0.332-0.375h3.086c0.201 0 0.356 0.176 0.332 0.375v0zM24.653 15.938c0.573 0 0.941 0.334 1.020 0.902 0.007 0.052 0.015 0.106 0.022 0.161l0.096 0.684c0.028 0.202 0.195 0.355 0.399 0.366v0 0c0.192 0.010 0.343 0.17 0.343 0.362v6.050c0 0.193-0.157 0.35-0.35 0.35v0 0c-0.204 0-0.375 0.152-0.401 0.354l-0.068 0.54c-0.059 0.488-0.125 0.962-0.145 1.056v0c-0.023 0.102-0.114 0.175-0.219 0.175h-0.672c-0.627 0-0.865-0.019-0.884-0.081-0.013-0.037-0.073-0.425-0.132-0.856-0.165-1.294-0.119-1.181-0.515-1.2v0c-0.193-0.011-0.344-0.169-0.345-0.362l-0.018-3.019-0.012-2.993c-0.001-0.2 0.161-0.363 0.362-0.363v0c0.198 0 0.363-0.006 0.363-0.019 0-0.006 0.059-0.45 0.132-0.981s0.132-1.006 0.132-1.050c0-0.056 0.224-0.075 0.891-0.075v0zM30.336 16.387c-0.026 0.25-0.066 0.519-0.086 0.594v0c-0.019 0.084-0.094 0.144-0.18 0.144h-1.595c-0.439 0-0.842-0.001-1.15-0.004-0.394-0.003-0.628-0.219-0.685-0.609v0 0c-0.042-0.304 0.194-0.575 0.501-0.575h2.789c0.242 0 0.431 0.209 0.406 0.45v0zM6.257 21.419l-0.014 2.425c-0.003 0.522-0.421 0.946-0.943 0.956v0 0c-0.518 0.010-0.944-0.407-0.944-0.925v-4.855c0-0.529 0.428-0.957 0.957-0.957v0 0c0.528 0 0.955 0.429 0.953 0.957l-0.009 2.399zM13.861 21.438v2.444c0 0.515-0.423 0.929-0.937 0.919v0 0c-0.525-0.010-0.946-0.438-0.949-0.963l-0.014-2.418-0.009-2.399c-0.002-0.528 0.425-0.957 0.953-0.957v0 0c0.529 0 0.957 0.428 0.957 0.957v2.418zM21.782 21.438v2.451c0 0.51-0.414 0.924-0.924 0.924v0 0c-0.51 0-0.924-0.414-0.924-0.924v-4.902c0-0.51 0.414-0.924 0.924-0.924v0 0c0.51 0 0.924 0.414 0.924 0.924v2.451zM29.425 21.419l-0.014 2.438c-0.003 0.511-0.418 0.924-0.93 0.924v0 0c-0.511 0-0.927-0.413-0.93-0.924l-0.014-2.438-0.009-2.399c-0.002-0.528 0.425-0.957 0.953-0.957v0 0c0.528 0 0.955 0.429 0.953 0.957l-0.009 2.399zM7.089 25.887c0.020 0.113 0.053 0.394 0.079 0.625v0c0.025 0.227-0.153 0.425-0.381 0.425h-1.46c-0.278 0-0.543-0.001-0.784-0.004-0.755-0.008-1.234-0.45-1.012-1.171v0c0.020-0.056 0.436-0.075 1.776-0.075h1.539c0.119 0 0.221 0.084 0.244 0.2v0zM14.759 26.281c0.040 0.306 0.059 0.581 0.046 0.606-0.013 0.031-0.878 0.050-1.914 0.050h-1.46c-0.228 0-0.406-0.198-0.381-0.425v0c0.026-0.231 0.059-0.512 0.079-0.625v0c0.023-0.116 0.125-0.199 0.243-0.199l1.558 0.011 1.189 0.013c0.325 0.003 0.598 0.246 0.64 0.569v0zM22.646 25.931c0.026 0.113 0.066 0.387 0.092 0.606v0c0.025 0.213-0.142 0.4-0.356 0.4h-1.518c-1.135 0-1.921-0.025-1.921-0.056 0-0.113 0.139-1.038 0.165-1.119 0.026-0.063 0.409-0.075 1.762-0.063l1.512 0.016c0.127 0.001 0.237 0.091 0.264 0.215v0zM30.25 25.825c0.020 0.081 0.059 0.362 0.086 0.625v0c0.025 0.261-0.181 0.487-0.443 0.487h-1.392c-0.563 0-1.073-0.004-1.424-0.010-0.321-0.006-0.492-0.097-0.46-0.416v0c0.048-0.477 0.36-0.819 0.839-0.821 0.288-0.002 0.64-0.003 1.019-0.003h1.601c0.083 0 0.155 0.057 0.174 0.137v0zM31.088 28.406v0c0 0.328-0.266 0.594-0.594 0.594h-27.304c-0.304 0-0.55-0.246-0.55-0.55v0 0c0-0.397 0.244-0.602 0.641-0.607 1.761-0.018 7.223-0.031 13.629-0.031h13.584c0.328 0 0.594 0.266 0.594 0.594v0zM32.791 30.481v0c0.011 0.318-0.244 0.581-0.562 0.581h-30.646c-0.328 0-0.594-0.266-0.594-0.594v0 0c0-0.328 0.266-0.594 0.594-0.593l30.612 0.030c0.321 0 0.584 0.255 0.595 0.576v0z"></path>
<path d="M11.762 9.925l-1.089 0.864c-1.328 1.054-0.587 3.192 1.108 3.199v0c2.812 0.006 7.412 0.006 10.224 0v0c1.693-0.006 2.433-2.141 1.106-3.194l-1.080-0.856c-2.799-2.219-5.109-4.037-5.129-4.044s-2.337 1.806-5.142 4.031zM20.66 10.075l0.796 0.631c0.973 0.771 0.432 2.337-0.81 2.344v0c-2.053 0.006-5.432 0.006-7.498 0v0c-1.246-0.006-1.789-1.578-0.813-2.352l0.786-0.623c2.046-1.619 3.749-2.95 3.769-2.95 0.026 0 1.723 1.331 3.769 2.95z"></path>
<path d="M15.577 10.844v0c0 0.259 0.21 0.469 0.469 0.469h0.053c0.259 0 0.469-0.21 0.469-0.469v0 0c0-0.259-0.21-0.469-0.469-0.469h-0.053c-0.259 0-0.469 0.21-0.469 0.469v0z"></path>
<path d="M17.227 10.844v0c0 0.259 0.21 0.469 0.469 0.469h0.053c0.259 0 0.469-0.21 0.469-0.469v0 0c0-0.259-0.21-0.469-0.469-0.469h-0.053c-0.259 0-0.469 0.21-0.469 0.469v0z"></path>
<path d="M3.63 8.688v3.087c0 0.263 0.219 0.474 0.482 0.463v0 0c0.266-0.010 0.477-0.228 0.478-0.494l0.017-2.606c0.007-1.7 1.388-3.075 3.088-3.075h4.311c0.259 0 0.469-0.21 0.469-0.469v0 0c0-0.259-0.21-0.469-0.469-0.469h-4.813c-1.968 0-3.563 1.595-3.563 3.563v0z"></path>
<path d="M21.32 5.594v0c0 0.259 0.21 0.469 0.469 0.469h4.311c1.7 0 3.081 1.375 3.088 3.075v0l0.017 2.599c0.002 0.27 0.215 0.49 0.485 0.501v0 0c0.259 0.010 0.475-0.197 0.475-0.457v-3.093c0-1.968-1.595-3.563-3.563-3.563h-4.813c-0.259 0-0.469 0.21-0.469 0.469v0z"></path>
</symbol>
</defs>
</svg>
