<svg aria-hidden="true" style="position: absolute; width: 0; height: 0; overflow: hidden;" version="1.1" xmlns="http://www.w3.org/2000/svg" xmlns:xlink="http://www.w3.org/1999/xlink">
<defs>
<symbol id="icon-book" viewBox="0 0 32 32">
<path d="M8.957 2.739c-3.826 1.592-6.637 2.797-6.729 2.889-0.197 0.183-0.223 0.57-0.052 0.78 0.072 0.092 1.16 0.577 2.903 1.304l2.785 1.166 0.020 3.027 0.013 3.027h-2.765c-1.704 0-2.863 0.026-3.014 0.065-0.465 0.131-0.446-0.020-0.446 3.708v3.354l-0.655 0.026c-0.609 0.020-0.662 0.033-0.832 0.203l-0.183 0.177v8.582l0.183 0.177 0.177 0.183h27.093l0.524-0.151c1.251-0.36 2.254-1.153 2.883-2.273 0.642-1.153 0.727-2.745 0.21-3.996-0.452-1.088-1.546-2.188-2.516-2.529-0.256-0.085-0.262-0.124-0.079-0.295 0.216-0.19 0.681-0.812 0.832-1.114 0.072-0.144 0.203-0.472 0.288-0.721 0.197-0.59 0.21-1.69 0.026-2.286-0.36-1.179-1.127-2.116-2.169-2.621-0.734-0.36-1.101-0.432-2.568-0.472l-1.33-0.039v-6.040l2.182-0.898c1.192-0.498 2.228-0.917 2.287-0.943 0.098-0.033 0.111 0.098 0.131 1.566 0.020 1.592 0.020 1.612 0.177 1.775 0.085 0.092 0.236 0.183 0.341 0.203 0.21 0.046 0.544-0.105 0.649-0.288 0.039-0.085 0.066-0.937 0.066-2.293 0-2.149 0-2.162-0.144-2.326-0.111-0.124-1.92-0.911-6.755-2.922-3.636-1.513-6.69-2.752-6.781-2.745-0.098 0-3.132 1.232-6.749 2.738zM21.353 3.603l4.311 1.795-5.117 0.033c-5.052 0.033-5.117 0.033-5.248 0.17-0.072 0.072-0.151 0.236-0.17 0.367-0.033 0.197-0.007 0.269 0.157 0.452l0.197 0.223 10.090 0.066-9.854 4.108-5.72-2.385c-3.689-1.533-5.681-2.398-5.628-2.431 0.046-0.033 2.621-1.114 5.72-2.404l5.628-2.345 0.662 0.275c0.36 0.157 2.595 1.088 4.973 2.077zM12.357 10.751c1.848 0.767 3.256 1.317 3.368 1.317 0.111-0.007 1.618-0.596 3.355-1.323 1.743-0.727 3.178-1.317 3.197-1.317s0.033 1.277 0.033 2.843c0 2.653-0.007 2.85-0.111 2.883-0.066 0.020-1.533 0.432-3.263 0.924l-3.145 0.891-6.716-1.861v-2.843c0-1.612 0.026-2.837 0.059-2.837s1.481 0.596 3.224 1.323zM11.997 17.191c2.012 0.557 3.715 1.015 3.781 1.015 0.072 0 0.885-0.21 1.802-0.472 1.245-0.347 1.69-0.452 1.776-0.4 0.19 0.118 0.511 0.839 0.596 1.317 0.197 1.166-0.354 2.378-1.369 2.987-0.74 0.452-0.36 0.432-8.439 0.432h-7.293v-2.286l4.311-0.020c4.645-0.020 4.501-0.013 4.659-0.36 0.118-0.262 0.085-0.478-0.118-0.681l-0.19-0.19h-8.662v-2.359h5.491l3.656 1.015zM26.045 16.247c1.71 0.269 2.824 1.959 2.392 3.616-0.138 0.544-0.328 0.871-0.727 1.291-0.393 0.413-0.793 0.655-1.337 0.812-0.314 0.092-0.773 0.105-3.335 0.092l-2.968-0.020 0.262-0.328c0.97-1.219 1.16-2.961 0.491-4.357-0.098-0.197-0.177-0.387-0.177-0.426-0.007-0.033 0.524-0.216 1.173-0.4l1.179-0.341 1.31-0.007c0.721 0 1.5 0.026 1.736 0.065zM15.751 23.415c1.153 0.275 2.182 1.251 2.523 2.391 0.138 0.459 0.138 1.441 0 1.9-0.341 1.14-1.369 2.116-2.523 2.391-0.36 0.085-1.415 0.098-7.476 0.098h-7.063v-1.441l6.736-0.007c5.032 0 6.788-0.020 6.958-0.079 0.446-0.151 0.55-0.76 0.177-1.042-0.138-0.105-0.603-0.118-7.004-0.118h-6.867v-1.507h3.82c4.213 0 4.030 0.020 4.174-0.419 0.092-0.275 0.007-0.511-0.242-0.675-0.164-0.111-0.446-0.118-3.964-0.138l-3.787-0.020v-1.435h7.063c6.061 0 7.116 0.013 7.476 0.098zM27.545 23.415c1.153 0.275 2.182 1.251 2.523 2.391 0.138 0.459 0.138 1.441 0 1.9-0.341 1.14-1.369 2.116-2.523 2.391-0.354 0.079-1.134 0.098-4.894 0.098h-4.482l0.262-0.314c0.459-0.544 0.78-1.107 0.97-1.697 0.17-0.518 0.19-0.668 0.19-1.428s-0.020-0.911-0.19-1.428c-0.19-0.59-0.511-1.153-0.97-1.703l-0.262-0.308h4.482c3.761 0 4.541 0.020 4.894 0.098z"></path>
<path d="M11.164 24.908c-0.151 0.111-0.256 0.341-0.256 0.537 0 0.256 0.328 0.557 0.609 0.557 0.505 0 0.773-0.655 0.406-1.015-0.177-0.183-0.577-0.223-0.76-0.079z"></path>
<path d="M28.378 12.015c-0.131 0.118-0.17 0.223-0.17 0.426 0 0.36 0.223 0.59 0.57 0.59 0.564-0.007 0.813-0.596 0.419-0.989-0.249-0.249-0.57-0.256-0.819-0.026z"></path>
</symbol>
<symbol id="icon-teacher" viewBox="0 0 29 32">
<path d="M13.044 0.048c-1.063 0.162-2.319 0.647-3.214 1.243-0.599 0.398-1.43 1.2-1.842 1.778-0.644 0.901-1.127 2.095-1.282 3.158-0.045 0.317-0.071 2.736-0.071 7.131v6.646h-0.966c-0.947 0-0.979 0.006-1.127 0.155-0.303 0.286-0.238 0.41 0.625 1.256 0.663 0.647 0.76 0.765 0.625 0.765-0.541 0-1.198 0.473-1.34 0.964-0.090 0.317-0.090 0.864 0 1.181 0.090 0.323 0.58 0.783 0.934 0.889 0.386 0.106 17.054 0.112 17.441 0 0.348-0.099 0.824-0.56 0.927-0.895 0.206-0.678 0.039-1.386-0.431-1.778l-0.309-0.249 1.539-2.698c0.902-1.579 1.533-2.76 1.533-2.854s-0.032-0.218-0.064-0.28c-0.058-0.099-0.006-0.162 0.296-0.398 0.193-0.155 0.528-0.373 0.741-0.479 0.489-0.255 0.844-0.584 1.069-1.001 0.148-0.28 0.174-0.404 0.174-0.827 0-0.417-0.026-0.547-0.168-0.808-0.238-0.441-0.502-0.659-1.34-1.1l-0.741-0.398-0.032-4.526-0.032-4.526-0.155-0.118c-0.206-0.162-0.431-0.149-0.618 0.037l-0.161 0.149v8.71h-0.27c-0.605 0-1.256 0.473-1.565 1.138-0.155 0.317-0.174 0.423-0.155 0.933 0.039 1.355 0.006 1.536-0.251 1.536-0.103 0-0.232 0.037-0.29 0.075-0.058 0.044-0.296 0.417-0.528 0.827l-0.419 0.746v-4.862c0-3.115-0.026-5.030-0.071-5.34-0.219-1.542-0.979-3.003-2.132-4.116-0.953-0.92-2.17-1.592-3.465-1.909-0.76-0.186-2.158-0.261-2.866-0.155zM15.717 1.124c1.179 0.292 2.19 0.864 3.033 1.704 0.824 0.814 1.34 1.691 1.655 2.816l0.174 0.591 0.019 4.364 0.019 4.371-0.502-0.485c-0.277-0.267-0.708-0.603-0.966-0.752-0.496-0.28-1.494-0.628-1.823-0.628-0.187 0-0.174-0.019 0.399-0.578 0.792-0.758 1.153-1.362 1.449-2.412 0.174-0.597 0.167-3.494 0-4.128-0.509-1.859-2.080-3.326-3.987-3.699-0.792-0.162-1.211-0.162-1.385 0-0.135 0.118-0.155 0.193-0.245 0.982-0.090 0.765-0.535 1.61-1.198 2.244-0.708 0.684-1.604 1.107-2.473 1.169-0.592 0.037-0.831 0.118-0.927 0.292-0.129 0.224-0.058 2.686 0.084 3.171 0.303 1.038 0.663 1.629 1.443 2.381 0.573 0.56 0.586 0.578 0.399 0.578-0.328 0-1.327 0.348-1.823 0.628-0.258 0.149-0.689 0.485-0.966 0.752l-0.502 0.485 0.019-4.371 0.019-4.364 0.174-0.591c0.328-1.163 0.908-2.126 1.771-2.928 1.314-1.237 2.885-1.828 4.721-1.772 0.58 0.019 0.979 0.068 1.417 0.18zM15.652 3.387c0.998 0.385 1.758 1.057 2.222 1.971 0.438 0.852 0.496 1.225 0.47 2.928-0.026 1.355-0.032 1.455-0.193 1.902-0.47 1.299-1.404 2.201-2.75 2.655-0.432 0.143-0.592 0.162-1.294 0.162s-0.863-0.019-1.294-0.162c-1.34-0.454-2.286-1.355-2.737-2.63-0.161-0.441-0.18-0.609-0.206-1.523l-0.026-1.026 0.541-0.106c2.080-0.417 3.665-1.94 4.090-3.942l0.11-0.504 0.322 0.062c0.18 0.031 0.515 0.124 0.747 0.211zM25.384 12.172c0.122 0.068 0.122 0.075-0.019 0.329-0.122 0.218-0.148 0.361-0.148 0.821 0 0.671 0.129 0.989 0.586 1.461 0.167 0.168 0.27 0.311 0.238 0.311-0.039 0-0.27 0.18-0.522 0.404l-0.451 0.404-0.593-0.317c-0.547-0.298-0.586-0.336-0.554-0.485 0.11-0.485 0.161-1.144 0.116-1.542-0.058-0.479 0.019-0.92 0.187-1.113 0.251-0.298 0.844-0.435 1.159-0.274zM27.103 13.123c0.316 0.28 0.341 0.877 0.052 1.206l-0.148 0.162-0.238-0.137c-0.541-0.323-0.76-0.926-0.528-1.461l0.103-0.236 0.303 0.168c0.174 0.093 0.374 0.23 0.457 0.298zM15.266 14.516c-0.219 0.305-0.56 0.777-0.76 1.057-0.206 0.28-0.38 0.51-0.399 0.51s-0.193-0.23-0.399-0.51c-0.2-0.28-0.541-0.752-0.76-1.057l-0.393-0.541h3.104l-0.393 0.541zM11.144 15.56v1.529l0.161 0.149 0.155 0.155h5.294l0.155-0.155 0.161-0.149v-3.071l0.283 0.037c0.747 0.1 1.784 0.69 2.312 1.318 0.58 0.696 0.94 1.629 0.947 2.431 0 0.28-0.058 0.423-0.535 1.256l-0.528 0.945h-0.676v-0.796c0-1.094-0.103-1.374-0.515-1.374s-0.515 0.28-0.515 1.374v0.796h-0.889c-1.32 0-1.848 0.162-2.499 0.771l-0.348 0.323-0.348-0.323c-0.65-0.609-1.179-0.771-2.499-0.771h-0.889v-0.796c0-1.094-0.103-1.374-0.515-1.374s-0.515 0.28-0.515 1.374v0.796h-1.739v-1.262c0-1.772 0.168-2.4 0.876-3.283 0.567-0.715 1.784-1.405 2.492-1.418l0.174-0.006v1.523zM12.677 15.765c0.258 0.348 0.464 0.653 0.464 0.665 0 0.019-0.232 0.031-0.515 0.031h-0.515v-0.727c0-0.398 0.026-0.703 0.052-0.671 0.032 0.037 0.264 0.348 0.515 0.703zM16.103 15.747v0.715h-0.522c-0.283 0-0.509-0.025-0.496-0.050 0.032-0.075 0.979-1.38 0.998-1.38 0.013 0 0.019 0.323 0.019 0.715zM24.025 16.406l0.953 0.504-0.219 0.386c-0.122 0.205-0.258 0.441-0.296 0.516-0.039 0.081-0.097 0.143-0.135 0.143-0.077 0-1.842-0.933-1.881-0.995-0.045-0.068 0.489-1.057 0.573-1.057 0.026 0 0.483 0.23 1.005 0.504zM23.432 18.575c0.219 0.118 0.399 0.242 0.399 0.28-0.006 0.031-0.142 0.305-0.309 0.603l-0.303 0.547h-1.269c-0.702 0-1.275-0.012-1.275-0.031s0.277-0.522 0.618-1.119l0.618-1.088 0.56 0.292c0.303 0.162 0.734 0.392 0.96 0.516zM12.303 21c0.38 0.099 0.824 0.416 1.030 0.727 0.11 0.162 0.193 0.33 0.193 0.373 0 0.062-0.2 0.081-0.869 0.081-0.844 0-0.882 0.006-1.030 0.155-0.206 0.193-0.206 0.429 0 0.622 0.148 0.149 0.187 0.155 1.063 0.155h0.902v1.243h-7.928l-0.155-0.155c-0.129-0.118-0.161-0.211-0.161-0.466s0.032-0.348 0.161-0.466c0.148-0.149 0.18-0.155 1.127-0.155s0.979-0.006 1.127-0.155c0.090-0.081 0.161-0.224 0.161-0.311 0-0.199-0.264-0.466-0.464-0.466-0.103 0-0.348-0.193-0.792-0.622l-0.644-0.622h3.027c1.784 0 3.124 0.025 3.252 0.062zM22.376 21.479c-0.168 0.305-0.335 0.584-0.367 0.622-0.090 0.118-7.323 0.118-7.323 0 0-0.162 0.386-0.665 0.638-0.827 0.528-0.329 0.496-0.329 4.051-0.336h3.304l-0.303 0.541zM22.705 23.269c0.129 0.118 0.161 0.211 0.161 0.466s-0.032 0.348-0.161 0.466l-0.155 0.155h-7.928v-1.243h7.928l0.155 0.155z"></path>
<path d="M9.369 22.337c-0.090 0.081-0.161 0.224-0.161 0.311s0.071 0.23 0.161 0.311c0.084 0.087 0.232 0.155 0.322 0.155s0.238-0.068 0.322-0.155c0.090-0.081 0.161-0.224 0.161-0.311s-0.071-0.23-0.161-0.311c-0.084-0.087-0.232-0.155-0.322-0.155s-0.238 0.068-0.322 0.155z"></path>
<path d="M0.167 24.488l-0.167 0.124v2.599l0.167 0.124c0.155 0.118 0.258 0.131 1.063 0.131h0.895v4.047l0.161 0.149 0.155 0.155h23.327l0.155-0.155 0.161-0.149v-4.047h1.024c1.43 0 1.327 0.118 1.327-1.554 0-1.703 0.155-1.554-1.655-1.554-1.34 0-1.346 0-1.501 0.155-0.206 0.193-0.206 0.429 0 0.622 0.155 0.149 0.18 0.155 1.191 0.155h1.030v1.243h-26.534v-1.243h0.902c0.876 0 0.915-0.006 1.063-0.155 0.090-0.081 0.161-0.224 0.161-0.311s-0.071-0.23-0.161-0.311c-0.155-0.155-0.167-0.155-1.372-0.155-1.133 0-1.23 0.006-1.391 0.131zM25.117 29.175v1.71h-22.026v-3.419h22.026v1.71z"></path>
</symbol>
<symbol id="icon-people" viewBox="0 0 35 32">
<path d="M16.373 0.067c-1.48 0.26-2.75 0.901-3.902 1.968-1.685 1.561-2.757 3.763-3.056 6.292-0.263 2.149 0.219 4.444 1.305 6.292v0c0.158 0.273 0.104 0.619-0.128 0.831l-0.061 0.056-0.294 0.265c-0.085 0.076-0.219 0.055-0.275-0.045v0c-0.16-0.274-0.649-0.641-0.985-0.727-0.357-0.1-0.97-0.1-1.335 0-0.357 0.1-0.875 0.507-1.050 0.834-0.124 0.227-0.139 0.48-0.175 2.616l-0.011 0.709c-0.007 0.475-0.632 0.645-0.879 0.238v0 0c-0.563-0.925-0.861-1.987-0.861-3.070v-0.373c0-1.344 0.211-2.68 0.624-3.958l0.623-1.927c1.313-4.057 1.378-4.324 1.145-4.824-0.16-0.334-0.467-0.654-0.817-0.821-0.255-0.127-0.416-0.147-1.065-0.147-0.686 0-0.802 0.020-1.087 0.167-0.613 0.32-0.627 0.347-2.421 4.977l-0.302 0.783c-0.904 2.345-1.368 4.837-1.368 7.35v1.33c0 2.034 0.355 4.052 1.050 5.963v0l0.853 2.341c0.096 0.263-0.099 0.541-0.379 0.541v0c-0.518 0-0.605 0.020-0.758 0.167v0c-0.116 0.102-0.182 0.249-0.182 0.403v3.131c0 0.154 0.066 0.301 0.182 0.403v0 0c0.112 0.107 0.262 0.167 0.417 0.167h12.805c0.155 0 0.304-0.060 0.417-0.167v0 0c0.116-0.102 0.182-0.249 0.182-0.403v-3.131c0-0.154-0.066-0.301-0.182-0.403v0c-0.16-0.153-0.233-0.167-0.875-0.167v0c-0.383 0-0.693-0.31-0.693-0.693v-1.676c0-0.619-0.098-1.234-0.292-1.821v0c-0.153-0.487-0.306-0.947-0.328-1.021-0.044-0.127 0.037-0.127 5.288-0.127s5.331 0 5.288 0.127c-0.022 0.073-0.175 0.534-0.328 1.021v0c-0.193 0.588-0.292 1.203-0.292 1.821v1.676c0 0.383-0.31 0.693-0.693 0.693v0c-0.642 0-0.715 0.013-0.875 0.167v0c-0.116 0.102-0.182 0.249-0.182 0.403v3.131c0 0.154 0.066 0.301 0.182 0.403v0 0c0.112 0.107 0.262 0.167 0.417 0.167h12.805c0.155 0 0.304-0.060 0.417-0.167v0 0c0.116-0.102 0.182-0.249 0.182-0.403v-3.131c0-0.154-0.066-0.301-0.182-0.403v0c-0.153-0.147-0.241-0.167-0.758-0.167v0c-0.28 0-0.475-0.278-0.379-0.541l0.853-2.341c0.695-1.911 1.050-3.929 1.050-5.963v-1.33c0-2.513-0.464-5.005-1.368-7.35l-0.302-0.783c-1.794-4.63-1.809-4.657-2.421-4.977-0.284-0.147-0.401-0.167-1.087-0.167-0.649 0-0.81 0.020-1.065 0.147-0.35 0.167-0.656 0.487-0.817 0.821-0.233 0.5-0.168 0.767 1.145 4.824l0.623 1.927c0.413 1.279 0.624 2.614 0.624 3.958v0 0.376c0 1.081-0.295 2.141-0.853 3.067v0 0c-0.25 0.409-0.879 0.237-0.886-0.242l-0.011-0.705c-0.037-2.135-0.051-2.389-0.175-2.616-0.175-0.327-0.693-0.734-1.050-0.834-0.365-0.1-0.977-0.1-1.335 0-0.343 0.087-0.824 0.454-0.985 0.734v0c-0.060 0.103-0.2 0.124-0.288 0.044l-0.274-0.251c-0.266-0.243-0.333-0.636-0.163-0.954l0.090-0.167c1.313-2.442 1.597-5.144 0.824-7.893-0.766-2.716-2.662-4.991-5.003-5.978-0.299-0.127-0.802-0.294-1.109-0.367-0.729-0.173-2.057-0.22-2.749-0.1zM18.999 1.248c2.020 0.574 3.712 2.128 4.668 4.297 1.203 2.722 1.079 5.878-0.321 8.42-0.584 1.061-0.562 1.067-0.613-0.12-0.066-1.475-0.343-2.536-0.992-3.83-0.27-0.527-0.292-0.607-0.226-0.861 0.037-0.147 0.073-1.121 0.073-2.162 0-1.868 0-1.888-0.16-2.035-0.131-0.113-0.729-0.274-2.662-0.714l-1.087-0.247c-0.918-0.208-1.878-0.11-2.734 0.28v0c-0.729 0.334-1.364 0.661-1.422 0.734-0.080 0.107-0.102 0.5-0.102 2.002 0.007 1.027 0.036 2.002 0.066 2.162 0.058 0.26 0.036 0.347-0.226 0.867-0.642 1.268-0.926 2.362-0.999 3.877l-0.019 0.417c-0.008 0.168-0.228 0.226-0.317 0.083v0c-1.174-1.895-1.626-4.057-1.313-6.259 0.314-2.175 1.16-3.91 2.582-5.271 1.014-0.974 2.173-1.575 3.42-1.781 0.569-0.1 1.809-0.027 2.385 0.14zM18.495 5.285l0.268 0.062c0.971 0.225 1.655 1.096 1.642 2.093v0l-0.015 1.14c-0.005 0.377-0.1 0.748-0.277 1.081v0c-0.328 0.607-0.751 0.981-1.429 1.274-0.445 0.194-0.554 0.213-1.181 0.213s-0.737-0.020-1.181-0.213c-0.678-0.293-1.101-0.667-1.429-1.274v0c-0.177-0.333-0.272-0.704-0.277-1.081l-0.015-1.174-0.010-0.806c-0.007-0.578 0.325-1.106 0.849-1.349v0c0.474-0.22 0.919-0.4 0.992-0.4 0.066-0.007 0.999 0.194 2.064 0.434zM5.747 5.418c0.372 0.234 0.387 0.173-0.97 4.397l-0.589 1.829c-0.455 1.414-0.687 2.89-0.687 4.376v0 0c0 1.467 0.401 2.905 1.161 4.16l0.341 0.564c0.824 1.368 1.568 2.535 1.648 2.602 0.211 0.167 0.54 0.147 0.751-0.053v0c0.116-0.102 0.182-0.249 0.182-0.403v-6.334c0-0.154 0.066-0.301 0.182-0.403v0c0.219-0.207 0.802-0.234 1.050-0.053 0.117 0.093 0.467 1.081 1.502 4.304l0.869 2.698c0.318 0.989 0.481 2.021 0.481 3.061v0 0c0 0.865-0.703 1.566-1.568 1.563l-3.606-0.013c-1.901-0.009-3.595-1.199-4.248-2.984v0 0c-0.714-1.964-1.079-4.038-1.079-6.128v-0.861c0-2.512 0.463-5.001 1.366-7.345l0.238-0.618c1.269-3.296 1.641-4.197 1.794-4.317 0.226-0.187 0.919-0.207 1.181-0.040zM30.442 5.458c0.153 0.12 0.525 1.021 1.794 4.317l0.238 0.618c0.903 2.344 1.366 4.833 1.366 7.345v0.861c0 2.090-0.365 4.164-1.079 6.128v0 0c-0.653 1.785-2.348 2.975-4.248 2.984l-1.003 0.005-2.604 0.008c-0.865 0.003-1.568-0.698-1.568-1.563v0 0c0-1.039 0.162-2.072 0.481-3.061l0.869-2.698c1.036-3.223 1.386-4.21 1.502-4.304 0.248-0.18 0.831-0.153 1.050 0.053v0c0.116 0.102 0.182 0.249 0.182 0.403v6.334c0 0.154 0.066 0.301 0.182 0.403v0c0.211 0.2 0.54 0.22 0.751 0.053 0.080-0.067 0.824-1.234 1.648-2.602l0.341-0.564c0.759-1.255 1.161-2.693 1.161-4.16v0 0c0-1.485-0.232-2.962-0.687-4.376l-0.589-1.829c-1.357-4.224-1.342-4.163-0.97-4.397 0.263-0.167 0.955-0.147 1.181 0.040zM15.17 12.33v0c0 0.447-0.219 0.866-0.586 1.122l-0.296 0.206-0.344 0.238c-0.219 0.151-0.515-0.019-0.494-0.284v0c0.066-0.807 0.204-1.461 0.496-2.282v0c0.1-0.296 0.471-0.393 0.703-0.184l0.019 0.017c0.32 0.289 0.503 0.7 0.503 1.131v0.036zM21.070 11.329c0.284 0.821 0.423 1.481 0.489 2.282v0c0.020 0.265-0.276 0.435-0.494 0.284l-0.344-0.238-0.302-0.21c-0.364-0.253-0.581-0.668-0.581-1.111v0-0.035c0-0.428 0.18-0.837 0.496-1.126v0c0.27-0.254 0.496-0.46 0.503-0.46s0.109 0.28 0.233 0.614zM17.504 12.217c0.299 0 0.686-0.020 0.861-0.053v0c0.161-0.025 0.306 0.1 0.306 0.263v0.364c0 0.367 0.029 0.721 0.066 0.781s0.445 0.367 0.912 0.681v0c0.567 0.387 0.547 0.784-0.060 1.106-0.181 0.096-0.38 0.2-0.589 0.309v0c-0.937 0.489-2.053 0.489-2.99 0v0c-0.209-0.108-0.408-0.213-0.589-0.309-0.607-0.322-0.627-0.719-0.060-1.106v0c0.467-0.314 0.875-0.62 0.912-0.681s0.066-0.414 0.066-0.781v-0.357c0-0.167 0.148-0.295 0.314-0.27v0c0.168 0.033 0.554 0.053 0.853 0.053zM15.542 16.647c0.985 0.514 1.867 0.941 1.962 0.941s0.999-0.44 2.020-0.974c1.021-0.534 1.867-0.961 1.882-0.947s-0.073 0.32-0.19 0.687c-0.226 0.714-0.226 0.887 0.022 1.101 0.321 0.274 0.547 0.187 1.203-0.434 0.328-0.314 0.656-0.661 0.729-0.767 0.066-0.113 0.168-0.2 0.211-0.2 0.248 0 0.985 1.048 0.992 1.394 0 0.093-0.27 0.994-0.591 1.995-0.328 1.001-0.591 1.835-0.591 1.848 0 0.020-2.56 0.033-5.689 0.033s-5.689-0.013-5.689-0.033c0-0.013-0.263-0.847-0.591-1.848-0.321-1.001-0.591-1.902-0.591-1.995 0.007-0.36 0.744-1.394 0.992-1.394 0.044 0 0.168 0.113 0.27 0.254 0.109 0.14 0.416 0.467 0.678 0.727 0.54 0.534 0.802 0.64 1.109 0.454 0.343-0.2 0.365-0.36 0.146-1.054-0.197-0.647-0.226-0.807-0.131-0.761 0.029 0.013 0.861 0.454 1.845 0.974zM13.419 29.865v0c0 0.59-0.478 1.067-1.068 1.067h-9.534c-0.59 0-1.068-0.478-1.068-1.067v0 0c0-0.59 0.478-1.068 1.068-1.068h9.534c0.59 0 1.068 0.478 1.068 1.068v0zM33.257 29.865v0c0 0.59-0.478 1.067-1.068 1.067h-9.534c-0.59 0-1.068-0.478-1.068-1.067v0 0c0-0.59 0.478-1.068 1.068-1.068h9.534c0.59 0 1.068 0.478 1.068 1.068v0z"></path>
<path d="M15.754 6.913v0c0 0.295 0.239 0.534 0.534 0.534h0.099c0.295 0 0.534-0.239 0.534-0.534v0 0c0-0.295-0.239-0.534-0.534-0.534h-0.099c-0.295 0-0.534 0.239-0.534 0.534v0z"></path>
<path d="M18.089 6.913v0c0 0.295 0.239 0.534 0.534 0.534h0.099c0.295 0 0.534-0.239 0.534-0.534v0 0c0-0.295-0.239-0.534-0.534-0.534h-0.099c-0.295 0-0.534 0.239-0.534 0.534v0z"></path>
</symbol>
<symbol id="icon-desktop" viewBox="0 0 33 32">
<path d="M1.935 0.064c-0.398 0.093-0.983 0.422-1.266 0.719-0.141 0.149-0.353 0.459-0.463 0.688l-0.206 0.415v21.023l0.238 0.471c0.289 0.564 0.662 0.911 1.26 1.184l0.431 0.198 11.279 0.037v2.461l-0.977 0.031c-0.611 0.019-1.093 0.068-1.272 0.124-1.632 0.521-2.712 1.779-2.866 3.342-0.051 0.496 0.039 0.756 0.302 0.887 0.27 0.136 15.785 0.136 16.055 0.006 0.334-0.167 0.411-0.595 0.231-1.327-0.334-1.37-1.279-2.393-2.616-2.846-0.398-0.136-0.617-0.161-1.446-0.192l-0.983-0.025v-2.461l11.286-0.037 0.488-0.229c0.585-0.279 0.945-0.639 1.228-1.215l0.206-0.415v-21.017l-0.206-0.415c-0.283-0.577-0.643-0.936-1.228-1.215l-0.488-0.229-5.849-0.019c-4.351-0.012-5.9 0-6.035 0.056-0.193 0.081-0.366 0.341-0.366 0.552 0 0.18 0.167 0.471 0.302 0.533 0.064 0.031 2.731 0.068 5.932 0.087l5.816 0.031 0.244 0.149c0.135 0.081 0.321 0.26 0.418 0.397l0.174 0.254 0.019 9.008 0.013 9.008h-30.335l0.013-9.008 0.019-9.002 0.154-0.236c0.084-0.13 0.27-0.31 0.411-0.403l0.263-0.167 5.816-0.031c3.201-0.019 5.874-0.056 5.939-0.087 0.135-0.062 0.302-0.353 0.302-0.527 0-0.068-0.032-0.198-0.077-0.285-0.167-0.353 0.064-0.341-6.17-0.335-3.201 0.006-5.849 0.031-5.99 0.062zM31.582 22.023c-0.026 0.639-0.039 0.725-0.199 0.955-0.096 0.136-0.283 0.316-0.418 0.397l-0.244 0.149h-28.607l-0.264-0.167c-0.456-0.291-0.559-0.533-0.591-1.339l-0.019-0.694h30.361l-0.019 0.701zM18.349 26.034v1.24h-3.856v-2.48h3.856v1.24zM21.755 28.682c0.707 0.279 1.337 0.899 1.568 1.544l0.096 0.273h-13.998l0.096-0.26c0.283-0.787 0.977-1.401 1.825-1.624 0.302-0.081 1.086-0.093 5.206-0.081l4.852 0.012 0.354 0.136z"></path>
<path d="M16.107 21.905c-0.559 0.298-0.321 1.153 0.315 1.153 0.328 0 0.643-0.304 0.643-0.614 0-0.465-0.533-0.769-0.958-0.539z"></path>
<path d="M16.107 0.083c-0.559 0.298-0.321 1.153 0.315 1.153 0.328 0 0.643-0.304 0.643-0.614 0-0.465-0.533-0.769-0.958-0.539z"></path>
<path d="M10.572 5.582c-2.738 1.37-5.032 2.542-5.090 2.616-0.148 0.18-0.148 0.546 0.006 0.732 0.071 0.081 0.932 0.552 1.928 1.048l1.8 0.899 0.019 2.151c0.019 2.040 0.026 2.158 0.148 2.313 0.084 0.112 1.131 0.663 3.117 1.655 2.584 1.29 3.027 1.494 3.278 1.494 0.257 0.006 0.656-0.18 3.278-1.488 1.992-0.998 3.034-1.55 3.117-1.662 0.122-0.155 0.129-0.273 0.148-2.313l0.019-2.151 1.279-0.639 1.285-0.639v1.42l-0.283 0.161c-0.347 0.192-0.656 0.533-0.835 0.899-0.129 0.273-0.135 0.378-0.135 2.443v2.164l0.212 0.18 0.206 0.18h3.034l0.186-0.186 0.193-0.18-0.019-2.219-0.019-2.219-0.193-0.335c-0.199-0.347-0.495-0.62-0.848-0.781l-0.212-0.099v-1.345c0-1.178-0.019-1.364-0.116-1.482-0.058-0.074-2.352-1.252-5.097-2.616-3.741-1.86-5.045-2.486-5.206-2.486-0.161 0.006-1.62 0.707-5.199 2.486zM19.312 6.146l3.522 1.755-4.435 0.062-0.186 0.205c-0.103 0.112-0.186 0.273-0.186 0.36 0 0.205 0.161 0.502 0.315 0.583 0.084 0.037 0.938 0.062 2.327 0.062 1.234 0 2.179 0.025 2.147 0.056-0.103 0.087-6.96 3.478-7.038 3.478-0.058 0-5.347-2.61-7.61-3.757l-0.765-0.384 0.443-0.217c0.244-0.124 2.121-1.060 4.171-2.083s3.741-1.86 3.747-1.86c0.013-0.006 1.607 0.781 3.548 1.742zM13.104 12.811c1.8 0.899 2.507 1.221 2.674 1.221s0.848-0.31 2.674-1.221c1.343-0.67 2.481-1.221 2.519-1.221 0.058 0 0.077 0.391 0.077 1.507v1.507l-2.635 1.314-2.635 1.308-5.27-2.629v-1.5c0-1.11 0.019-1.507 0.077-1.507 0.039 0 1.176 0.552 2.519 1.221zM26.029 12.408l0.161 0.186v3.211h-1.285v-1.537c0-1.742 0.039-1.903 0.443-2.034 0.296-0.093 0.495-0.043 0.681 0.174z"></path>
<path d="M15.546 7.987c-0.193 0.081-0.411 0.366-0.411 0.546 0 0.198 0.167 0.496 0.315 0.577 0.071 0.031 0.219 0.062 0.328 0.062 0.27 0 0.431-0.093 0.546-0.31 0.141-0.267 0.116-0.471-0.077-0.682-0.193-0.198-0.482-0.279-0.7-0.192z"></path>
</symbol>
<symbol id="icon-house" viewBox="0 0 34 32">
<path d="M16.363 1.887v0c0 1.196-0.547 2.327-1.485 3.069l-13.317 10.54c-0.176 0.139-0.082 0.422 0.142 0.429v0l0.463 0.013c0.119 0.003 0.22 0.089 0.243 0.206v0c0.020 0.113 0.079 0.55 0.132 0.981 0.059 0.431 0.119 0.819 0.132 0.856 0.020 0.050 0.152 0.081 0.363 0.081v0c0.182 0 0.33 0.148 0.33 0.33v6.057c0 0.201-0.163 0.363-0.363 0.363v0c-0.244 0-0.363 0.025-0.363 0.075 0 0.044-0.059 0.519-0.132 1.050-0.031 0.23-0.060 0.442-0.083 0.609-0.028 0.202-0.208 0.348-0.412 0.341v0 0c-0.196-0.014-0.363 0.142-0.363 0.339v0.956c0 0.444-0.362 0.802-0.805 0.799v0 0c-0.448-0.007-0.817 0.351-0.823 0.799l-0.009 0.701c-0.007 0.837 0.669 1.519 1.506 1.519h30.776c0.828 0 1.5-0.672 1.5-1.5v0-0.642c0-0.474-0.384-0.858-0.858-0.858v0 0c-0.474 0-0.858-0.384-0.858-0.858v-0.881c0-0.179-0.145-0.323-0.323-0.323v0c-0.257 0-0.337-0.025-0.363-0.113-0.013-0.056-0.086-0.537-0.145-1.062l-0.075-0.603c-0.025-0.198-0.193-0.347-0.393-0.347v0 0c-0.193 0-0.35-0.157-0.35-0.35v-6.044c0-0.196 0.154-0.359 0.35-0.369v0 0c0.199-0.011 0.362-0.162 0.387-0.36l0.088-0.69 0.046-0.356c0.050-0.39 0.373-0.688 0.766-0.706v0 0c0.235-0.011 0.331-0.308 0.146-0.454l-14.662-11.609c-0.123-0.097-0.189-0.249-0.177-0.406v0 0c0.011-0.142 0.129-0.251 0.271-0.253l1.621-0.017c0.882-0.006 1.594-0.723 1.594-1.605v0 0c0-0.88-0.714-1.594-1.594-1.594h-1.007c-1.044 0-1.89 0.844-1.894 1.887v0zM19.867 1.594v0c0 0.362-0.294 0.656-0.656 0.656h-1.196c-0.362 0-0.656-0.294-0.656-0.656v0 0c0-0.362 0.294-0.656 0.656-0.656h1.196c0.362 0 0.656 0.294 0.656 0.656v0zM23.524 9.813c1.961 1.552 3.726 2.955 4.909 3.901 1.021 0.816 0.87 1.257-0.437 1.265-2.317 0.014-6.453 0.022-11.145 0.022l-12.873-0.006c-0.080-0-0.114-0.102-0.050-0.15v0c0.112-0.087 3.063-2.425 6.567-5.206 5.393-4.281 6.389-5.044 6.482-4.988 0.059 0.037 3.003 2.363 6.548 5.163zM7.168 16.325c-0.026 0.219-0.059 0.487-0.086 0.6v0c-0.019 0.115-0.119 0.199-0.236 0.199l-1.56-0.011-1.472-0.016c-0.163-0.002-0.301-0.123-0.324-0.284v0c-0.020-0.156-0.059-0.413-0.079-0.581v0c-0.024-0.154 0.095-0.294 0.251-0.294h3.16c0.208 0 0.369 0.181 0.344 0.388v0zM10.125 16.888c0.059 0.525 0.132 1.006 0.145 1.062 0.026 0.088 0.106 0.113 0.363 0.113v0c0.179 0 0.323 0.145 0.323 0.323v6.077c0 0.193-0.151 0.352-0.343 0.362v0 0c-0.203 0.011-0.369 0.165-0.394 0.366l-0.088 0.684-0.019 0.147c-0.065 0.505-0.495 0.884-1.004 0.884v0 0c-0.509 0-0.939-0.379-1.004-0.884l-0.019-0.147-0.088-0.684c-0.026-0.201-0.192-0.355-0.394-0.366v0 0c-0.192-0.010-0.343-0.17-0.343-0.362v-6.077c0-0.179 0.145-0.323 0.323-0.323v0c0.257 0 0.337-0.025 0.363-0.113 0.013-0.056 0.086-0.537 0.145-1.062l0.007-0.059c0.064-0.509 0.496-0.891 1.009-0.891v0 0c0.513 0 0.945 0.382 1.009 0.891l0.007 0.059zM14.811 16.137c-0.020 0.113-0.053 0.375-0.079 0.581v0c-0.026 0.215-0.208 0.377-0.424 0.379l-1.378 0.015-1.56 0.011c-0.117 0.001-0.217-0.083-0.236-0.199v0c-0.026-0.113-0.059-0.381-0.086-0.6v0c-0.025-0.206 0.136-0.387 0.344-0.387h3.248c0.106 0 0.187 0.095 0.17 0.2v0zM17.953 15.981c0 0.031 0.059 0.488 0.132 1.019s0.132 0.987 0.132 1.012c0 0.031 0.165 0.050 0.363 0.050v0c0.2 0 0.362 0.163 0.362 0.363l-0.012 2.993-0.018 3.019c-0.001 0.193-0.152 0.352-0.345 0.362v0c-0.389 0.019-0.337-0.113-0.515 1.256-0.059 0.431-0.119 0.8-0.139 0.831-0.026 0.044-2.073 0.075-2.073 0.031 0-0.006-0.059-0.45-0.132-0.981s-0.132-1.006-0.132-1.050c0-0.050-0.119-0.075-0.363-0.075v0c-0.201 0-0.363-0.163-0.363-0.363v-6.057c0-0.182 0.148-0.33 0.33-0.33v0c0.211 0 0.343-0.031 0.363-0.081 0.013-0.037 0.073-0.425 0.132-0.856 0.053-0.431 0.112-0.875 0.132-0.988v0c0.023-0.116 0.125-0.2 0.244-0.2h0.846c0.581 0 1.056 0.019 1.056 0.044zM22.732 16.312c-0.026 0.206-0.066 0.469-0.086 0.581v0c-0.027 0.117-0.131 0.2-0.251 0.2h-3.075c-0.12 0-0.224-0.083-0.251-0.2v0c-0.020-0.113-0.059-0.375-0.086-0.581v0c-0.025-0.199 0.131-0.375 0.332-0.375h3.086c0.201 0 0.356 0.176 0.332 0.375v0zM24.653 15.938c0.573 0 0.941 0.334 1.020 0.902 0.007 0.052 0.015 0.106 0.022 0.161l0.096 0.684c0.028 0.202 0.195 0.355 0.399 0.366v0 0c0.192 0.010 0.343 0.17 0.343 0.362v6.050c0 0.193-0.157 0.35-0.35 0.35v0 0c-0.204 0-0.375 0.152-0.401 0.354l-0.068 0.54c-0.059 0.488-0.125 0.962-0.145 1.056v0c-0.023 0.102-0.114 0.175-0.219 0.175h-0.672c-0.627 0-0.865-0.019-0.884-0.081-0.013-0.037-0.073-0.425-0.132-0.856-0.165-1.294-0.119-1.181-0.515-1.2v0c-0.193-0.011-0.344-0.169-0.345-0.362l-0.018-3.019-0.012-2.993c-0.001-0.2 0.161-0.363 0.362-0.363v0c0.198 0 0.363-0.006 0.363-0.019 0-0.006 0.059-0.45 0.132-0.981s0.132-1.006 0.132-1.050c0-0.056 0.224-0.075 0.891-0.075v0zM30.336 16.387c-0.026 0.25-0.066 0.519-0.086 0.594v0c-0.019 0.084-0.094 0.144-0.18 0.144h-1.595c-0.439 0-0.842-0.001-1.15-0.004-0.394-0.003-0.628-0.219-0.685-0.609v0 0c-0.042-0.304 0.194-0.575 0.501-0.575h2.789c0.242 0 0.431 0.209 0.406 0.45v0zM6.257 21.419l-0.014 2.425c-0.003 0.522-0.421 0.946-0.943 0.956v0 0c-0.518 0.010-0.944-0.407-0.944-0.925v-4.855c0-0.529 0.428-0.957 0.957-0.957v0 0c0.528 0 0.955 0.429 0.953 0.957l-0.009 2.399zM13.861 21.438v2.444c0 0.515-0.423 0.929-0.937 0.919v0 0c-0.525-0.010-0.946-0.438-0.949-0.963l-0.014-2.418-0.009-2.399c-0.002-0.528 0.425-0.957 0.953-0.957v0 0c0.529 0 0.957 0.428 0.957 0.957v2.418zM21.782 21.438v2.451c0 0.51-0.414 0.924-0.924 0.924v0 0c-0.51 0-0.924-0.414-0.924-0.924v-4.902c0-0.51 0.414-0.924 0.924-0.924v0 0c0.51 0 0.924 0.414 0.924 0.924v2.451zM29.425 21.419l-0.014 2.438c-0.003 0.511-0.418 0.924-0.93 0.924v0 0c-0.511 0-0.927-0.413-0.93-0.924l-0.014-2.438-0.009-2.399c-0.002-0.528 0.425-0.957 0.953-0.957v0 0c0.528 0 0.955 0.429 0.953 0.957l-0.009 2.399zM7.089 25.887c0.020 0.113 0.053 0.394 0.079 0.625v0c0.025 0.227-0.153 0.425-0.381 0.425h-1.46c-0.278 0-0.543-0.001-0.784-0.004-0.755-0.008-1.234-0.45-1.012-1.171v0c0.020-0.056 0.436-0.075 1.776-0.075h1.539c0.119 0 0.221 0.084 0.244 0.2v0zM14.759 26.281c0.040 0.306 0.059 0.581 0.046 0.606-0.013 0.031-0.878 0.050-1.914 0.050h-1.46c-0.228 0-0.406-0.198-0.381-0.425v0c0.026-0.231 0.059-0.512 0.079-0.625v0c0.023-0.116 0.125-0.199 0.243-0.199l1.558 0.011 1.189 0.013c0.325 0.003 0.598 0.246 0.64 0.569v0zM22.646 25.931c0.026 0.113 0.066 0.387 0.092 0.606v0c0.025 0.213-0.142 0.4-0.356 0.4h-1.518c-1.135 0-1.921-0.025-1.921-0.056 0-0.113 0.139-1.038 0.165-1.119 0.026-0.063 0.409-0.075 1.762-0.063l1.512 0.016c0.127 0.001 0.237 0.091 0.264 0.215v0zM30.25 25.825c0.020 0.081 0.059 0.362 0.086 0.625v0c0.025 0.261-0.181 0.487-0.443 0.487h-1.392c-0.563 0-1.073-0.004-1.424-0.010-0.321-0.006-0.492-0.097-0.46-0.416v0c0.048-0.477 0.36-0.819 0.839-0.821 0.288-0.002 0.64-0.003 1.019-0.003h1.601c0.083 0 0.155 0.057 0.174 0.137v0zM31.088 28.406v0c0 0.328-0.266 0.594-0.594 0.594h-27.304c-0.304 0-0.55-0.246-0.55-0.55v0 0c0-0.397 0.244-0.602 0.641-0.607 1.761-0.018 7.223-0.031 13.629-0.031h13.584c0.328 0 0.594 0.266 0.594 0.594v0zM32.791 30.481v0c0.011 0.318-0.244 0.581-0.562 0.581h-30.646c-0.328 0-0.594-0.266-0.594-0.594v0 0c0-0.328 0.266-0.594 0.594-0.593l30.612 0.030c0.321 0 0.584 0.255 0.595 0.576v0z"></path>
<path d="M11.762 9.925l-1.089 0.864c-1.328 1.054-0.587 3.192 1.108 3.199v0c2.812 0.006 7.412 0.006 10.224 0v0c1.693-0.006 2.433-2.141 1.106-3.194l-1.080-0.856c-2.799-2.219-5.109-4.037-5.129-4.044s-2.337 1.806-5.142 4.031zM20.66 10.075l0.796 0.631c0.973 0.771 0.432 2.337-0.81 2.344v0c-2.053 0.006-5.432 0.006-7.498 0v0c-1.246-0.006-1.789-1.578-0.813-2.352l0.786-0.623c2.046-1.619 3.749-2.95 3.769-2.95 0.026 0 1.723 1.331 3.769 2.95z"></path>
<path d="M15.577 10.844v0c0 0.259 0.21 0.469 0.469 0.469h0.053c0.259 0 0.469-0.21 0.469-0.469v0 0c0-0.259-0.21-0.469-0.469-0.469h-0.053c-0.259 0-0.469 0.21-0.469 0.469v0z"></path>
<path d="M17.227 10.844v0c0 0.259 0.21 0.469 0.469 0.469h0.053c0.259 0 0.469-0.21 0.469-0.469v0 0c0-0.259-0.21-0.469-0.469-0.469h-0.053c-0.259 0-0.469 0.21-0.469 0.469v0z"></path>
<path d="M3.63 8.688v3.087c0 0.263 0.219 0.474 0.482 0.463v0 0c0.266-0.010 0.477-0.228 0.478-0.494l0.017-2.606c0.007-1.7 1.388-3.075 3.088-3.075h4.311c0.259 0 0.469-0.21 0.469-0.469v0 0c0-0.259-0.21-0.469-0.469-0.469h-4.813c-1.968 0-3.563 1.595-3.563 3.563v0z"></path>
<path d="M21.32 5.594v0c0 0.259 0.21 0.469 0.469 0.469h4.311c1.7 0 3.081 1.375 3.088 3.075v0l0.017 2.599c0.002 0.27 0.215 0.49 0.485 0.501v0 0c0.259 0.010 0.475-0.197 0.475-0.457v-3.093c0-1.968-1.595-3.563-3.563-3.563h-4.813c-0.259 0-0.469 0.21-0.469 0.469v0z"></path>
</symbol>
</defs>
</svg>
