<svg aria-hidden="true" style="position: absolute; width: 0; height: 0; overflow: hidden;" version="1.1" xmlns="http://www.w3.org/2000/svg" xmlns:xlink="http://www.w3.org/1999/xlink">
<defs>
<symbol id="icon-check-mark" viewBox="0 0 32 32">
<path fill="#485982" style="fill: var(--color1, #485982)" d="M25.6 0h-19.2c-3.534 0-6.4 2.866-6.4 6.4v19.2c0 3.534 2.866 6.4 6.4 6.4h19.2c3.534 0 6.4-2.866 6.4-6.4v-19.2c0-3.534-2.866-6.4-6.4-6.4zM25.97 13.031l-9.9 9.899c-0.547 0.548-1.262 0.82-1.979 0.82s-1.433-0.272-1.979-0.82l-6.082-6.081c-1.092-1.092-1.092-2.865 0-3.958 1.094-1.093 2.866-1.093 3.96 0l4.101 4.101 7.92-7.92c1.093-1.093 2.866-1.093 3.959 0 1.095 1.093 1.095 2.866 0.001 3.96z"></path>
</symbol>
<symbol id="icon-instagram" viewBox="0 0 34 32">
<path fill="#344265" style="fill: var(--color2, #344265)" d="M16.005 0.001c-4.345 0-4.891 0.019-6.597 0.097-1.703 0.078-2.866 0.348-3.883 0.743-1.052 0.409-1.945 0.955-2.834 1.845s-1.437 1.782-1.847 2.834c-0.397 1.018-0.667 2.181-0.743 3.883-0.076 1.707-0.096 2.252-0.096 6.598s0.019 4.889 0.097 6.596c0.078 1.703 0.348 2.866 0.743 3.883 0.409 1.052 0.956 1.945 1.845 2.834s1.782 1.438 2.833 1.847c1.018 0.396 2.181 0.665 3.884 0.743 1.707 0.078 2.252 0.097 6.597 0.097s4.889-0.019 6.596-0.097c1.703-0.078 2.867-0.348 3.886-0.743 1.052-0.409 1.943-0.957 2.832-1.847s1.437-1.782 1.847-2.834c0.393-1.018 0.663-2.181 0.743-3.883 0.077-1.707 0.097-2.251 0.097-6.596s-0.020-4.891-0.097-6.597c-0.080-1.703-0.35-2.866-0.743-3.883-0.41-1.052-0.957-1.945-1.847-2.834s-1.78-1.437-2.833-1.845c-1.020-0.396-2.183-0.665-3.887-0.743-1.707-0.078-2.25-0.097-6.597-0.097h0.005zM14.569 2.884c0.426-0.001 0.901 0 1.435 0 4.272 0 4.778 0.015 6.465 0.092 1.56 0.071 2.407 0.332 2.971 0.551 0.747 0.29 1.279 0.637 1.839 1.197s0.907 1.093 1.197 1.84c0.219 0.563 0.48 1.41 0.551 2.97 0.077 1.687 0.093 2.193 0.093 6.463s-0.017 4.777-0.093 6.463c-0.071 1.56-0.332 2.407-0.551 2.97-0.29 0.747-0.637 1.278-1.197 1.838s-1.092 0.907-1.839 1.197c-0.563 0.22-1.411 0.48-2.971 0.551-1.687 0.077-2.193 0.093-6.465 0.093s-4.779-0.017-6.465-0.093c-1.56-0.072-2.407-0.333-2.971-0.552-0.747-0.29-1.28-0.637-1.84-1.197s-0.907-1.092-1.197-1.839c-0.219-0.563-0.48-1.41-0.551-2.97-0.077-1.687-0.092-2.193-0.092-6.466s0.015-4.777 0.092-6.463c0.071-1.56 0.332-2.407 0.551-2.971 0.29-0.747 0.637-1.28 1.197-1.84s1.093-0.907 1.84-1.197c0.564-0.22 1.411-0.48 2.971-0.552 1.476-0.067 2.048-0.087 5.030-0.090v0.004zM24.545 5.541c-1.060 0-1.92 0.859-1.92 1.919s0.86 1.92 1.92 1.92c1.060 0 1.92-0.86 1.92-1.92s-0.86-1.92-1.92-1.92v0.001zM16.005 7.784c-4.538 0-8.217 3.679-8.217 8.217s3.679 8.215 8.217 8.215c4.538 0 8.215-3.677 8.215-8.215s-3.678-8.217-8.216-8.217h0zM16.005 10.667c2.945 0 5.333 2.388 5.333 5.333s-2.388 5.333-5.333 5.333c-2.946 0-5.333-2.388-5.333-5.333s2.388-5.333 5.333-5.333z"></path>
</symbol>
<symbol id="icon-pinterest" viewBox="0 0 34 32">
<path fill="#344265" style="fill: var(--color2, #344265)" d="M3.623 11.487c0-1.344 0.282-2.678 0.848-3.999s1.376-2.55 2.432-3.679c1.056-1.129 2.441-2.048 4.159-2.751s3.622-1.056 5.711-1.056c3.391 0 6.175 1.046 8.35 3.135s3.263 4.553 3.263 7.39c0 3.647-0.921 6.661-2.767 9.038s-4.23 3.567-7.151 3.567c-0.96 0-1.862-0.224-2.703-0.672s-1.433-0.992-1.776-1.632l-1.28 5.055c-0.106 0.406-0.246 0.816-0.416 1.232s-0.358 0.816-0.56 1.2-0.406 0.745-0.608 1.088c-0.202 0.342-0.406 0.662-0.608 0.96s-0.378 0.55-0.528 0.752-0.288 0.377-0.416 0.528l-0.192 0.256c-0.064 0.086-0.15 0.118-0.256 0.096s-0.17-0.086-0.192-0.192c0-0.022-0.016-0.17-0.048-0.448s-0.064-0.57-0.096-0.88c-0.032-0.31-0.064-0.71-0.096-1.2s-0.042-0.966-0.032-1.424c0.010-0.458 0.042-0.966 0.096-1.52s0.134-1.065 0.24-1.536c0.234-1.001 1.024-4.341 2.368-10.014-0.17-0.342-0.31-0.752-0.416-1.232s-0.16-0.87-0.16-1.168l-0.032-0.48c0-1.366 0.346-2.502 1.040-3.407s1.529-1.36 2.511-1.36c0.79 0 1.401 0.262 1.84 0.784s0.656 1.177 0.656 1.968c0 0.489-0.090 1.094-0.272 1.808s-0.422 1.536-0.72 2.463c-0.298 0.928-0.512 1.68-0.64 2.256-0.214 0.96-0.026 1.792 0.56 2.496s1.369 1.056 2.351 1.056c1.686 0 3.078-0.953 4.175-2.863s1.648-4.217 1.648-6.927c0-2.070-0.672-3.759-2.016-5.071s-3.222-1.968-5.631-1.968c-2.687 0-4.869 0.864-6.543 2.591s-2.511 3.798-2.511 6.207c0 1.43 0.406 2.633 1.216 3.615 0.278 0.32 0.362 0.662 0.256 1.024-0.042 0.106-0.106 0.352-0.192 0.736s-0.15 0.63-0.192 0.736c-0.042 0.233-0.15 0.39-0.32 0.464s-0.362 0.070-0.576-0.016c-1.257-0.512-2.201-1.392-2.831-2.639s-0.944-2.703-0.944-4.367z"></path>
</symbol>
<symbol id="icon-facebook" viewBox="0 0 34 32">
<path fill="#344265" style="fill: var(--color2, #344265)" d="M22.711 0h-1.732c-4.813 0-8.729 3.916-8.729 8.729v3.684h-2.959c-0.305 0-0.552 0.247-0.552 0.552v4.414c0 0.305 0.247 0.552 0.552 0.552h2.958v13.518c0 0.305 0.247 0.552 0.552 0.552h4.414c0.305 0 0.552-0.247 0.552-0.552v-13.518h4.39c0.305 0 0.552-0.247 0.552-0.552v-4.414c0-0.305-0.247-0.552-0.552-0.552h-4.39v-3.684c0-1.771 1.441-3.212 3.212-3.212h1.732c0.305 0 0.552-0.247 0.552-0.552v-4.414c0-0.305-0.247-0.552-0.551-0.552z"></path>
</symbol>
<symbol id="icon-youtube" viewBox="0 0 34 32">
<path fill="#344265" style="fill: var(--color2, #344265)" d="M16.105 3.996c0.011 0 0.024 0 0.037 0l0.142 0c1.644 0.006 9.974 0.066 12.22 0.67 1.377 0.369 2.461 1.458 2.829 2.839 0.203 0.759 0.344 1.768 0.442 2.805l0.019 0.208c0.015 0.173 0.030 0.347 0.043 0.52l0.015 0.207c0.132 1.828 0.147 3.539 0.149 3.913l0 0.050c0 0.004 0 0.011 0 0.011v0.028c0 0 0 0.007 0 0.011l-0 0.050c-0.002 0.388-0.018 2.216-0.164 4.121l-0.017 0.208-0.017 0.208c-0.099 1.145-0.248 2.282-0.47 3.117-0.368 1.381-1.452 2.47-2.829 2.839-2.321 0.624-11.138 0.668-12.361 0.671l-0.094 0c-0.008 0-0.015 0-0.020 0h-0.038c0 0-0.009 0-0.015 0l-0.115-0c-0.618-0.002-3.176-0.014-5.854-0.105l-0.342-0.012c-0.057-0.002-0.114-0.004-0.171-0.006l-0.343-0.014-0.342-0.015c-2.219-0.097-4.335-0.257-5.308-0.519-1.377-0.369-2.461-1.458-2.829-2.839-0.223-0.835-0.372-1.972-0.471-3.117l-0.017-0.208-0.016-0.208c-0.14-1.835-0.161-3.599-0.164-4.073l-0-0.068c-0-0.006-0-0.012-0-0.017v-0.078c0-0.005 0-0.011 0-0.017l0-0.068c0.003-0.429 0.020-1.916 0.127-3.556l0.014-0.206c0.002-0.034 0.005-0.069 0.007-0.103l0.015-0.207c0.013-0.173 0.028-0.347 0.043-0.52l0.019-0.208c0.098-1.037 0.24-2.046 0.442-2.805 0.368-1.381 1.452-2.47 2.829-2.839 0.973-0.262 3.089-0.421 5.308-0.519l0.342-0.014 0.343-0.014c0.057-0.002 0.114-0.004 0.171-0.006l0.342-0.012c2.508-0.086 4.909-0.102 5.713-0.105l0.142-0c0.013-0 0.025-0 0.037-0h0.209zM12.801 10.419v9.634l8.313-4.817-8.313-4.817z"></path>
</symbol>
<symbol id="icon-settings-icon" viewBox="0 0 32 32">
<path fill="#344265" style="fill: var(--color2, #344265)" d="M28.48 13.28c-0.32-1.44-0.96-2.88-1.76-4.16l1.6-3.36-2.24-2.24-3.36 1.6c-1.28-0.8-2.56-1.28-4-1.6l-1.12-3.52h-3.2l-1.28 3.52c-1.44 0.32-2.72 0.96-4 1.76l-3.36-1.6-2.24 2.080 1.6 3.36c-0.8 1.28-1.28 2.56-1.6 4l-3.52 1.28v3.2l3.52 1.28c0.32 1.44 0.96 2.88 1.6 4l-1.6 3.36 2.24 2.24 3.36-1.6c1.28 0.8 2.56 1.44 4 1.76l1.28 3.36h3.2l1.28-3.52c0.48-0.16 1.12-0.32 1.6-0.48l-2.56-2.56c-6.080 1.12-11.52-3.36-11.52-9.44 0-5.28 4.32-9.6 9.6-9.6 5.92 0 10.4 5.28 9.44 10.88l2.72 2.72c0.16-0.48 0.32-0.8 0.32-1.28l3.52-1.12v-3.2l-3.52-1.12z"></path>
<path fill="#344265" style="fill: var(--color2, #344265)" d="M31.359 27.84l-9.44-9.44c2.24-4.96-2.4-10.24-7.52-8.8l2.88 2.88c1.28 1.28 1.28 3.36 0 4.48-1.12 1.28-3.36 1.28-4.48 0l-2.88-2.72c-1.44 4.48 3.2 9.6 8.48 7.52l9.44 9.44c0.96 0.96 2.4 0.96 3.36 0 0.96-0.8 0.96-2.4 0.16-3.36z"></path>
</symbol>
<symbol id="search-icon" viewBox="0 0 30 32">
<path fill="#485982" style="fill: var(--color1, #485982)" d="M22.31 20.011l8.001 8.001-3.145 3.145-8.002-8.002c-1.97 1.357-4.358 2.152-6.931 2.152-6.756 0-12.233-5.477-12.233-12.233s5.477-12.233 12.233-12.233c6.756 0 12.233 5.477 12.233 12.233 0 2.575-0.796 4.965-2.155 6.936zM18.088 18.218c1.207-1.372 1.938-3.173 1.938-5.144 0-4.304-3.489-7.793-7.793-7.793s-7.793 3.489-7.793 7.793c0 4.304 3.489 7.793 7.793 7.793 1.971 0 3.771-0.732 5.144-1.938l0.711-0.711z"></path>
</symbol>
<symbol id="icon-phone" viewBox="0 0 32 32">
<path fill="" style="fill: " d="M28.558 29.333c-14.219 0.020-25.011-10.901-24.996-24.996 0-0.92 0.746-1.671 1.667-1.671h4.399c0.826 0 1.528 0.607 1.649 1.424 0.291 1.958 0.861 3.864 1.693 5.661l0.171 0.37c0.238 0.514 0.077 1.125-0.384 1.454-1.362 0.973-1.883 2.931-0.822 4.459 1.332 1.917 3.011 3.596 4.928 4.927 1.528 1.061 3.486 0.54 4.459-0.822 0.33-0.461 0.941-0.623 1.455-0.385l0.368 0.171c1.796 0.832 3.703 1.402 5.661 1.693 0.817 0.121 1.424 0.823 1.424 1.649v4.4c0 0.92-0.748 1.667-1.668 1.667h-0.002z"></path>
</symbol>
<symbol id="icon-logo" viewBox="0 0 171 32">
<path fill="#faff00" style="fill: var(--color3, #faff00)" d="M15.088 1.313l-0.951 2.172c-0.492 0.030-0.981 0.092-1.467 0.186l-1.455-1.879-1.568 0.533-0.008 2.391c-0.664 0.341-1.301 0.754-1.902 1.236l-2.217-0.998-1.135 1.207 1.135 2.152c-0.366 0.522-0.683 1.067-0.951 1.631l-2.434 0.066-0.494 1.58 1.965 1.447c-0.094 0.586-0.14 1.179-0.143 1.772l-2.182 1.105 0.228 1.641 2.395 0.469c0.143 0.499 0.319 0.989 0.531 1.469l-1.578 1.959 0.881 1.402 2.453-0.574c0.154 0.181 0.315 0.36 0.482 0.533 0.353 0.365 0.723 0.7 1.107 1.008l-0.477 2.457 1.434 0.828 1.873-1.631c0.538 0.216 1.090 0.389 1.65 0.519l0.611 2.4 1.65 0.135 0.992-2.264c0.686-0.041 1.369-0.144 2.041-0.309l1.576 1.826 1.537-0.615-0.045-0.926-3.588-2.721c-1.044 0.264-2.128 0.335-3.191 0.215-1.985-0.224-3.892-1.12-5.389-2.668-3.421-3.538-3.323-9.167 0.215-12.588 1.714-1.657 3.918-2.498 6.125-2.521 2.349-0.025 4.701 0.875 6.465 2.699 2.871 2.97 3.262 7.437 1.223 10.818l1.998 1.516c0.25-0.393 0.475-0.797 0.672-1.211l2.416-0.066 0.494-1.58-1.951-1.438c0.095-0.591 0.141-1.19 0.142-1.787l2.168-1.102-0.228-1.641-2.393-0.469c-0.2-0.687-0.465-1.36-0.797-2.008l1.426-1.975-0.953-1.354-2.348 0.682c-0.029-0.031-0.058-0.063-0.088-0.094-0.375-0.388-0.771-0.743-1.184-1.067l0.449-2.32-1.434-0.828-1.781 1.551c-0.577-0.232-1.169-0.413-1.77-0.547l-0.584-2.293-1.652-0.135zM11.453 10.906c-0.646 0.007-1.287 0.166-1.875 0.455l2.826 2.145c0.855 0.648 1.097 1.881 0.441 2.746s-1.916 0.996-2.783 0.338l-2.824-2.143c-0.289 1.55 0.258 3.191 1.6 4.209 1.203 0.912 2.747 1.083 4.076 0.605l0.299-0.107 0.252 0.191 8.701 6.602-0.021 0.316c-0.102 1.409 0.474 2.851 1.678 3.764 1.341 1.017 3.071 1.102 4.486 0.406l-2.824-2.142c-0.867-0.658-1.080-1.907-0.424-2.771s1.909-0.963 2.764-0.315l2.824 2.143c0.289-1.549-0.257-3.192-1.598-4.209-1.207-0.916-2.739-1.098-4.060-0.627l-0.297 0.105-0.252-0.191-8.701-6.602 0.021-0.314c0.097-1.399-0.491-2.825-1.697-3.74-0.784-0.595-1.701-0.874-2.611-0.863l-0-0zM14.176 16.547l10.242 7.772-0.705 0.932-10.244-7.773 0.707-0.93z"></path>
<path fill="#f8f8f8" style="fill: var(--color4, #f8f8f8)" d="M40.958 14.933h-3.224l4.188-12.412h3.994l4.188 12.412h-3.224l-2.915-9.285h-0.097l-2.909 9.285zM40.527 10.048h6.739v2.279h-6.739v-2.279zM51.439 14.933v-12.412h3v9.976h5.164v2.436h-8.164zM61.156 14.933v-12.412h5.127c0.929 0 1.731 0.182 2.406 0.545 0.679 0.36 1.202 0.863 1.57 1.509 0.368 0.642 0.551 1.39 0.551 2.242 0 0.857-0.188 1.606-0.564 2.248-0.372 0.638-0.903 1.133-1.594 1.485s-1.511 0.527-2.461 0.527h-3.164v-2.364h2.606c0.452 0 0.83-0.079 1.133-0.236 0.307-0.158 0.539-0.378 0.697-0.661 0.158-0.287 0.236-0.62 0.236-1 0-0.384-0.079-0.715-0.236-0.994-0.158-0.283-0.39-0.501-0.697-0.655s-0.685-0.23-1.133-0.23h-1.479v9.994h-3zM72.289 14.933v-12.412h3v4.982h4.891v-4.982h2.994v12.412h-2.994v-4.988h-4.891v4.988h-3zM87.741 14.933h-3.224l4.188-12.412h3.994l4.188 12.412h-3.224l-2.915-9.285h-0.097l-2.909 9.285zM87.311 10.048h6.739v2.279h-6.739v-2.279z"></path>
<path fill="#faff00" style="fill: var(--color3, #faff00)" d="M40.278 28.8h-2.62l3.403-10.085h3.245l3.403 10.085h-2.62l-2.369-7.544h-0.079l-2.364 7.544zM39.928 24.831h5.476v1.852h-5.476v-1.852zM48.795 28.8v-10.085h4.166c0.755 0 1.407 0.148 1.955 0.443 0.552 0.292 0.977 0.701 1.275 1.226 0.299 0.522 0.448 1.129 0.448 1.822 0 0.696-0.153 1.305-0.458 1.827-0.302 0.519-0.734 0.921-1.295 1.206s-1.228 0.428-1.999 0.428h-2.57v-1.92h2.117c0.368 0 0.675-0.064 0.921-0.192 0.249-0.128 0.438-0.307 0.566-0.537 0.128-0.233 0.192-0.504 0.192-0.813 0-0.312-0.064-0.581-0.192-0.808-0.128-0.23-0.317-0.407-0.566-0.532s-0.556-0.187-0.921-0.187h-1.202v8.12h-2.437zM57.84 28.8v-10.085h4.166c0.755 0 1.407 0.148 1.955 0.443 0.551 0.292 0.977 0.701 1.275 1.226 0.299 0.522 0.448 1.129 0.448 1.822 0 0.696-0.153 1.305-0.458 1.827-0.302 0.519-0.734 0.921-1.295 1.206s-1.228 0.428-1.999 0.428h-2.57v-1.92h2.117c0.368 0 0.675-0.064 0.921-0.192 0.249-0.128 0.438-0.307 0.566-0.537 0.128-0.233 0.192-0.504 0.192-0.813 0-0.312-0.064-0.581-0.192-0.808-0.128-0.23-0.317-0.407-0.566-0.532s-0.556-0.187-0.921-0.187h-1.202v8.12h-2.438zM66.886 28.8v-10.085h2.437v8.105h4.196v1.98h-6.633zM77.218 18.715v10.085h-2.437v-10.085h2.437zM80.93 28.8h-2.62l3.403-10.085h3.245l3.403 10.085h-2.62l-2.369-7.544h-0.079l-2.364 7.544zM80.58 24.831h5.476v1.852h-5.476v-1.852zM98.030 18.715v10.085h-2.068l-4.013-5.82h-0.064v5.82h-2.437v-10.085h2.098l3.969 5.811h0.084v-5.811h2.433zM108.717 22.369h-2.463c-0.033-0.253-0.1-0.481-0.202-0.684s-0.236-0.378-0.404-0.522c-0.167-0.144-0.366-0.254-0.596-0.33-0.226-0.079-0.478-0.118-0.753-0.118-0.489 0-0.911 0.12-1.266 0.359-0.351 0.24-0.622 0.586-0.812 1.039-0.187 0.453-0.281 1.001-0.281 1.645 0 0.67 0.095 1.231 0.286 1.684 0.194 0.45 0.465 0.789 0.812 1.019 0.351 0.226 0.766 0.34 1.246 0.34 0.269 0 0.514-0.034 0.734-0.103 0.223-0.069 0.419-0.169 0.586-0.3 0.171-0.135 0.31-0.297 0.419-0.488 0.112-0.194 0.189-0.412 0.231-0.655l2.463 0.015c-0.043 0.446-0.173 0.886-0.389 1.32-0.213 0.433-0.508 0.829-0.881 1.187-0.374 0.355-0.831 0.637-1.369 0.847-0.535 0.21-1.149 0.315-1.842 0.315-0.913 0-1.73-0.2-2.452-0.601-0.719-0.404-1.287-0.991-1.704-1.763s-0.625-1.71-0.625-2.817c0-1.11 0.212-2.050 0.635-2.822s0.996-1.357 1.719-1.758 1.531-0.601 2.428-0.601c0.611 0 1.175 0.085 1.694 0.256 0.519 0.167 0.975 0.414 1.369 0.739 0.394 0.322 0.714 0.717 0.96 1.187s0.399 1.006 0.459 1.61zM110.111 28.8v-10.085h7.033v1.98h-4.595v2.068h4.236v1.984h-4.236v2.073h4.595v1.98h-7.033zM121.649 28.8v-10.085h4.165c0.755 0 1.407 0.136 1.955 0.409 0.551 0.269 0.977 0.657 1.276 1.162 0.299 0.502 0.448 1.098 0.448 1.788 0 0.699-0.153 1.293-0.459 1.783-0.305 0.486-0.738 0.857-1.299 1.113-0.562 0.253-1.227 0.379-1.995 0.379h-2.635v-1.92h2.181c0.368 0 0.675-0.048 0.921-0.143 0.25-0.098 0.438-0.246 0.566-0.443 0.128-0.2 0.192-0.456 0.192-0.768s-0.064-0.57-0.192-0.773c-0.128-0.207-0.317-0.361-0.566-0.463-0.249-0.105-0.556-0.158-0.921-0.158h-1.201v8.12h-2.437zM127.326 24.191l2.512 4.609h-2.659l-2.462-4.609h2.609zM130.83 28.8v-10.085h7.031v1.98h-4.594v2.068h4.235v1.984h-4.235v2.073h4.594v1.98h-7.031zM139.388 28.8v-10.085h4.166c0.755 0 1.407 0.148 1.955 0.443 0.551 0.292 0.976 0.701 1.275 1.226 0.3 0.522 0.449 1.129 0.449 1.822 0 0.696-0.154 1.305-0.459 1.827-0.302 0.519-0.734 0.921-1.295 1.206s-1.228 0.428-1.999 0.428h-2.571v-1.92h2.117c0.368 0 0.675-0.064 0.921-0.192 0.25-0.128 0.438-0.307 0.566-0.537 0.128-0.233 0.192-0.504 0.192-0.813 0-0.312-0.064-0.581-0.192-0.808-0.128-0.23-0.317-0.407-0.566-0.532s-0.556-0.187-0.921-0.187h-1.201v8.12h-2.438zM149.396 28.8h-2.619l3.403-10.085h3.245l3.403 10.085h-2.62l-2.369-7.544h-0.079l-2.364 7.544zM149.047 24.831h5.475v1.852h-5.475v-1.852zM160.351 18.715v10.085h-2.437v-10.085h2.437zM161.881 28.8v-10.085h4.166c0.755 0 1.407 0.136 1.955 0.409 0.551 0.269 0.976 0.657 1.275 1.162 0.299 0.502 0.448 1.098 0.448 1.788 0 0.699-0.153 1.293-0.458 1.783-0.305 0.486-0.738 0.857-1.3 1.113-0.561 0.253-1.226 0.379-1.994 0.379h-2.635v-1.92h2.181c0.368 0 0.674-0.048 0.921-0.143 0.25-0.098 0.438-0.246 0.566-0.443 0.128-0.2 0.192-0.456 0.192-0.768s-0.064-0.57-0.192-0.773c-0.128-0.207-0.317-0.361-0.566-0.463-0.25-0.105-0.556-0.158-0.921-0.158h-1.201v8.12h-2.438zM167.558 24.191l2.512 4.609h-2.659l-2.463-4.609h2.61z"></path>
</symbol>
</defs>
</svg>
