<svg width="136" height="38" viewBox="0 0 136 38" fill="none" xmlns="http://www.w3.org/2000/svg">
<path d="M70.6116 38C68.5719 38 66.5159 37.8668 64.4436 37.6002C59.7967 37.0004 52.5927 32.6683 48.3772 27.9365C47.1337 26.537 45.7575 24.9946 44.5886 22.7762C43.0218 24.4234 41.2767 25.2041 39.5772 25.7754C26.0642 30.3073 12.0083 24.5757 0 9.63758L0.39378 7.96189C12.2446 22.7097 26.1181 28.3555 39.457 23.8902C40.9741 23.3761 42.5244 22.7001 43.9212 21.3672C42.6487 18.3871 41.7534 14.2933 41.7948 8.1999C41.8197 4.72481 42.7689 1.70672 44.2197 0.507086C45.629 -0.65445 47.0964 0.211944 48.0456 2.77305C48.2653 3.36333 48.4435 4.02027 48.5803 4.70577C49.6704 10.3421 48.2777 16.921 46.4124 20.2628C46.0891 20.8435 45.7533 21.3577 45.401 21.8146C46.342 23.4332 47.4736 24.8042 48.742 26.2228C52.8705 30.8594 59.9377 35.1057 64.489 35.696C74.3625 36.9718 83.8922 35.1819 92.8043 30.3738C95.08 29.1456 97.3801 27.689 99.6063 26.2704C104.618 23.0904 109.803 19.7963 115.084 18.9108C123.967 17.4351 131.789 24.014 136 36.5052L135.345 37.6669C131.304 25.6706 123.755 19.3773 115.146 20.8055C109.944 21.6719 104.8 24.9375 99.8259 28.0984C97.5916 29.517 95.2827 30.9832 92.9907 32.2209C85.8736 36.0578 78.3667 37.9905 70.607 37.9905L70.6116 38ZM45.4591 1.91616C45.115 1.91616 44.7876 2.05899 44.5016 2.297C43.3782 3.22052 42.6404 5.55312 42.6238 8.22847C42.5865 13.9885 43.3741 17.6731 44.7171 20.5103C45.1316 20.0058 45.5296 19.4249 45.9026 18.7585C47.5192 15.8642 48.7419 10.2278 47.8218 5.47696C47.7181 4.95331 47.5813 4.45822 47.4155 4.00123C46.8477 2.46838 46.1264 1.90665 45.4591 1.90665V1.91616Z" fill="#C40000"/>
</svg>
