<svg width="127" height="57" viewBox="0 0 127 57" fill="none" xmlns="http://www.w3.org/2000/svg">
<path d="M45.0046 56.3012C44.0654 56.3012 43.1262 56.1206 42.1994 55.7761C35.724 53.3148 32.7705 43.0432 34.0805 35.003C35.2049 28.095 38.801 21.6137 44.7821 15.7067C45.9684 14.5417 47.1919 13.4423 48.44 12.4086C44.881 8.17519 40.5064 5.13962 36.0823 4.02386C25.1087 1.25083 12.4545 7.09224 2.24705 19.6611L0.566406 17.249C11.3423 3.99104 24.7998 -2.16213 36.5519 0.807803C41.668 2.10406 46.7223 5.63188 50.7262 10.62C62.6884 1.79231 77.0851 -0.9315 90.4437 3.3347C106.101 8.33927 119.707 22.7787 126.849 41.9602L124.637 43.4206C117.828 25.1088 104.828 11.3256 89.8752 6.53434C77.3322 2.51427 63.8376 4.97555 52.5303 13.0649C57.2263 20.0549 59.945 29.2601 58.598 39.0723C57.7701 45.0777 54.8907 50.7387 51.0969 53.8727C49.1321 55.4971 47.0683 56.3175 45.0292 56.3175L45.0046 56.3012ZM50.2442 14.7714C48.8726 15.8708 47.5379 17.0686 46.2527 18.332C40.7659 23.7469 37.4787 29.5882 36.4901 35.6921C35.415 42.2884 37.726 50.6731 42.8791 52.6257C45.7213 53.7086 48.1929 52.3796 49.7746 51.0833C52.9505 48.4579 55.4591 43.5191 56.1512 38.4651C57.3622 29.7032 54.7176 21.2036 50.2566 14.7714H50.2442Z" fill="#C40000"/>
</svg>
