<svg width="271" height="31" viewBox="0 0 271 31" fill="none" xmlns="http://www.w3.org/2000/svg">
<path d="M9.12 30V7.28H0.16V2H24.56V7.28H15.6V30H9.12ZM40.6866 8.16C42.3932 8.16 43.9132 8.50667 45.2466 9.2C46.6066 9.86667 47.6732 10.9067 48.4466 12.32C49.2199 13.7067 49.6066 15.4933 49.6066 17.68V30H43.3666V18.64C43.3666 16.9067 42.9799 15.6267 42.2066 14.8C41.4599 13.9733 40.3932 13.56 39.0066 13.56C38.0199 13.56 37.1266 13.7733 36.3266 14.2C35.5532 14.6 34.9399 15.2267 34.4866 16.08C34.0599 16.9333 33.8466 18.0267 33.8466 19.36V30H27.6066V0.319998H33.8466V14.44L32.4466 12.64C33.2199 11.2 34.3266 10.0933 35.7666 9.32C37.2066 8.54667 38.8466 8.16 40.6866 8.16ZM66.0991 30.32C63.6457 30.32 61.4857 29.84 59.6191 28.88C57.7791 27.92 56.3524 26.6133 55.3391 24.96C54.3257 23.28 53.8191 21.3733 53.8191 19.24C53.8191 17.08 54.3124 15.1733 55.2991 13.52C56.3124 11.84 57.6857 10.5333 59.4191 9.6C61.1524 8.64 63.1124 8.16 65.2991 8.16C67.4057 8.16 69.2991 8.61333 70.9791 9.52C72.6857 10.4 74.0324 11.68 75.0191 13.36C76.0057 15.0133 76.4991 17 76.4991 19.32C76.4991 19.56 76.4857 19.84 76.4591 20.16C76.4324 20.4533 76.4057 20.7333 76.3791 21H58.8991V17.36H73.0991L70.6991 18.44C70.6991 17.32 70.4724 16.3467 70.0191 15.52C69.5657 14.6933 68.9391 14.0533 68.1391 13.6C67.3391 13.12 66.4057 12.88 65.3391 12.88C64.2724 12.88 63.3257 13.12 62.4991 13.6C61.6991 14.0533 61.0724 14.7067 60.6191 15.56C60.1657 16.3867 59.9391 17.3733 59.9391 18.52V19.48C59.9391 20.6533 60.1924 21.6933 60.6991 22.6C61.2324 23.48 61.9657 24.16 62.8991 24.64C63.8591 25.0933 64.9791 25.32 66.2591 25.32C67.4057 25.32 68.4057 25.1467 69.2591 24.8C70.1391 24.4533 70.9391 23.9333 71.6591 23.24L74.9791 26.84C73.9924 27.96 72.7524 28.8267 71.2591 29.44C69.7657 30.0267 68.0457 30.32 66.0991 30.32Z" fill="black"/>
<path d="M92.4216 30V2H98.9016V24.72H112.942V30H92.4216ZM126.646 30.32C124.193 30.32 122.033 29.84 120.166 28.88C118.326 27.92 116.899 26.6133 115.886 24.96C114.873 23.28 114.366 21.3733 114.366 19.24C114.366 17.08 114.859 15.1733 115.846 13.52C116.859 11.84 118.233 10.5333 119.966 9.6C121.699 8.64 123.659 8.16 125.846 8.16C127.953 8.16 129.846 8.61333 131.526 9.52C133.233 10.4 134.579 11.68 135.566 13.36C136.553 15.0133 137.046 17 137.046 19.32C137.046 19.56 137.033 19.84 137.006 20.16C136.979 20.4533 136.953 20.7333 136.926 21H119.446V17.36H133.646L131.246 18.44C131.246 17.32 131.019 16.3467 130.566 15.52C130.113 14.6933 129.486 14.0533 128.686 13.6C127.886 13.12 126.953 12.88 125.886 12.88C124.819 12.88 123.873 13.12 123.046 13.6C122.246 14.0533 121.619 14.7067 121.166 15.56C120.713 16.3867 120.486 17.3733 120.486 18.52V19.48C120.486 20.6533 120.739 21.6933 121.246 22.6C121.779 23.48 122.513 24.16 123.446 24.64C124.406 25.0933 125.526 25.32 126.806 25.32C127.953 25.32 128.953 25.1467 129.806 24.8C130.686 24.4533 131.486 23.9333 132.206 23.24L135.526 26.84C134.539 27.96 133.299 28.8267 131.806 29.44C130.313 30.0267 128.593 30.32 126.646 30.32ZM153.814 30V25.8L153.414 24.88V17.36C153.414 16.0267 153.001 14.9867 152.174 14.24C151.374 13.4933 150.134 13.12 148.454 13.12C147.308 13.12 146.174 13.3067 145.054 13.68C143.961 14.0267 143.028 14.5067 142.254 15.12L140.014 10.76C141.188 9.93333 142.601 9.29333 144.254 8.84C145.908 8.38667 147.588 8.16 149.294 8.16C152.574 8.16 155.121 8.93333 156.934 10.48C158.748 12.0267 159.654 14.44 159.654 17.72V30H153.814ZM147.254 30.32C145.574 30.32 144.134 30.04 142.934 29.48C141.734 28.8933 140.814 28.1067 140.174 27.12C139.534 26.1333 139.214 25.0267 139.214 23.8C139.214 22.52 139.521 21.4 140.134 20.44C140.774 19.48 141.774 18.7333 143.134 18.2C144.494 17.64 146.268 17.36 148.454 17.36H154.174V21H149.134C147.668 21 146.654 21.24 146.094 21.72C145.561 22.2 145.294 22.8 145.294 23.52C145.294 24.32 145.601 24.96 146.214 25.44C146.854 25.8933 147.721 26.12 148.814 26.12C149.854 26.12 150.788 25.88 151.614 25.4C152.441 24.8933 153.041 24.16 153.414 23.2L154.374 26.08C153.921 27.4667 153.094 28.52 151.894 29.24C150.694 29.96 149.148 30.32 147.254 30.32ZM165.302 30V8.48H171.262V14.56L170.422 12.8C171.062 11.28 172.089 10.1333 173.502 9.36C174.915 8.56 176.635 8.16 178.662 8.16V13.92C178.395 13.8933 178.155 13.88 177.942 13.88C177.729 13.8533 177.502 13.84 177.262 13.84C175.555 13.84 174.169 14.3333 173.102 15.32C172.062 16.28 171.542 17.7867 171.542 19.84V30H165.302ZM195.452 8.16C197.159 8.16 198.679 8.50667 200.012 9.2C201.372 9.86667 202.439 10.9067 203.212 12.32C203.986 13.7067 204.372 15.4933 204.372 17.68V30H198.132V18.64C198.132 16.9067 197.746 15.6267 196.972 14.8C196.226 13.9733 195.159 13.56 193.772 13.56C192.786 13.56 191.892 13.7733 191.092 14.2C190.319 14.6 189.706 15.2267 189.252 16.08C188.826 16.9333 188.612 18.0267 188.612 19.36V30H182.372V8.48H188.332V14.44L187.212 12.64C187.986 11.2 189.092 10.0933 190.532 9.32C191.972 8.54667 193.612 8.16 195.452 8.16ZM220.865 30.32C218.411 30.32 216.251 29.84 214.385 28.88C212.545 27.92 211.118 26.6133 210.105 24.96C209.091 23.28 208.585 21.3733 208.585 19.24C208.585 17.08 209.078 15.1733 210.065 13.52C211.078 11.84 212.451 10.5333 214.185 9.6C215.918 8.64 217.878 8.16 220.065 8.16C222.171 8.16 224.065 8.61333 225.745 9.52C227.451 10.4 228.798 11.68 229.785 13.36C230.771 15.0133 231.265 17 231.265 19.32C231.265 19.56 231.251 19.84 231.225 20.16C231.198 20.4533 231.171 20.7333 231.145 21H213.665V17.36H227.865L225.465 18.44C225.465 17.32 225.238 16.3467 224.785 15.52C224.331 14.6933 223.705 14.0533 222.905 13.6C222.105 13.12 221.171 12.88 220.105 12.88C219.038 12.88 218.091 13.12 217.265 13.6C216.465 14.0533 215.838 14.7067 215.385 15.56C214.931 16.3867 214.705 17.3733 214.705 18.52V19.48C214.705 20.6533 214.958 21.6933 215.465 22.6C215.998 23.48 216.731 24.16 217.665 24.64C218.625 25.0933 219.745 25.32 221.025 25.32C222.171 25.32 223.171 25.1467 224.025 24.8C224.905 24.4533 225.705 23.9333 226.425 23.24L229.745 26.84C228.758 27.96 227.518 28.8267 226.025 29.44C224.531 30.0267 222.811 30.32 220.865 30.32ZM242.659 30.32C240.819 30.32 239.046 30.1067 237.339 29.68C235.659 29.2267 234.326 28.6667 233.339 28L235.419 23.52C236.406 24.1333 237.566 24.64 238.899 25.04C240.259 25.4133 241.592 25.6 242.899 25.6C244.339 25.6 245.352 25.4267 245.939 25.08C246.552 24.7333 246.859 24.2533 246.859 23.64C246.859 23.1333 246.619 22.76 246.139 22.52C245.686 22.2533 245.072 22.0533 244.299 21.92C243.526 21.7867 242.672 21.6533 241.739 21.52C240.832 21.3867 239.912 21.2133 238.979 21C238.046 20.76 237.192 20.4133 236.419 19.96C235.646 19.5067 235.019 18.8933 234.539 18.12C234.086 17.3467 233.859 16.3467 233.859 15.12C233.859 13.76 234.246 12.56 235.019 11.52C235.819 10.48 236.966 9.66667 238.459 9.08C239.952 8.46667 241.739 8.16 243.819 8.16C245.286 8.16 246.779 8.32 248.299 8.64C249.819 8.96 251.086 9.42667 252.099 10.04L250.019 14.48C248.979 13.8667 247.926 13.4533 246.859 13.24C245.819 13 244.806 12.88 243.819 12.88C242.432 12.88 241.419 13.0667 240.779 13.44C240.139 13.8133 239.819 14.2933 239.819 14.88C239.819 15.4133 240.046 15.8133 240.499 16.08C240.979 16.3467 241.606 16.56 242.379 16.72C243.152 16.88 243.992 17.0267 244.899 17.16C245.832 17.2667 246.766 17.44 247.699 17.68C248.632 17.92 249.472 18.2667 250.219 18.72C250.992 19.1467 251.619 19.7467 252.099 20.52C252.579 21.2667 252.819 22.2533 252.819 23.48C252.819 24.8133 252.419 26 251.619 27.04C250.819 28.0533 249.659 28.8533 248.139 29.44C246.646 30.0267 244.819 30.32 242.659 30.32ZM265.469 30.32C262.936 30.32 260.962 29.68 259.549 28.4C258.136 27.0933 257.429 25.16 257.429 22.6V3.72H263.669V22.52C263.669 23.4267 263.909 24.1333 264.389 24.64C264.869 25.12 265.522 25.36 266.349 25.36C267.336 25.36 268.176 25.0933 268.869 24.56L270.549 28.96C269.909 29.4133 269.136 29.76 268.229 30C267.349 30.2133 266.429 30.32 265.469 30.32ZM254.109 13.76V8.96H269.029V13.76H254.109Z" fill="#C40000"/>
</svg>
