<svg width="460" height="1515" viewBox="0 0 460 1515" fill="none" xmlns="http://www.w3.org/2000/svg">
<rect x="30" y="81" width="399" height="1380" fill="#EFEFEF"/>
<path d="M29.7266 80.7871H55.2069V1460.97H29.7266V80.7871Z" fill="#C40000"/>
<path d="M403.438 80.7871H428.918V1460.97H403.438V80.7871Z" fill="#C40000"/>
<path d="M140.177 773L182.642 773L55.2027 1049.61L55.2027 950.547L140.177 773Z" fill="#C40000"/>
<path d="M140.175 773L182.642 773L50.1164 503.042L50.3384 600.409L140.175 773Z" fill="#C40000"/>
<path d="M47.5 643.998L115 773.384L51.5 915.498L47.5 643.998Z" fill="#C40000"/>
<path d="M177.295 600.463L203.151 633.468L144.032 724.08L116.05 692.126L177.295 600.463Z" fill="#C40000"/>
<path d="M209.657 649.413L236.412 681.693L179.814 773.9L150.962 742.73L209.657 649.413Z" fill="#C40000"/>
<path d="M140.5 554.17L166.202 587.296L106.662 677.631L78.8291 645.547L140.5 554.17Z" fill="#C40000"/>
<path d="M229.355 734.779L247.554 770.917L229.314 807.067L211.275 770.938L229.355 734.779Z" fill="#C40000"/>
<path d="M226.27 420.523L244.468 456.661L226.228 492.811L208.19 456.682L226.27 420.523Z" fill="#C40000"/>
<path d="M230.484 1053.28L248.683 1089.42L230.443 1125.57L212.404 1089.44L230.484 1053.28Z" fill="#C40000"/>
<path d="M92.7894 505.115L123.032 471.485L249.92 687.269L233.605 739.027L92.7894 505.115Z" fill="#EFEFEF"/>
<path d="M185.999 945.5L209.034 916.774L149.915 826.163L126.498 853L185.999 945.5Z" fill="#C40000"/>
<path d="M215.002 885L236.419 858.537L179.821 766.331L154.502 794L215.002 885Z" fill="#C40000"/>
<path d="M149.001 995.999L174.701 970.866L115.161 880.531L91.5006 908.499L149.001 995.999Z" fill="#C40000"/>
<path d="M151.72 1026.06L101.958 1052.77L220.07 811.154L261.517 823.325L151.72 1026.06Z" fill="#EFEFEF"/>
<path d="M319.984 773.002L277.517 773.002L404.959 1049.62L404.959 950.549L319.984 773.002Z" fill="#C40000"/>
<path d="M319.981 773.004L277.514 773.004L410.041 503.046L409.819 600.413L319.981 773.004Z" fill="#C40000"/>
<path d="M404.918 662.588L345.463 773.002L404.918 904.651V662.588Z" fill="#C40000"/>
<path d="M282.861 600.463L257.005 633.468L316.124 724.08L344.107 692.126L282.861 600.463Z" fill="#C40000"/>
<path d="M250.5 649.413L223.743 681.693L280.342 773.9L309.195 742.73L250.5 649.413Z" fill="#C40000"/>
<path d="M319.656 554.172L293.954 587.298L353.494 677.633L381.328 645.549L319.656 554.172Z" fill="#C40000"/>
<path d="M367.81 504.427L337.126 471.485L219.433 672.919L238.259 728.26L367.81 504.427Z" fill="#EFEFEF"/>
<path d="M274.787 945.539L256.298 915.26L314.298 828.76L336.032 853.877L274.787 945.539Z" fill="#C40000"/>
<path d="M252.002 877.501L223.75 858.537L280.349 766.331L303.502 793.501L252.002 877.501Z" fill="#C40000"/>
<path d="M311.179 1003.99L286.501 976.501L351.501 884.501L372.851 912.616L311.179 1003.99Z" fill="#C40000"/>
<path d="M308.445 1026.06L358.208 1052.77L240.094 811.155L212.374 843.074L308.445 1026.06Z" fill="#EFEFEF"/>
<path d="M228.066 264.23L229.023 351.533L414.088 80.7877L346.149 80.7869L228.066 264.23Z" fill="#C40000"/>
<path d="M228.065 264.235L229.023 351.54L43.4926 81.091L109.336 80.8252L228.065 264.235Z" fill="#C40000"/>
<path d="M151.387 81.3125L227.488 211.841L315.066 79.517L151.387 81.3125Z" fill="#C40000"/>
<path d="M112.235 341.821L135.136 394.731L195.073 272.521L172.835 215.231L112.235 341.821Z" fill="#C40000"/>
<path d="M146.056 407.997L168.487 462.763L229.56 345.722L207.832 286.637L146.056 407.997Z" fill="#C40000"/>
<path d="M80.1062 266.526L103.085 319.119L162.826 196.044L140.503 139.061L80.1062 266.526Z" fill="#C40000"/>
<path d="M61.6661 191.201L55.2489 278.258L162.667 471.684L199.663 432.57L61.6661 191.201Z" fill="#EFEFEF"/>
<path d="M348.571 351.301L326.836 404.701L264.233 283.835L285.208 226.07L348.571 351.301Z" fill="#C40000"/>
<path d="M309.285 406.183L288.061 461.429L224.436 345.756L244.863 286.208L309.285 406.183Z" fill="#C40000"/>
<path d="M384.444 280.612L362.625 333.697L300.199 211.962L321.266 154.504L384.444 280.612Z" fill="#C40000"/>
<path d="M399.437 286.058L399.433 197.571L255.665 428.171L277.873 484.92L399.437 286.058Z" fill="#EFEFEF"/>
<path d="M228.066 264.23L229.023 351.533L414.088 80.7877L346.149 80.7869L228.066 264.23Z" fill="#C40000"/>
<path d="M228.065 264.235L229.023 351.54L43.4926 81.091L109.336 80.8252L228.065 264.235Z" fill="#C40000"/>
<path d="M151.387 81.3125L227.488 211.841L315.066 79.517L151.387 81.3125Z" fill="#C40000"/>
<path d="M112.235 341.821L135.136 394.731L195.073 272.521L172.835 215.231L112.235 341.821Z" fill="#C40000"/>
<path d="M146.056 407.997L168.487 462.763L229.56 345.722L207.832 286.637L146.056 407.997Z" fill="#C40000"/>
<path d="M80.1062 266.526L103.085 319.119L162.826 196.044L140.503 139.061L80.1062 266.526Z" fill="#C40000"/>
<path d="M61.6661 191.201L55.2489 278.258L162.667 471.684L199.663 432.57L61.6661 191.201Z" fill="#EFEFEF"/>
<path d="M348.571 351.301L326.836 404.701L264.233 283.835L285.208 226.07L348.571 351.301Z" fill="#C40000"/>
<path d="M309.285 406.183L288.061 461.429L224.436 345.756L244.863 286.208L309.285 406.183Z" fill="#C40000"/>
<path d="M384.444 280.612L362.625 333.697L300.199 211.962L321.266 154.504L384.444 280.612Z" fill="#C40000"/>
<path d="M399.437 286.058L399.433 197.571L255.665 428.171L277.873 484.92L399.437 286.058Z" fill="#EFEFEF"/>
<path d="M226.238 1251.5L226.238 1193.4L38.2212 1460.97L83.4977 1460.97L226.238 1251.5Z" fill="#C40000"/>
<path d="M226.234 1252L226.234 1193.39L409.807 1460.97L367.5 1460.97L226.234 1252Z" fill="#C40000"/>
<path d="M309 1461L228.008 1333L136 1461H309Z" fill="#C40000"/>
<path d="M346.212 1197.89L328.3 1149L266.3 1271L286.997 1309L346.212 1197.89Z" fill="#C40000"/>
<path d="M305.498 1131L287.982 1082.84L225.629 1199.2L245.998 1243.5L305.498 1131Z" fill="#C40000"/>
<path d="M374.214 1280.03L355.497 1232L296.997 1348.5L319.998 1383.5L374.214 1280.03Z" fill="#C40000"/>
<path d="M391.824 1355.55L399.196 1268.57L293.906 1073.98L256.483 1112.68L391.824 1355.55Z" fill="#EFEFEF"/>
<path d="M109.002 1187.5L129.502 1147L187.775 1263.55L169.002 1307.5L109.002 1187.5Z" fill="#C40000"/>
<path d="M147.501 1123L166.5 1083L230.757 1199.22L209.5 1239.5L147.501 1123Z" fill="#C40000"/>
<path d="M76.0009 1254L92.4451 1209.77L153.532 1332.18L130.5 1364L76.0009 1254Z" fill="#C40000"/>
<path d="M55.1145 1257L55.112 1345.29L200.437 1116.47L178.853 1059.48L55.1145 1257Z" fill="#EFEFEF"/>
<path d="M40.3789 388.674L116.807 539.433L65.8637 617.997L40.3789 388.674Z" fill="#C40000"/>
<path d="M414.09 407.783L344.019 541.555L394.98 615.872L414.09 407.783Z" fill="#C40000"/>
<path d="M50.0944 346.662L48.1053 280.433L230.501 589.5L230.502 654.5L50.0944 346.662Z" fill="#C40000"/>
<path d="M407.355 357.374L414.709 290.243L230.498 589.499L230.498 654.499L407.355 357.374Z" fill="#C40000"/>
<path d="M405.026 1201.4L412.298 1273.52L229.89 943.499L229.89 896.168L405.026 1201.4Z" fill="#C40000"/>
<path d="M51.5339 1193.44L51.5339 1265.63L229.91 942.499L229.91 896.157L51.5339 1193.44Z" fill="#C40000"/>
</svg>
