<?xml version="1.0" standalone="no"?>
<!DOCTYPE svg PUBLIC "-//W3C//DTD SVG 20010904//EN"
 "http://www.w3.org/TR/2001/REC-SVG-20010904/DTD/svg10.dtd">
<svg version="1.0" xmlns="http://www.w3.org/2000/svg"
 width="512.000000pt" height="512.000000pt" viewBox="0 0 512.000000 512.000000"
 preserveAspectRatio="xMidYMid meet">

<g transform="translate(0.000000,512.000000) scale(0.100000,-0.100000)"
fill="#000000" stroke="none">
<path d="M1258 5109 c-113 -26 -235 -128 -286 -236 -25 -54 -27 -69 -30 -230
l-4 -172 -376 -3 -377 -3 -53 -29 c-28 -16 -63 -44 -77 -62 -57 -75 -55 -37
-55 -1059 0 -519 3 -951 6 -960 10 -24 60 -46 89 -39 55 14 55 11 55 487 l0
439 44 -53 c92 -111 235 -206 376 -250 l55 -17 5 -133 c4 -118 8 -138 29 -172
12 -21 41 -47 63 -58 36 -18 55 -20 198 -17 176 3 190 8 238 78 20 30 22 45
22 156 l0 124 824 0 824 0 3 -122 c4 -108 7 -128 28 -161 12 -21 41 -47 63
-58 36 -18 55 -20 198 -17 176 3 190 8 238 78 20 30 22 45 22 166 l0 132 67
22 c136 44 251 117 351 224 34 36 64 66 67 66 3 0 5 -160 5 -355 0 -195 -3
-355 -6 -355 -3 0 -63 26 -133 57 -196 88 -112 111 -941 -255 -388 -172 -716
-320 -729 -330 -98 -73 -92 -216 11 -275 24 -14 93 -46 153 -73 127 -55 135
-60 135 -85 0 -19 -22 -19 -937 -17 l-938 3 -68 32 c-89 42 -178 128 -217 207
-36 74 -50 143 -50 251 0 72 -3 84 -23 103 -33 31 -80 29 -107 -6 -21 -25 -22
-35 -18 -147 4 -95 10 -135 31 -195 61 -172 194 -305 373 -373 l59 -22 945 -5
945 -5 5 -315 5 -316 33 -44 c32 -45 127 -117 182 -140 27 -11 30 -17 30 -60
0 -45 -6 -55 -135 -225 -110 -145 -135 -183 -135 -210 0 -60 74 -96 118 -57
11 9 48 55 83 102 l64 85 3 -82 c3 -75 5 -84 29 -103 69 -54 123 -4 123 116
l0 66 68 -88 c37 -49 79 -95 93 -103 37 -21 76 -7 95 33 21 43 18 49 -135 250
-80 104 -121 167 -121 183 0 21 4 24 23 19 473 -133 1245 -114 1652 39 143 54
267 146 295 220 6 16 10 187 10 424 0 307 3 401 13 408 6 5 62 31 122 57 61
26 129 59 153 72 94 55 110 188 30 262 -35 32 -217 112 -255 112 -22 0 -38 -8
-52 -26 -45 -57 -15 -97 114 -153 49 -22 91 -44 93 -50 5 -14 23 -5 -727 -336
-370 -163 -681 -295 -691 -292 -30 8 -670 291 -670 297 0 3 111 56 246 117
232 107 247 112 272 99 116 -59 310 -35 395 50 154 154 -32 359 -292 323 -127
-18 -217 -93 -229 -189 l-7 -53 -289 -132 c-223 -103 -294 -131 -310 -125 -79
31 -502 222 -510 230 -6 6 -6 13 0 18 5 5 113 54 239 109 127 56 441 194 698
308 l468 206 477 -211 c295 -130 489 -210 509 -210 22 0 38 8 52 26 54 69 26
92 -294 232 l-270 118 -5 915 c-5 852 -6 917 -23 954 -23 50 -70 100 -122 128
-39 21 -53 22 -416 25 l-377 3 -4 162 c-4 139 -8 170 -27 220 -46 118 -145
209 -268 247 -55 17 -93 20 -243 20 -98 0 -186 -3 -195 -6 -8 -4 -23 -20 -31
-36 -13 -25 -13 -35 -3 -59 6 -17 20 -34 30 -39 10 -6 93 -10 186 -10 92 0
185 -5 205 -10 63 -18 129 -70 162 -130 30 -54 31 -59 34 -207 l4 -153 -60 0
-60 0 -4 140 c-4 151 -9 168 -72 214 -27 21 -36 21 -724 21 -679 0 -698 -1
-731 -20 -59 -35 -71 -71 -71 -222 l0 -133 -61 0 -61 0 4 158 c3 150 4 159 30
204 16 25 45 60 65 78 70 57 96 60 528 60 l392 0 21 23 c31 33 29 80 -4 106
-26 20 -36 21 -428 20 -220 -1 -418 -5 -438 -10z m1400 -526 l3 -113 -651 0
-650 0 0 115 0 115 648 -2 647 -3 3 -112z m1159 -283 c51 -31 56 -66 50 -395
-5 -325 -10 -354 -78 -493 -59 -120 -161 -222 -288 -285 -51 -26 -99 -47 -107
-47 -11 0 -14 23 -14 114 0 101 -2 117 -22 146 -48 70 -62 75 -239 78 -150 3
-161 2 -199 -19 -71 -40 -84 -74 -89 -221 l-3 -128 -824 0 -824 0 0 129 c0
116 -2 131 -22 161 -48 70 -62 75 -238 78 -143 3 -162 1 -198 -17 -68 -35 -86
-77 -91 -209 -4 -131 6 -125 -121 -64 -109 53 -231 176 -287 292 -65 132 -73
192 -73 533 0 285 1 295 21 321 12 15 31 32 43 36 11 5 820 9 1796 9 1743 1
1776 1 1807 -19z m-2787 -1140 l0 -111 -122 3 -123 3 -3 94 c-1 52 -1 100 2
108 4 10 35 13 126 13 l120 0 0 -110z m2200 0 l0 -111 -122 3 -123 3 -3 94
c-1 52 -1 100 2 108 4 10 35 13 126 13 l120 0 0 -110z m-2200 -365 l0 -106
-122 3 -123 3 -3 103 -3 102 126 0 125 0 0 -105z m2200 0 l0 -106 -122 3 -123
3 -3 103 -3 102 126 0 125 0 0 -105z m420 -843 c19 -9 35 -23 35 -31 0 -29
-66 -56 -135 -56 -69 0 -135 27 -135 56 0 25 65 49 135 49 42 0 77 -6 100 -18z
m-1052 -475 c15 -12 18 -747 2 -747 -5 0 -28 16 -50 36 l-40 36 0 359 0 359
38 -17 c20 -10 43 -21 50 -26z m1965 -700 c-88 -91 -379 -177 -706 -208 -170
-16 -615 -7 -757 16 -115 18 -308 61 -328 73 -9 7 -12 89 -10 378 l3 370 360
-160 c345 -153 363 -160 425 -160 63 0 80 6 500 193 239 106 458 203 485 215
l50 22 3 -355 2 -355 -27 -29z"/>
</g>
</svg>
